<?xml version="1.0" encoding="UTF-8"?>
<!DOCTYPE svg  PUBLIC '-//W3C//DTD SVG 1.1//EN'  'http://www.w3.org/Graphics/SVG/1.1/DTD/svg11.dtd'>
<svg version="1.1" xmlns="http://www.w3.org/2000/svg">
<defs>
<font id="OpenSansCondensed-ExtraBold" horiz-adv-x="1083">
<font-face font-family="Open Sans Condensed ExtraBold" font-stretch="condensed" font-weight="800" ascent="1638" bbox="-1065 -572 2273 2286" cap-height="1462" descent="-410" panose-1="0 0 0 0 0 0 0 0 0 0" underline-position="-125" underline-thickness="50" unicode-range="U+0020-FB4B" units-per-em="2048" x-height="1133"/>
<missing-glyph/>
<glyph d="M655 860h-184v-860h-332v860h-125v176l125 92v19q0 151 34.5 243t105 134.5t178.5 42.5q68 0 122 -12.5t130 -41.5l-66 -243q-28 9 -54 14.5t-52 5.5q-34 0 -50 -27.5t-16 -88.5v-41h184v-273zM1325 860h-184v-860h-332v860h-125v176l125 92v19q0 151 34.5 243t105 134.5 t178.5 42.5q68 0 122 -12.5t130 -41.5l-66 -243q-28 9 -54 14.5t-52 5.5q-34 0 -50 -27.5t-16 -88.5v-41h184v-273z" glyph-name="f_f" horiz-adv-x="1339" unicode="ff"/>
<glyph d="M655 860h-184v-860h-332v860h-125v176l125 92v19q0 151 34.5 243t105 134.5t178.5 42.5q68 0 122 -12.5t130 -41.5l-66 -243q-28 9 -54 14.5t-52 5.5q-34 0 -50 -27.5t-16 -88.5v-41h184v-273zM1106 1133v-1133h-332v1133h332zM940 1589q92 0 134 -44t42 -130t-44 -129 t-132 -43q-87 0 -131.5 43t-44.5 129q0 88 42 131t134 43z" glyph-name="fi" horiz-adv-x="1212" unicode="fi"/>
<glyph d="M655 860h-184v-860h-332v860h-125v176l125 92v19q0 151 34.5 243t105 134.5t178.5 42.5q68 0 122 -12.5t130 -41.5l-66 -243q-28 9 -54 14.5t-52 5.5q-34 0 -50 -27.5t-16 -88.5v-41h184v-273zM1104 0h-332v1556h332v-1556z" glyph-name="fl" horiz-adv-x="1208" unicode="fl"/>
<glyph d="M655 860h-184v-860h-332v860h-125v176l125 92v19q0 151 34.5 243t105 134.5t178.5 42.5q68 0 122 -12.5t130 -41.5l-66 -243q-28 9 -54 14.5t-52 5.5q-34 0 -50 -27.5t-16 -88.5v-41h184v-273zM1325 860h-184v-860h-332v860h-125v176l125 92v19q0 151 34.5 243t105 134.5 t178.5 42.5q68 0 122 -12.5t130 -41.5l-66 -243q-28 9 -54 14.5t-52 5.5q-34 0 -50 -27.5t-16 -88.5v-41h184v-273zM1775 1133v-1133h-332v1133h332zM1609 1589q92 0 134 -44t42 -130t-44 -129t-132 -43q-87 0 -131.5 43t-44.5 129q0 88 42 131t134 43z" glyph-name="f_f_i" horiz-adv-x="1882" unicode="ffi"/>
<glyph d="M655 860h-184v-860h-332v860h-125v176l125 92v19q0 151 34.5 243t105 134.5t178.5 42.5q68 0 122 -12.5t130 -41.5l-66 -243q-28 9 -54 14.5t-52 5.5q-34 0 -50 -27.5t-16 -88.5v-41h184v-273zM1325 860h-184v-860h-332v860h-125v176l125 92v19q0 151 34.5 243t105 134.5 t178.5 42.5q68 0 122 -12.5t130 -41.5l-66 -243q-28 9 -54 14.5t-52 5.5q-34 0 -50 -27.5t-16 -88.5v-41h184v-273zM1773 0h-332v1556h332v-1556z" glyph-name="f_f_l" horiz-adv-x="1878" unicode="ffl"/>
<glyph glyph-name="space" horiz-adv-x="360" unicode=" "/>
<glyph d="M422 516h-287l-49 946h383zM88 166q0 92 48.5 142t142.5 50q89 0 136.5 -50t47.5 -142q0 -91 -49 -141t-135 -50q-88 0 -139.5 50t-51.5 141z" glyph-name="exclam" horiz-adv-x="555" unicode="!"/>
<glyph d="M436 1462l-41 -528h-274l-41 528h356zM911 1462l-41 -528h-274l-41 528h356z" glyph-name="quotedbl" horiz-adv-x="991" unicode='"'/>
<glyph d="M883 834l-31 -209h188v-234h-219l-57 -391h-240l58 391h-129l-56 -391h-237l55 391h-172v234h205l31 209h-187v239h219l58 389h237l-57 -389h127l55 389h240l-58 -389h177v-239h-207zM485 625h127l31 209h-127z" glyph-name="numbersign" horiz-adv-x="1116" unicode="#"/>
<glyph d="M444 -119v187q-81 6 -171 28.5t-169 59.5v295q75 -51 167 -91t173 -42v316q-115 47 -193.5 103.5t-118.5 131.5t-40 175q0 112 45 189.5t124.5 122.5t182.5 59v139h146v-137q74 -6 153 -30.5t154 -65.5l-70 -248q-56 35 -119 55.5t-118 27.5v-291q116 -44 189.5 -95.5 t109 -121.5t35.5 -171q0 -152 -87 -260.5t-247 -140.5v-195h-146zM590 337q42 17 59 48t17 72q0 25 -9 45t-26 37t-41 31v-233zM444 926v228q-34 -8 -52.5 -24.5t-26 -39.5t-7.5 -52q0 -22 9 -41.5t28 -36.5t49 -34z" glyph-name="dollar" horiz-adv-x="1014" unicode="$"/>
<glyph d="M371 1483q149 0 238 -124t89 -333q0 -220 -85 -340.5t-242 -120.5q-149 0 -235.5 125t-86.5 336q0 220 85 338.5t237 118.5zM375 1253q-35 0 -53.5 -57t-18.5 -174q0 -120 18.5 -175.5t53.5 -55.5t52 55t17 176q0 120 -17 175.5t-52 55.5zM1280 1462l-600 -1462h-246 l600 1462h246zM1343 901q149 0 237.5 -124t88.5 -333q0 -219 -85.5 -339.5t-240.5 -120.5q-150 0 -235.5 125t-85.5 335q0 220 84 338.5t237 118.5zM1346 672q-36 0 -53 -57.5t-17 -174.5q0 -119 17 -175t53 -56q40 0 54.5 63.5t14.5 167.5q0 105 -14.5 168.5t-54.5 63.5z " glyph-name="percent" horiz-adv-x="1720" unicode="%"/>
<glyph d="M563 1481q123 0 207.5 -42t128 -120t43.5 -186q0 -111 -60 -200.5t-161 -164.5l137 -172q19 40 33 96.5t27 128.5h350q-22 -132 -67 -263.5t-118 -250.5l244 -307h-426l-61 86q-52 -35 -109 -58.5t-122.5 -35.5t-145.5 -12q-138 0 -231 52t-140 148t-47 226 q0 88 27.5 162t82.5 133.5t138 105.5q-40 48 -67 98t-40.5 106t-13.5 122q0 102 48.5 180.5t136.5 123t206 44.5zM453 602q-22 -20 -37 -46.5t-22 -58.5t-7 -71q0 -57 34 -105.5t97 -48.5q45 0 77 14.5t64 39.5zM561 1239q-32 0 -55 -25.5t-23 -78.5q0 -39 17.5 -80 t52.5 -84q41 32 63.5 80t22.5 96q0 46 -22 69t-56 23z" glyph-name="ampersand" horiz-adv-x="1317" unicode="&amp;"/>
<glyph d="M436 1462l-41 -528h-274l-41 528h356z" glyph-name="quotesingle" horiz-adv-x="516" unicode="'"/>
<glyph d="M88 582q0 194 36 360.5t98 307t138 253.5h304q-133 -199 -197 -425.5t-64 -493.5q0 -172 30.5 -324.5t89 -295.5t141.5 -288h-304q-80 118 -141.5 255t-96 298.5t-34.5 352.5z" glyph-name="parenleft" horiz-adv-x="668" unicode="("/>
<glyph d="M580 582q0 -191 -34.5 -352.5t-96.5 -298.5t-144 -255h-301q83 145 140.5 288t87.5 295.5t30 324.5q0 178 -28 337.5t-85.5 304t-144.5 277.5h301q78 -113 140.5 -253.5t98.5 -307t36 -360.5z" glyph-name="parenright" horiz-adv-x="668" unicode=")"/>
<glyph d="M637 1563l-39 -308l279 113l71 -287l-282 -37l213 -225l-244 -176l-150 272l-147 -272l-244 176l213 225l-282 37l71 287l279 -113l-39 308h301z" glyph-name="asterisk" horiz-adv-x="973" unicode="*"/>
<glyph d="M649 856h305v-268h-305v-361h-274v361h-305v268h305v367h274v-367z" glyph-name="plus" horiz-adv-x="1024" unicode="+"/>
<glyph d="M461 299l10 -23q-15 -112 -35 -212t-44 -187t-54 -162h-275q15 79 30.5 186.5t27.5 214t16 183.5h324z" glyph-name="comma" horiz-adv-x="559" unicode=","/>
<glyph d="M59 393v312h547v-312h-547z" glyph-name="hyphen" horiz-adv-x="666" unicode="-"/>
<glyph d="M92 166q0 92 49.5 142t141.5 50q89 0 136.5 -50t47.5 -142q0 -91 -48.5 -141t-135.5 -50q-88 0 -139.5 50t-51.5 141z" glyph-name="period" horiz-adv-x="559" unicode="."/>
<glyph d="M866 1483l-571 -1503h-289l572 1503h288z" glyph-name="slash" horiz-adv-x="870" unicode="/"/>
<glyph d="M942 729q0 -158 -19.5 -294.5t-68 -238.5t-133 -159t-215.5 -57q-144 0 -240.5 84t-145 250.5t-48.5 414.5q0 260 47 427t143.5 247t243.5 80q145 0 241.5 -84.5t145.5 -252t49 -417.5zM414 729q0 -156 7 -255t26.5 -146t58.5 -47q40 0 60 47t27 146t7 255 q0 152 -7 252.5t-27 150.5t-60 50q-37 0 -57 -50t-27.5 -150.5t-7.5 -252.5z" glyph-name="zero" horiz-adv-x="1014" unicode="0"/>
<glyph d="M819 0h-342v770q0 47 0.5 91.5t1.5 86t2 80.5q-13 -22 -30.5 -44.5t-38.5 -47.5l-127 -137l-207 198l434 465h307v-1462z" glyph-name="one" horiz-adv-x="1014" unicode="1"/>
<glyph d="M905 0h-852v244l277 370q92 124 137.5 202.5t60.5 132t15 102.5q0 62 -28 97.5t-87 35.5q-52 0 -102.5 -33.5t-118.5 -124.5l-166 223q66 86 132 137.5t138.5 74t157.5 22.5q120 0 214 -51t148 -143t54 -216q0 -85 -20.5 -166.5t-75 -176t-158.5 -218.5l-168 -203v-10 h442v-299z" glyph-name="two" horiz-adv-x="1014" unicode="2"/>
<glyph d="M895 1102q0 -74 -29.5 -138.5t-85.5 -114t-137 -79.5v-6q143 -31 214 -117t71 -229q0 -136 -61.5 -234.5t-174.5 -151t-270 -52.5q-100 0 -180 15.5t-181 59.5v316q79 -49 158.5 -73t147.5 -24q103 0 150.5 38.5t47.5 119.5q0 64 -25.5 102t-81.5 55t-149 17h-73v285h75 q83 0 138 19t82.5 58t27.5 97q0 63 -35.5 93t-107.5 30q-35 0 -72 -10.5t-76 -30.5t-80 -51l-125 250q98 75 197 106t229 31q188 0 297 -94.5t109 -286.5z" glyph-name="three" horiz-adv-x="1014" unicode="3"/>
<glyph d="M987 283h-143v-283h-336v283h-475v274l483 905h328v-899h143v-280zM508 563v199q0 9 0.5 42t1.5 72.5t2 69t2 31.5h-8q-13 -43 -28 -79t-32 -67l-141 -268h203z" glyph-name="four" horiz-adv-x="1014" unicode="4"/>
<glyph d="M571 958q103 0 183 -59.5t126 -165.5t46 -246q0 -163 -54.5 -276.5t-166 -172t-281.5 -58.5q-94 0 -174 18.5t-148 56.5v312q70 -40 149.5 -66.5t149.5 -26.5q57 0 96.5 22.5t60 67.5t20.5 111q0 92 -48 143.5t-143 51.5q-37 0 -75.5 -9t-82.5 -26l-108 72l43 755h688 v-301h-399l-15 -221q44 12 77.5 15t55.5 3z" glyph-name="five" horiz-adv-x="1014" unicode="5"/>
<glyph d="M66 618q0 132 16 258.5t55.5 236t108.5 193t173.5 130.5t252.5 47q52 0 104.5 -4.5t104.5 -12.5v-288q-42 9 -86 13.5t-90 4.5q-105 0 -175.5 -40.5t-106.5 -126.5t-40 -224h8q24 57 57 94.5t77 56.5t98 19q102 0 175.5 -56.5t112.5 -162.5t39 -256q0 -159 -50.5 -275.5 t-146 -180.5t-231.5 -64q-106 0 -190.5 43t-144 125.5t-90.5 201t-31 268.5zM514 274q43 0 70.5 53t27.5 167q0 97 -23 145.5t-73 48.5q-30 0 -53.5 -23t-37 -62t-13.5 -87q0 -52 7 -96t20.5 -77t32 -51t42.5 -18z" glyph-name="six" horiz-adv-x="1014" unicode="6"/>
<glyph d="M174 0l418 1161h-516v301h864v-233l-403 -1229h-363z" glyph-name="seven" horiz-adv-x="1014" unicode="7"/>
<glyph d="M508 1483q130 0 220.5 -41.5t137.5 -121.5t47 -194q0 -77 -20.5 -142t-64 -118t-113.5 -96q87 -61 138.5 -122t74 -124.5t22.5 -134.5q0 -130 -53 -221.5t-153 -139.5t-240 -48q-142 0 -241 47t-150.5 137.5t-51.5 220.5q0 78 22.5 146t71.5 126t128 107q-64 52 -105 109 t-60.5 120.5t-19.5 134.5q0 113 49.5 192.5t141.5 121t219 41.5zM385 391q0 -66 29.5 -103.5t87.5 -37.5q63 0 94 33.5t31 99.5q0 32 -8 62.5t-30.5 63.5t-66.5 71l-20 16q-43 -33 -68.5 -65.5t-37 -67t-11.5 -72.5zM508 1212q-40 0 -64 -30.5t-24 -79.5q0 -31 9 -59 t27.5 -53.5t47.5 -49.5q36 30 55.5 55t27 50.5t7.5 56.5q0 50 -25.5 80t-60.5 30z" glyph-name="eight" horiz-adv-x="1014" unicode="8"/>
<glyph d="M948 846q0 -139 -18.5 -268t-61 -237.5t-112.5 -189.5t-172 -126t-242 -45q-54 0 -106 4.5t-103 13.5v289q41 -11 85.5 -16t90.5 -5q106 0 176 40.5t106 127t40 223.5h-10q-24 -56 -57 -94t-76 -57t-97 -19q-104 0 -178 57.5t-113 164.5t-39 254q0 160 51.5 276.5 t148 180t231.5 63.5q106 0 190 -43t143.5 -125.5t91 -200.5t31.5 -268zM498 1188q-43 0 -71 -53t-28 -166q0 -97 24.5 -146t72.5 -49q40 0 63 29.5t33 70t10 72.5q0 25 -3 65t-13.5 80.5t-31.5 68.5t-56 28z" glyph-name="nine" horiz-adv-x="1014" unicode="9"/>
<glyph d="M100 166q0 92 48.5 142t142.5 50q89 0 135.5 -50t46.5 -142q0 -91 -48 -141t-134 -50q-89 0 -140 50t-51 141zM100 956q0 92 48.5 142.5t142.5 50.5q89 0 135.5 -50.5t46.5 -142.5q0 -90 -48 -140t-134 -50q-89 0 -140 50t-51 140z" glyph-name="colon" horiz-adv-x="573" unicode=":"/>
<glyph d="M461 299l10 -23q-15 -112 -35.5 -212t-44.5 -187t-53 -162h-277q17 81 32 187.5t26.5 212t17.5 184.5h324zM100 956q0 92 48.5 142.5t142.5 50.5q89 0 135.5 -50.5t46.5 -142.5q0 -90 -48 -140t-134 -50q-89 0 -140 50t-51 140z" glyph-name="semicolon" horiz-adv-x="573" unicode=";"/>
<glyph d="M954 229l-895 424v172l895 422v-297l-503 -211l503 -215v-295z" glyph-name="less" horiz-adv-x="1024" unicode="&lt;"/>
<glyph d="M70 815v268h884v-268h-884zM70 358v271h884v-271h-884z" glyph-name="equal" horiz-adv-x="1024" unicode="="/>
<glyph d="M70 524l503 215l-503 211v297l895 -422v-172l-895 -424v295z" glyph-name="greater" horiz-adv-x="1024" unicode="&gt;"/>
<glyph d="M219 516v86q0 67 14 117t44.5 93.5t80.5 88.5q41 37 66 65t36 56.5t11 67.5q0 47 -28.5 72.5t-88.5 25.5q-53 0 -115 -27t-133 -80l-106 260q97 71 193.5 106.5t193.5 35.5q200 0 304 -99t104 -266q0 -88 -22.5 -152.5t-65 -117.5t-103.5 -107q-51 -46 -73.5 -73 t-27.5 -49t-5 -52v-51h-279zM170 166q0 92 49.5 142t140.5 50q89 0 137 -50t48 -142q0 -91 -48.5 -141t-136.5 -50q-87 0 -138.5 50t-51.5 141z" glyph-name="question" horiz-adv-x="823" unicode="?"/>
<glyph d="M1501 756q0 -114 -24.5 -209.5t-69 -165.5t-104 -109t-129.5 -39q-80 0 -135.5 36.5t-80.5 103.5h-14q-41 -70 -93 -105t-114 -35q-145 0 -224 107t-79 299q0 140 49.5 247t139.5 167.5t213 60.5q68 0 145 -16t143 -45l-16 -422q-1 -29 -2.5 -59.5t-1.5 -59.5 q0 -41 14.5 -63.5t40.5 -22.5q32 0 57 31.5t39.5 104t14.5 196.5q0 155 -51 274t-153 186.5t-255 67.5q-121 0 -215.5 -47t-159 -135.5t-98 -211t-33.5 -274.5q0 -181 56.5 -309.5t168 -197t277.5 -68.5q97 0 208.5 26t215.5 70v-209q-94 -43 -198.5 -63.5t-221.5 -20.5 q-236 0 -402 91.5t-252.5 263t-86.5 409.5q0 200 54 360.5t152.5 274.5t234.5 175t300 61q206 0 361.5 -90t242 -253t86.5 -382zM680 637q0 -111 24 -161t64 -50q50 0 72.5 67.5t31.5 245.5l9 172q-14 5 -25 7t-22 2q-46 0 -81 -34t-54 -97.5t-19 -151.5z" glyph-name="at" horiz-adv-x="1571" unicode="@"/>
<glyph d="M803 0l-55 285h-316l-55 -285h-377l356 1462h459l361 -1462h-373zM694 584l-59 327q-10 55 -18.5 107t-15 99.5t-11.5 88.5q-4 -39 -10.5 -86t-15.5 -98.5t-19 -106.5l-62 -331h211z" glyph-name="A" horiz-adv-x="1176" unicode="A"/>
<glyph d="M121 1462h424q247 0 367 -88t120 -276q0 -81 -24 -147.5t-66.5 -111.5t-99.5 -63v-10q76 -23 123 -68.5t69.5 -113t22.5 -156.5q0 -132 -57 -228t-162.5 -148t-251.5 -52h-465v1462zM469 893h76q65 0 100 38t35 113q0 68 -35 102t-106 34h-70v-287zM469 621v-332h90 q71 0 106 41.5t35 126.5q0 52 -16.5 88.5t-49 56t-79.5 19.5h-86z" glyph-name="B" horiz-adv-x="1143" unicode="B"/>
<glyph d="M655 1184q-51 0 -91 -31.5t-67 -91t-41 -144.5t-14 -192q0 -148 25.5 -247t76.5 -148t128 -49q71 0 136.5 27t131.5 65v-312q-70 -41 -151.5 -61t-172.5 -20q-174 0 -293.5 86t-181 253t-61.5 408q0 169 37.5 308t108.5 239t171.5 154.5t227.5 54.5q97 0 186.5 -25 t177.5 -78l-92 -286q-58 41 -117 65.5t-125 24.5z" glyph-name="C" horiz-adv-x="1038" unicode="C"/>
<glyph d="M1122 762q0 -243 -73.5 -413t-212.5 -259.5t-338 -89.5h-377v1462h401q192 0 326 -81t204 -237t70 -382zM762 748q0 148 -27.5 239t-82 132.5t-136.5 41.5h-47v-858h27q138 0 202 108t64 337z" glyph-name="D" horiz-adv-x="1202" unicode="D"/>
<glyph d="M825 0h-704v1462h704v-295h-356v-264h330v-295h-330v-309h356v-299z" glyph-name="E" horiz-adv-x="907" unicode="E"/>
<glyph d="M469 0h-348v1462h700v-295h-352v-313h326v-295h-326v-559z" glyph-name="F" horiz-adv-x="893" unicode="F"/>
<glyph d="M604 856h510v-788q-113 -45 -230.5 -66.5t-240.5 -21.5q-180 0 -305.5 88t-191.5 257t-66 410q0 235 75 402t216 256.5t340 89.5q113 0 210.5 -26t170.5 -66l-97 -285q-60 38 -128.5 58t-143.5 20q-93 0 -155.5 -53.5t-94 -155.5t-31.5 -250q0 -144 25 -243t74.5 -150 t122.5 -51q27 0 54.5 4.5t53.5 11.5v268h-168v291z" glyph-name="G" horiz-adv-x="1214" unicode="G"/>
<glyph d="M1126 0h-348v610h-309v-610h-348v1462h348v-553h309v553h348v-1462z" glyph-name="H" horiz-adv-x="1247" unicode="H"/>
<glyph d="M121 0v1462h348v-1462h-348z" glyph-name="I" horiz-adv-x="590" unicode="I"/>
<glyph d="M45 -459q-44 0 -87 5t-83 16v295q25 -10 53 -15.5t60 -5.5q53 0 83.5 23.5t43 80t12.5 156.5v1366h346v-1349q0 -221 -50.5 -346t-146 -175.5t-231.5 -50.5z" glyph-name="J" horiz-adv-x="594" unicode="J"/>
<glyph d="M1149 0h-385l-213 545l-82 -56v-489h-348v1462h348v-635q9 44 29.5 90t46.5 97l235 448h375l-352 -655z" glyph-name="K" horiz-adv-x="1130" unicode="K"/>
<glyph d="M121 0v1462h348v-1163h381v-299h-729z" glyph-name="L" horiz-adv-x="877" unicode="L"/>
<glyph d="M690 0l-252 983h-8q5 -66 8.5 -127.5t5.5 -116.5t2 -104v-635h-325v1462h477l227 -878h6l228 878h473v-1462h-334v641q0 55 2 109.5t5 112.5t7 120h-8l-256 -983h-258z" glyph-name="M" horiz-adv-x="1653" unicode="M"/>
<glyph d="M1223 0h-406l-381 909h-8q6 -80 9.5 -148.5t5 -124t1.5 -97.5v-539h-323v1462h403l379 -884h8q-4 74 -7 138t-5 118t-2 98v530h326v-1462z" glyph-name="N" horiz-adv-x="1343" unicode="N"/>
<glyph d="M1192 733q0 -184 -35.5 -324.5t-106 -236t-174 -144t-239.5 -48.5q-135 0 -239 49t-175 144.5t-107 236.5t-36 325q0 244 63.5 411t188 253t305.5 86q182 0 305.5 -85t186.5 -252.5t63 -414.5zM442 733q0 -149 22 -249t65.5 -149.5t107.5 -49.5q66 0 108.5 48t63 147.5 t20.5 252.5q0 232 -47.5 342.5t-144.5 110.5q-64 0 -107.5 -50.5t-65.5 -151t-22 -251.5z" glyph-name="O" horiz-adv-x="1272" unicode="O"/>
<glyph d="M555 1462q226 0 339.5 -121t113.5 -344q0 -109 -28 -202.5t-86 -163t-147 -108t-210 -38.5h-68v-485h-348v1462h434zM522 1167h-53v-387h31q48 0 84 21.5t55.5 69t19.5 124.5q0 86 -34 129t-103 43z" glyph-name="P" horiz-adv-x="1065" unicode="P"/>
<glyph d="M1192 733q0 -166 -29 -296.5t-86 -224.5t-141 -151l250 -409h-391l-177 330h-7h-7q-127 0 -225 53t-164.5 152.5t-100.5 238t-34 309.5q0 244 63.5 411t188 253t305.5 86q182 0 305.5 -85t186.5 -252.5t63 -414.5zM442 733q0 -149 22 -249t65.5 -149.5t107.5 -49.5 q66 0 108.5 48t63 147.5t20.5 252.5q0 232 -47.5 342.5t-144.5 110.5q-64 0 -107.5 -50.5t-65.5 -151t-22 -251.5z" glyph-name="Q" horiz-adv-x="1272" unicode="Q"/>
<glyph d="M512 1462q170 0 283 -48t169 -143.5t56 -240.5q0 -85 -22 -157t-66 -131t-111 -105l305 -637h-383l-229 549h-45v-549h-348v1462h391zM508 1171h-39v-352h37q78 0 117 48t39 145q0 80 -38.5 119.5t-115.5 39.5z" glyph-name="R" horiz-adv-x="1116" unicode="R"/>
<glyph d="M879 444q0 -136 -56.5 -240.5t-159.5 -164t-243 -59.5q-63 0 -122.5 8.5t-118.5 28.5t-122 55v352q86 -58 176.5 -90.5t165.5 -32.5q43 0 70.5 14t41 38.5t13.5 56.5t-11 59.5t-49 61t-118 83.5q-64 41 -116 82.5t-88.5 91t-56 114.5t-19.5 153q0 130 51 226t150 149 t243 53q91 0 183 -26t186 -79l-93 -305q-76 48 -141 71t-121 23q-37 0 -60.5 -12.5t-34.5 -33.5t-11 -48q0 -39 13 -67t53.5 -59.5t123.5 -82.5q88 -54 148.5 -114t91.5 -134t31 -172z" glyph-name="S" horiz-adv-x="930" unicode="S"/>
<glyph d="M645 0h-346v1161h-264v301h872v-301h-262v-1161z" glyph-name="T" horiz-adv-x="942" unicode="T"/>
<glyph d="M1092 1462v-966q0 -169 -57 -284t-167 -173.5t-270 -58.5q-233 0 -358 126t-125 381v975h348v-958q0 -120 35 -169.5t104 -49.5q49 0 80 21t46 69.5t15 130.5v956h349z" glyph-name="U" horiz-adv-x="1204" unicode="U"/>
<glyph d="M1147 1462l-373 -1462h-405l-369 1462h365l147 -721q10 -48 22.5 -118t22.5 -139t14 -113q6 44 16.5 112.5t23 138t22.5 117.5l149 723h365z" glyph-name="V" horiz-adv-x="1147" unicode="V"/>
<glyph d="M1659 1462l-277 -1462h-399l-100 547q-9 47 -17 96t-14.5 99.5t-12.5 101.5t-10 102q-3 -41 -8 -91t-12 -103.5t-14.5 -105.5t-16.5 -97l-102 -549h-395l-281 1462h340l104 -637q6 -37 13.5 -87t14.5 -106.5t13.5 -114t12.5 -109.5q6 55 14 113.5t17 114t17 103.5t15 82 l129 641h281l116 -641q9 -40 17.5 -90.5t17 -106.5t15.5 -111.5t12 -104.5q4 56 12.5 126t19.5 145t23 144l107 639h348z" glyph-name="W" horiz-adv-x="1659" unicode="W"/>
<glyph d="M1069 0h-375l-164 422l-168 -422h-366l334 731l-314 731h361l143 -405l133 405h369l-303 -719z" glyph-name="X" horiz-adv-x="1065" unicode="X"/>
<glyph d="M541 930l178 532h358l-364 -901v-561h-348v549l-365 913h362z" glyph-name="Y" horiz-adv-x="1077" unicode="Y"/>
<glyph d="M922 0h-879v244l489 923h-479v295h856v-243l-487 -920h500v-299z" glyph-name="Z" horiz-adv-x="965" unicode="Z"/>
<glyph d="M586 -344h-502v1847h502v-254h-195v-1339h195v-254z" glyph-name="bracketleft" horiz-adv-x="621" unicode="["/>
<glyph d="M295 1483l569 -1503h-289l-571 1503h291z" glyph-name="backslash" horiz-adv-x="870" unicode="\"/>
<glyph d="M37 -90h192v1339h-192v254h500v-1847h-500v254z" glyph-name="bracketright" horiz-adv-x="621" unicode="]"/>
<glyph d="M12 496l457 966h170l457 -966h-299l-242 518l-244 -518h-299z" glyph-name="asciicircum" horiz-adv-x="1108" unicode="^"/>
<glyph d="M1028 -379h-1032v246h1032v-246z" glyph-name="underscore" horiz-adv-x="1024" unicode="_"/>
<glyph d="M455 1569q17 -40 48 -99.5t62 -115t49 -84.5v-29h-243q-25 23 -65 64.5t-84.5 88t-82 88.5t-57.5 66v21h373z" glyph-name="grave" horiz-adv-x="696" unicode="`"/>
<glyph d="M545 1153q169 0 267.5 -101t98.5 -309v-743h-239l-56 150h-6q-36 -57 -76.5 -95t-92 -56.5t-122.5 -18.5q-97 0 -156 53t-85.5 137t-26.5 176q0 182 97.5 272t283.5 97l148 6v29q0 69 -26.5 104t-82.5 35q-49 0 -108.5 -20.5t-135.5 -63.5l-86 246q83 49 185 75.5 t219 26.5zM580 506l-62 -4q-67 -3 -101 -38.5t-34 -103.5q0 -58 20 -87t60 -29q49 0 83 44.5t34 117.5v100z" glyph-name="a" horiz-adv-x="1012" unicode="a"/>
<glyph d="M434 1556v-352q0 -32 -2.5 -86t-7.5 -131h10q47 88 108.5 127t137.5 39q151 0 239.5 -156t88.5 -428q0 -181 -39.5 -313t-114.5 -204t-182 -72q-76 0 -127 26t-111 105h-16l-49 -111h-267v1556h332zM559 868q-44 0 -71.5 -27.5t-40.5 -85t-13 -147.5v-65 q0 -152 30 -219.5t97 -67.5q54 0 82.5 78t28.5 239q0 148 -28 221.5t-85 73.5z" glyph-name="b" horiz-adv-x="1073" unicode="b"/>
<glyph d="M520 -20q-152 0 -253 61.5t-151 190.5t-50 329q0 165 47.5 299t149.5 213.5t263 79.5q94 0 170.5 -21.5t143.5 -64.5l-88 -264q-51 34 -101 50.5t-102 16.5q-45 0 -78 -36t-51.5 -104.5t-18.5 -168.5q0 -99 18 -165.5t52.5 -100t85.5 -33.5q65 0 129 25.5t125 74.5v-282 q-61 -51 -133.5 -75.5t-157.5 -24.5z" glyph-name="c" horiz-adv-x="887" unicode="c"/>
<glyph d="M403 -20q-161 0 -249 159t-88 430q0 272 87.5 428t239.5 156q53 0 97 -17t81.5 -53.5t67.5 -95.5h10q-4 77 -7 131t-3 86v352h332v-1556h-266l-48 111h-18q-36 -48 -69.5 -76.5t-72.5 -41.5t-94 -13zM512 256q68 0 97.5 67.5t29.5 219.5v65q0 135 -29.5 197.5t-95.5 62.5 q-55 0 -84 -73.5t-29 -221.5q0 -161 29.5 -239t81.5 -78z" glyph-name="d" horiz-adv-x="1073" unicode="d"/>
<glyph d="M504 1151q135 0 231 -60t146.5 -175t50.5 -281v-174h-541q0 -114 47.5 -165.5t145.5 -51.5q78 0 145 20t145 68v-271q-73 -43 -157 -62t-182 -19q-164 0 -267.5 66.5t-152.5 196.5t-49 318q0 190 49.5 321.5t147 200t241.5 68.5zM512 895q-52 0 -86.5 -45t-34.5 -156h234 q0 72 -14 116.5t-39.5 64.5t-59.5 20z" glyph-name="e" horiz-adv-x="987" unicode="e"/>
<glyph d="M655 860h-184v-860h-332v860h-125v176l125 92v19q0 151 34.5 243t105 134.5t178.5 42.5q68 0 122 -12.5t130 -41.5l-66 -243q-28 9 -54 14.5t-52 5.5q-34 0 -50 -27.5t-16 -88.5v-41h184v-273z" glyph-name="f" horiz-adv-x="670" unicode="f"/>
<glyph d="M430 -492q-202 0 -311 83t-109 236q0 89 59 158.5t156 97.5q-51 19 -84.5 62.5t-33.5 101.5q0 68 30 107.5t80 84.5q-63 44 -102 132t-39 190q0 125 47 211t139 131t226 45q40 0 70 -4t52 -10t37 -11h354v-194l-125 -35q14 -34 19.5 -65t5.5 -75q0 -186 -106.5 -286.5 t-302.5 -100.5q-58 0 -85 10q-10 -10 -21.5 -25t-11.5 -39q0 -21 12 -34t38 -19t66 -6h202q140 0 215 -77.5t75 -235.5q0 -210 -139.5 -321.5t-412.5 -111.5zM453 -250q77 0 125.5 16t71.5 46t23 72q0 32 -9 48t-37 22t-84 6h-154q-23 0 -39.5 -13t-25 -37t-8.5 -58 q0 -50 36.5 -76t100.5 -26zM490 592q40 0 60 41.5t20 123.5q0 88 -19.5 128.5t-60.5 40.5q-42 0 -62 -40.5t-20 -126.5q0 -84 19 -125.5t63 -41.5z" glyph-name="g" horiz-adv-x="1020" unicode="g"/>
<glyph d="M434 1556v-284q0 -70 -6 -140.5t-20 -138.5h18q23 54 57 89.5t81.5 53t107.5 17.5q98 0 167.5 -49t106.5 -142t37 -225v-737h-332v631q0 113 -21.5 170t-66.5 57q-54 0 -81.5 -36t-37.5 -111.5t-10 -192.5v-518h-332v1556h332z" glyph-name="h" unicode="h"/>
<glyph d="M436 1133v-1133h-332v1133h332zM270 1589q92 0 134 -44t42 -130t-44 -129t-132 -43q-87 0 -131.5 43t-44.5 129q0 88 42 131t134 43z" glyph-name="i" horiz-adv-x="543" unicode="i"/>
<glyph d="M94 -492q-41 0 -86 6t-86 19v281q25 -10 48 -14.5t44 -4.5q47 0 68.5 35t21.5 104v1199h332v-1225q0 -137 -41 -225t-117.5 -130.5t-183.5 -44.5zM94 1415q0 88 42 131t134 43t134 -44t42 -130t-44 -129t-132 -43q-87 0 -131.5 43t-44.5 129z" glyph-name="j" horiz-adv-x="543" unicode="j"/>
<glyph d="M434 1556v-618q0 -78 -3 -154.5t-11 -150.5h6q22 47 44.5 90.5t41.5 75.5l197 334h356l-305 -482l317 -651h-364l-183 412l-96 -82v-330h-332v1556h332z" glyph-name="k" horiz-adv-x="1067" unicode="k"/>
<glyph d="M434 0h-332v1556h332v-1556z" glyph-name="l" horiz-adv-x="539" unicode="l"/>
<glyph d="M1212 1153q152 0 228 -102.5t76 -313.5v-737h-332v629q0 113 -22 171t-68 58q-70 0 -94.5 -76.5t-24.5 -240.5v-541h-332v629q0 76 -9.5 126.5t-28.5 76.5t-50 26q-46 0 -72.5 -36t-37.5 -113t-11 -201v-508h-332v1133h260l37 -140h19q22 53 61 88.5t93.5 53.5t119.5 18 q100 0 159 -42t85 -107h22q39 71 101.5 110t152.5 39z" glyph-name="m" horiz-adv-x="1616" unicode="m"/>
<glyph d="M672 1153q147 0 229 -109t82 -307v-737h-332v631q0 112 -18 169.5t-80 57.5q-70 0 -94.5 -74t-24.5 -266v-518h-332v1133h260l37 -140h19q26 54 62 89.5t84 53t108 17.5z" glyph-name="n" unicode="n"/>
<glyph d="M989 569q0 -109 -23.5 -213.5t-77.5 -189.5t-142.5 -135.5t-219.5 -50.5q-120 0 -207 49.5t-143 133t-83 189t-27 217.5q0 163 47 295.5t149.5 210.5t267.5 78q138 0 241 -68.5t160.5 -198.5t57.5 -317zM401 565q0 -101 13.5 -170t41.5 -104t72 -35q47 0 74 34.5 t39 104.5t12 174t-12 172t-39 102t-74 34q-66 0 -96.5 -76t-30.5 -236z" glyph-name="o" horiz-adv-x="1057" unicode="o"/>
<glyph d="M672 1153q158 0 247 -157.5t89 -432.5q0 -181 -40 -311.5t-113.5 -201t-174.5 -70.5q-51 0 -95.5 17t-82 53.5t-68.5 94.5h-10q5 -76 7.5 -130.5t2.5 -86.5v-420h-332v1625h267l49 -146h16q38 70 73.5 105.5t75 48t89.5 12.5zM561 877q-45 0 -73 -29t-41 -92t-13 -166 v-66q0 -90 13 -147.5t40.5 -85t71.5 -27.5q38 0 63 32.5t37.5 98.5t12.5 164q0 161 -28.5 239.5t-82.5 78.5z" glyph-name="p" horiz-adv-x="1073" unicode="p"/>
<glyph d="M639 -492v420q0 32 3 86.5t7 130.5h-10q-46 -87 -106.5 -126t-139.5 -39q-152 0 -239.5 156t-87.5 421q0 186 40 319.5t115.5 205t181.5 71.5q80 0 134 -35t102 -127h18l27 142h287v-1625h-332zM514 264q44 0 71.5 27.5t40.5 85t13 147.5v60q0 152 -29.5 218t-97.5 66 q-52 0 -81.5 -77t-29.5 -238q0 -145 29 -217t84 -72z" glyph-name="q" horiz-adv-x="1073" unicode="q"/>
<glyph d="M659 1153q20 0 41 -2t52 -10l-27 -357q-20 7 -45 10t-57 3q-49 0 -84.5 -15t-58 -43.5t-33.5 -71t-11 -98.5v-569h-332v1133h254l48 -181h16q20 46 54 92.5t80.5 77.5t102.5 31z" glyph-name="r" horiz-adv-x="768" unicode="r"/>
<glyph d="M762 348q0 -122 -46 -204t-132.5 -123t-208.5 -41q-83 0 -163 14t-159 49v313q62 -37 136.5 -64.5t150.5 -27.5q46 0 69 15.5t23 50.5q0 19 -9.5 36.5t-45.5 42.5t-115 64q-69 35 -116 85.5t-71 115.5t-24 145q0 158 96 246t273 88q88 0 166 -24.5t159 -71.5l-81 -252 q-51 34 -108 59t-116 25q-35 0 -52 -13t-17 -40q0 -18 9.5 -33t43.5 -37.5t106 -65.5q69 -38 121 -87t81.5 -113.5t29.5 -151.5z" glyph-name="s" horiz-adv-x="811" unicode="s"/>
<glyph d="M543 266q31 0 67.5 10.5t77.5 28.5v-262q-55 -31 -115.5 -47t-130.5 -16q-111 0 -180 42.5t-101 130t-32 220.5v487h-115v176l144 86l78 238h225v-227h213v-273h-213v-483q0 -55 20 -83t62 -28z" glyph-name="t" horiz-adv-x="725" unicode="t"/>
<glyph d="M981 1133v-1133h-258l-39 139h-16q-27 -53 -63 -88.5t-83 -53t-108 -17.5q-99 0 -169.5 49t-107.5 141.5t-37 224.5v738h332v-629q0 -114 19.5 -172t68.5 -58q60 0 87 37t34.5 104t7.5 158v560h332z" glyph-name="u" unicode="u"/>
<glyph d="M326 0l-322 1133h344l115 -551q12 -58 21 -114.5t12 -119.5h8q2 53 10.5 111t22.5 121l120 553h344l-319 -1133h-356z" glyph-name="v" horiz-adv-x="1006" unicode="v"/>
<glyph d="M879 0l-82 500q-6 38 -12 79.5t-11 83.5t-9.5 83t-8.5 77h-8q-6 -41 -11 -84.5t-10 -86.5t-10 -81t-10 -69l-86 -502h-375l-236 1133h332l57 -355q11 -56 19 -122.5t13.5 -135.5t8.5 -135h9q3 40 7 82.5t9.5 88.5t13.5 95.5t19 104.5l65 377h383l64 -383 q11 -74 20.5 -141.5t16.5 -124.5t10 -99h8q4 64 10 131t15 134t20 128l61 355h326l-237 -1133h-381z" glyph-name="w" horiz-adv-x="1507" unicode="w"/>
<glyph d="M272 578l-256 555h361l110 -297l105 297h360l-252 -555l263 -578h-361l-123 319l-117 -319h-352z" glyph-name="x" horiz-adv-x="973" unicode="x"/>
<glyph d="M4 1133h348l119 -492q8 -35 15 -70t12 -65.5t6 -54.5h8q3 34 11 78.5t24 107.5l110 496h344l-342 -1205q-44 -154 -100.5 -246.5t-132 -133t-178.5 -40.5q-40 0 -76 5t-68 12v291q20 -7 41.5 -10t40.5 -3q41 0 65.5 13.5t44 55t44.5 124.5l6 20z" glyph-name="y" horiz-adv-x="1006" unicode="y"/>
<glyph d="M778 0h-745v201l358 655h-338v277h709v-220l-342 -637h358v-276z" glyph-name="z" horiz-adv-x="813" unicode="z"/>
<glyph d="M711 -344q-178 0 -283 27t-150 101.5t-45 215.5v266q0 54 -22.5 92t-68 58t-115.5 20v264q72 0 117.5 20.5t67 58.5t21.5 91v273q0 126 38.5 200.5t142 107t297.5 32.5v-264q-51 -2 -88 -9t-56.5 -28.5t-19.5 -69.5v-285q0 -113 -43.5 -174t-141.5 -78v-12 q99 -19 142 -78.5t43 -167.5v-288q0 -39 14 -62t50 -34t100 -13v-264z" glyph-name="braceleft" horiz-adv-x="752" unicode="{"/>
<glyph d="M285 1579h288v-2048h-288v2048z" glyph-name="bar" horiz-adv-x="858" unicode="|"/>
<glyph d="M41 -344v264q63 3 98.5 12.5t50.5 32t15 64.5v288q0 108 42 167.5t140 78.5v12q-97 17 -139.5 78t-42.5 174v285q0 49 -22.5 70.5t-60 28t-81.5 8.5v264q180 0 284 -28.5t147.5 -102t43.5 -209.5v-273q0 -53 22.5 -91t69 -58.5t117.5 -20.5v-264q-69 0 -115.5 -20 t-70 -58t-23.5 -92v-266q0 -128 -37.5 -203.5t-140 -108t-297.5 -32.5z" glyph-name="braceright" horiz-adv-x="752" unicode="}"/>
<glyph d="M477 592q-58 28 -110.5 41.5t-100.5 13.5q-49 0 -101 -30.5t-108 -90.5v281q48 54 107 81t131 27q66 0 128.5 -17.5t123.5 -45.5q59 -28 111.5 -41.5t101.5 -13.5q44 0 100 32t107 89v-281q-48 -55 -107.5 -82t-130.5 -27q-63 0 -124.5 17.5t-127.5 46.5z" glyph-name="asciitilde" horiz-adv-x="1024" unicode="~"/>
<glyph glyph-name="uni00A0" horiz-adv-x="360" unicode=" "/>
<glyph d="M135 612h287l47 -981h-383zM469 963q0 -92 -49 -142.5t-141 -50.5q-89 0 -137 50.5t-48 142.5q0 89 48.5 139.5t136.5 50.5q87 0 138.5 -50t51.5 -140z" glyph-name="exclamdown" horiz-adv-x="555" unicode="¡"/>
<glyph d="M639 1483v-156q59 -6 124.5 -27t119.5 -55l-86 -264q-48 34 -101 51t-96 17q-49 0 -83.5 -29t-52.5 -97t-18 -184q0 -110 15 -176t48 -94.5t85 -28.5q62 0 132 26.5t128 74.5v-283q-43 -34 -101 -58.5t-114 -33.5v-186h-176v186q-123 12 -201 85.5t-114.5 198 t-36.5 289.5q0 161 38.5 287t116.5 203.5t197 91.5v162h176z" glyph-name="cent" horiz-adv-x="1014" unicode="¢"/>
<glyph d="M606 1483q82 0 159 -20.5t153 -61.5l-84 -275q-57 28 -106 42t-89 14q-43 0 -63.5 -33.5t-20.5 -104.5v-165h262v-250h-262v-103q0 -50 -15 -92t-45 -75.5t-75 -59.5h524v-299h-854v287q46 31 74 60t40.5 70.5t12.5 106.5v105h-127v250h127v163q0 144 46.5 242 t133.5 148.5t209 50.5z" glyph-name="sterling" horiz-adv-x="1014" unicode="£"/>
<glyph d="M154 723q0 51 13.5 100.5t41.5 98.5l-131 129l149 149l127 -129q47 28 97 40.5t104 12.5t103.5 -13.5t95.5 -41.5l129 131l151 -145l-131 -131q26 -46 39.5 -95.5t13.5 -105.5q0 -57 -13.5 -107.5t-39.5 -95.5l127 -125l-147 -147l-129 127q-46 -25 -97 -38t-102 -13 q-58 0 -108.5 13t-94.5 38l-125 -125l-147 147l129 127q-28 45 -41.5 94.5t-13.5 104.5zM365 723q0 -52 26 -95.5t69 -69.5t95 -26q54 0 98 26t70.5 69.5t26.5 95.5t-26.5 95.5t-70.5 70t-98 26.5q-52 0 -95 -26t-69 -69.5t-26 -96.5z" glyph-name="currency" horiz-adv-x="1112" unicode="¤"/>
<glyph d="M508 961l145 501h361l-287 -710h201v-211h-252v-119h252v-211h-252v-211h-336v211h-254v211h254v119h-254v211h197l-283 710h358z" glyph-name="yen" horiz-adv-x="1014" unicode="¥"/>
<glyph d="M285 1552h288v-811h-288v811zM285 340h288v-811h-288v811z" glyph-name="brokenbar" horiz-adv-x="858" unicode="¦"/>
<glyph d="M78 782q0 73 38.5 134.5t108.5 107.5q-63 50 -95 110.5t-32 133.5q0 135 101 213t262 78q86 0 168 -21.5t162 -64.5l-82 -228q-63 41 -124.5 64.5t-109.5 23.5q-47 0 -70.5 -17t-23.5 -54q0 -27 17.5 -47.5t51 -39.5t80.5 -42q100 -47 161.5 -95.5t90.5 -106t29 -134.5 q0 -88 -31.5 -149.5t-99.5 -117.5q56 -46 83.5 -106.5t27.5 -134.5q0 -149 -104 -237.5t-286 -88.5q-90 0 -168.5 22.5t-144.5 65.5v250q43 -28 99.5 -53.5t111 -41.5t92.5 -16q59 0 89 21.5t30 64.5q0 28 -10 47t-40.5 39.5t-94.5 53.5q-105 54 -168 105t-91 112.5 t-28 148.5zM338 821q0 -29 11.5 -54.5t39 -50t74.5 -52.5l53 -31q19 22 28 47.5t9 56.5q0 39 -16.5 71.5t-52.5 61t-95 56.5q-26 -17 -38.5 -43.5t-12.5 -61.5z" glyph-name="section" horiz-adv-x="893" unicode="§"/>
<glyph d="M125 1413q0 75 39.5 116.5t105.5 41.5q69 0 109.5 -43t40.5 -115q0 -70 -40.5 -113t-109.5 -43q-66 0 -105.5 41.5t-39.5 114.5zM520 1413q0 75 40.5 116.5t107.5 41.5q71 0 110 -43t39 -115q0 -70 -39 -113t-110 -43q-70 0 -109 42t-39 114z" glyph-name="dieresis" horiz-adv-x="942" unicode="¨"/>
<glyph d="M846 -20q-174 0 -313.5 59t-238 162.5t-150.5 240.5t-52 293q0 165 56 302t157.5 237t238.5 154.5t298 54.5q164 0 301.5 -56t238.5 -157.5t157 -240t56 -304.5q0 -163 -54 -299t-153.5 -236t-237 -155t-304.5 -55zM850 262q-211 0 -327.5 123.5t-116.5 347.5 q0 147 50.5 251t147.5 159t236 55q83 0 163 -20t158 -58l-92 -184q-54 28 -106 41.5t-99 13.5q-97 0 -149.5 -64.5t-52.5 -205.5q0 -130 50 -191t160 -61q60 0 125 17t125 51v-211q-63 -32 -130.5 -48t-141.5 -16zM848 131q130 0 235.5 46t181.5 127.5t117 191.5t41 237 q0 134 -44 244t-123.5 189t-185.5 122t-230 43q-130 0 -236 -46t-182 -128t-117 -192t-41 -238q0 -135 44.5 -244.5t124 -188.5t185.5 -121t230 -42z" glyph-name="copyright" horiz-adv-x="1688" unicode="©"/>
<glyph d="M381 1479q120 0 189 -75.5t69 -213.5v-449h-162l-39 117q-26 -58 -75 -93.5t-127 -35.5q-65 0 -108.5 34.5t-65 89t-21.5 114.5q0 91 40 140.5t108 70t153 24.5l68 4v6q0 42 -18 62t-62 20q-51 0 -95 -18t-92 -43l-65 166q71 38 143 59t160 21zM410 1069l-56 -6 q-41 -4 -62.5 -25t-21.5 -59q0 -32 16.5 -50t45.5 -18q35 0 56.5 39t21.5 97v22z" glyph-name="ordfeminine" horiz-adv-x="715" unicode="ª"/>
<glyph d="M45 588l317 475l240 -127l-207 -363l207 -360l-240 -127l-317 473v29zM535 588l317 475l240 -127l-205 -363l205 -360l-240 -127l-317 473v29z" glyph-name="guillemotleft" horiz-adv-x="1147" unicode="«"/>
<glyph d="M944 856v-618h-274v350h-600v268h874z" glyph-name="logicalnot" horiz-adv-x="1024" unicode="¬"/>
<glyph d="M59 393v312h547v-312h-547z" glyph-name="uni00AD" horiz-adv-x="666" unicode="­"/>
<glyph d="M510 313v875h303q185 0 276 -67.5t91 -202.5q0 -86 -33 -145.5t-109 -96.5l174 -363h-270l-127 320h-53v-320h-252zM762 809h35q58 0 91.5 21.5t33.5 76.5q0 48 -27 67t-96 19h-37v-184zM846 -20q-174 0 -313.5 59t-238 162.5t-150.5 240.5t-52 293q0 165 56 302 t157.5 237t238.5 154.5t298 54.5q164 0 301.5 -56t238.5 -157.5t157 -240t56 -304.5q0 -163 -54 -299t-153.5 -236t-237 -155t-304.5 -55zM848 131q130 0 235.5 46t181.5 127.5t117 191.5t41 237q0 134 -44 244t-123.5 189t-185.5 122t-230 43q-130 0 -236 -46t-182 -128 t-117 -192t-41 -238q0 -135 44.5 -244.5t124 -188.5t185.5 -121t230 -42z" glyph-name="registered" horiz-adv-x="1688" unicode="®"/>
<glyph d="M1018 1556h-1022v246h1022v-246z" glyph-name="overscore" horiz-adv-x="1014" unicode="¯"/>
<glyph d="M367 852q-92 0 -166 40t-117 111t-43 164q0 94 43 165t117 111t166 40q93 0 167 -40t117 -111t43 -165q0 -93 -43 -164t-117 -111t-167 -40zM367 1044q58 0 90 32.5t32 90.5q0 57 -32 90t-90 33t-89.5 -33t-31.5 -90q0 -58 31.5 -90.5t89.5 -32.5z" glyph-name="degree" horiz-adv-x="735" unicode="°"/>
<glyph d="M70 0v268h884v-268h-884zM649 979h305v-268h-305v-361h-274v361h-305v268h305v367h274v-367z" glyph-name="plusminus" horiz-adv-x="1024" unicode="±"/>
<glyph d="M639 852h-576v207l187 213q46 57 72.5 94t37.5 64.5t11 54.5q0 28 -17.5 45.5t-52.5 17.5q-37 0 -71.5 -21.5t-69.5 -66.5l-109 156q35 53 113.5 94t173.5 41q132 0 203 -68.5t71 -169.5q0 -74 -25 -135t-86.5 -133.5t-172.5 -183.5v-4h311v-205z" glyph-name="uni00B2" horiz-adv-x="713" unicode="²"/>
<glyph d="M336 1747q122 0 200 -57t78 -158q0 -79 -33.5 -133t-99.5 -86v-8q74 -25 115 -77t41 -138q0 -120 -91 -187t-231 -67q-75 0 -136.5 17t-110.5 52v223q47 -40 108.5 -60.5t134.5 -20.5q48 0 71.5 16.5t23.5 50.5q0 47 -27.5 67.5t-87.5 20.5h-90v182h69q62 0 91.5 21.5 t29.5 62.5q0 36 -17 57t-61 21q-43 0 -79 -16.5t-80 -56.5l-99 153q63 60 133.5 90.5t147.5 30.5z" glyph-name="uni00B3" horiz-adv-x="713" unicode="³"/>
<glyph d="M614 1569v-21q-21 -26 -54.5 -63.5t-73 -80t-81 -85t-79.5 -78.5h-244v29q33 54 61 105.5t53 100t46 93.5h372z" glyph-name="acute" horiz-adv-x="696" unicode="´"/>
<glyph d="M981 1133v-1133h-258l-39 141h-12q-15 -51 -37.5 -87t-49.5 -55t-57 -19q-38 0 -59.5 20t-40.5 63h-4q2 -29 4 -67t3 -80.5t1 -87.5v-320h-332v1625h332v-629q0 -114 19.5 -172t68.5 -58q60 0 87 47t34.5 124.5t7.5 168.5v519h332z" glyph-name="uni00B5" unicode="µ"/>
<glyph d="M944 -260h-172v1657h-119v-1657h-172v819q-19 -9 -43.5 -13.5t-52.5 -4.5q-109 0 -180 55.5t-105 167t-34 278.5q0 170 36 284.5t112 172t196 57.5h534v-1816z" glyph-name="paragraph" horiz-adv-x="1044" unicode="¶"/>
<glyph d="M92 721q0 92 49.5 142t141.5 50q89 0 136.5 -50t47.5 -142q0 -91 -48.5 -141t-135.5 -50q-88 0 -139.5 50t-51.5 141z" glyph-name="periodcentered" horiz-adv-x="559" unicode="·"/>
<glyph d="M367 -258q0 -107 -67.5 -170.5t-195.5 -63.5q-50 0 -95 5t-83 14v184q34 -7 62 -11.5t51 -4.5q37 0 56.5 14t19.5 43q0 35 -36.5 55t-98.5 23l69 170h156l-29 -70q60 -8 102.5 -33t65.5 -64.5t23 -90.5z" glyph-name="cedilla" horiz-adv-x="293" unicode="¸"/>
<glyph d="M553 1729v-877h-242v356q0 37 0.5 74t2 75t5.5 79q-13 -16 -25 -26.5t-22 -18.5l-92 -76l-114 155l294 259h193z" glyph-name="uni00B9" horiz-adv-x="713" unicode="¹"/>
<glyph d="M655 1104q0 -174 -81 -274.5t-226 -100.5q-141 0 -223 104t-82 271q0 176 83 275.5t224 99.5q91 0 159.5 -45t107 -128.5t38.5 -201.5zM274 1104q0 -92 19 -137t57 -45t57 45t19 137t-19 138t-57 46t-57 -46t-19 -138z" glyph-name="ordmasculine" horiz-adv-x="700" unicode="º"/>
<glyph d="M1102 559l-318 -473l-239 127l207 360l-207 363l239 127l318 -475v-29zM612 559l-317 -473l-240 127l205 360l-205 363l240 127l317 -475v-29z" glyph-name="guillemotright" horiz-adv-x="1147" unicode="»"/>
<glyph d="M408 0l706 1462h260l-706 -1462h-260zM311 586v356q0 37 0.5 73.5t2 74.5t5.5 79q-13 -15 -25 -26t-22 -19l-92 -75l-114 155l294 258h193v-876h-242zM1374 0v139h-325v178l297 560h264v-547h108v-191h-108v-139h-236zM1237 330h137v170q0 35 1.5 69t4.5 66 q-16 -51 -30 -83.5t-23 -49.5z" glyph-name="onequarter" horiz-adv-x="1741" unicode="¼"/>
<glyph d="M373 0l706 1462h260l-706 -1462h-260zM311 586v356v55.5t1 55t2.5 56.5t4.5 60q-13 -15 -25 -26t-22 -19l-92 -75l-114 155l294 258h193v-876h-242zM1092 0v207l186 205q50 54 77 90.5t37.5 65t10.5 57.5q0 32 -19.5 51.5t-54.5 19.5q-37 0 -71.5 -21.5t-69.5 -66.5 l-109 156q35 53 113.5 94t173.5 41q132 0 203 -68.5t71 -168.5q0 -75 -20.5 -130t-53 -98t-69.5 -82l-141 -147h311v-205h-575z" glyph-name="onehalf" horiz-adv-x="1741" unicode="½"/>
<glyph d="M397 0l707 1462h260l-707 -1462h-260zM315 569q-75 0 -136.5 17.5t-110.5 52.5v223q47 -40 108.5 -61t134.5 -21q48 0 71.5 17t23.5 51q0 46 -27.5 67t-87.5 21h-90v182h69q62 0 91.5 21.5t29.5 62.5q0 35 -17 56.5t-61 21.5q-43 0 -79 -16.5t-80 -57.5l-99 154 q63 60 133.5 90.5t147.5 30.5q122 0 200 -57t78 -158q0 -79 -33.5 -133t-99.5 -86v-9q74 -24 115 -76.5t41 -138.5q0 -119 -91 -186.5t-231 -67.5zM1374 0v139h-325v178l297 560h264v-547h108v-191h-108v-139h-236zM1237 330h137v170q0 35 1.5 69t4.5 66q-16 -51 -30 -83.5 t-23 -49.5z" glyph-name="threequarters" horiz-adv-x="1741" unicode="¾"/>
<glyph d="M604 612v-86q0 -66 -14 -116.5t-44.5 -94t-80.5 -88.5q-41 -37 -66 -65t-36 -56.5t-11 -67.5q0 -47 28.5 -72.5t88.5 -25.5q53 0 115 27.5t133 79.5l106 -260q-97 -71 -193.5 -106.5t-193.5 -35.5q-199 0 -303.5 99t-104.5 266q0 88 22.5 152.5t65.5 118t103 106.5 q51 46 73 73t27.5 49t5.5 52v51h279zM653 962q0 -92 -49 -142t-141 -50q-89 0 -137 50t-48 142q0 91 48.5 141t136.5 50q87 0 138.5 -50t51.5 -141z" glyph-name="questiondown" horiz-adv-x="823" unicode="¿"/>
<glyph d="M803 0l-55 285h-316l-55 -285h-377l356 1462h459l361 -1462h-373zM694 584l-59 327q-10 55 -18.5 107t-15 99.5t-11.5 88.5q-4 -39 -10.5 -86t-15.5 -98.5t-19 -106.5l-62 -331h211zM625 1899q17 -40 48 -99.5t62 -115t49 -84.5v-29h-243q-25 23 -65 64.5t-84.5 88 t-82 88.5t-57.5 66v21h373z" glyph-name="Agrave" horiz-adv-x="1176" unicode="À"/>
<glyph d="M803 0l-55 285h-316l-55 -285h-377l356 1462h459l361 -1462h-373zM694 584l-59 327q-10 55 -18.5 107t-15 99.5t-11.5 88.5q-4 -39 -10.5 -86t-15.5 -98.5t-19 -106.5l-62 -331h211zM950 1899v-21q-21 -26 -54.5 -63.5t-73 -80t-81 -85t-79.5 -78.5h-244v29 q33 54 61 105.5t53 100t46 93.5h372z" glyph-name="Aacute" horiz-adv-x="1176" unicode="Á"/>
<glyph d="M803 0l-55 285h-316l-55 -285h-377l356 1462h459l361 -1462h-373zM694 584l-59 327q-10 55 -18.5 107t-15 99.5t-11.5 88.5q-4 -39 -10.5 -86t-15.5 -98.5t-19 -106.5l-62 -331h211zM742 1899q24 -45 53 -93.5t64.5 -100t76.5 -105.5v-29h-203q-31 25 -66.5 62t-76.5 88 q-43 -52 -78 -90t-61 -60h-207v29q28 35 67.5 91.5t76 114t53.5 93.5h301z" glyph-name="Acircumflex" horiz-adv-x="1176" unicode="Â"/>
<glyph d="M803 0l-55 285h-316l-55 -285h-377l356 1462h459l361 -1462h-373zM694 584l-59 327q-10 55 -18.5 107t-15 99.5t-11.5 88.5q-4 -39 -10.5 -86t-15.5 -98.5t-19 -106.5l-62 -331h211zM234 1567q0 48 5.5 106.5t24 112t55 88.5t97.5 35q43 0 82 -14.5t75 -33.5t71 -33.5 t69 -14.5q26 0 39 25.5t21 72.5h172q0 -167 -54 -254.5t-133 -87.5q-40 0 -81 14.5t-80 33.5t-72.5 33.5t-59.5 14.5q-16 0 -35 -21t-24 -77h-172z" glyph-name="Atilde" horiz-adv-x="1176" unicode="Ã"/>
<glyph d="M803 0l-55 285h-316l-55 -285h-377l356 1462h459l361 -1462h-373zM694 584l-59 327q-10 55 -18.5 107t-15 99.5t-11.5 88.5q-4 -39 -10.5 -86t-15.5 -98.5t-19 -106.5l-62 -331h211zM244 1743q0 75 39.5 116.5t105.5 41.5q69 0 109.5 -43t40.5 -115q0 -70 -40.5 -113 t-109.5 -43q-66 0 -105.5 41.5t-39.5 114.5zM639 1743q0 75 40.5 116.5t107.5 41.5q71 0 110 -43t39 -115q0 -70 -39 -113t-110 -43q-70 0 -109 42t-39 114z" glyph-name="Adieresis" horiz-adv-x="1176" unicode="Ä"/>
<glyph d="M803 0l-55 285h-316l-55 -285h-377l356 1462h459l361 -1462h-373zM694 584l-59 327q-10 55 -18.5 107t-15 99.5t-11.5 88.5q-4 -39 -10.5 -86t-15.5 -98.5t-19 -106.5l-62 -331h211zM590 1296q-115 0 -184.5 71.5t-69.5 180.5q0 110 69.5 182t184.5 72q112 0 183 -73 t71 -179t-70.5 -180t-183.5 -74zM590 1466q35 0 59.5 23.5t24.5 60.5t-24.5 60.5t-59.5 23.5t-59.5 -23.5t-24.5 -60.5t21.5 -60.5t62.5 -23.5z" glyph-name="Aring" horiz-adv-x="1176" unicode="Å"/>
<glyph d="M1436 0h-701v285h-284l-80 -285h-381l452 1462h994v-295h-359v-264h330v-295h-330v-309h359v-299zM530 584h205v583h-51z" glyph-name="AE" horiz-adv-x="1518" unicode="Æ"/>
<glyph d="M655 1184q-51 0 -91 -31.5t-67 -91t-41 -144.5t-14 -192q0 -148 25.5 -247t76.5 -148t128 -49q71 0 136.5 27t131.5 65v-312q-70 -41 -151.5 -61t-172.5 -20q-174 0 -293.5 86t-181 253t-61.5 408q0 169 37.5 308t108.5 239t171.5 154.5t227.5 54.5q97 0 186.5 -25 t177.5 -78l-92 -286q-58 41 -117 65.5t-125 24.5zM799 -258q0 -107 -67.5 -170.5t-195.5 -63.5q-50 0 -95 5t-83 14v184q34 -7 62 -11.5t51 -4.5q37 0 56.5 14t19.5 43q0 35 -36.5 55t-98.5 23l69 170h156l-29 -70q60 -8 102.5 -33t65.5 -64.5t23 -90.5z" glyph-name="Ccedilla" horiz-adv-x="1038" unicode="Ç"/>
<glyph d="M825 0h-704v1462h704v-295h-356v-264h330v-295h-330v-309h356v-299zM504 1899q17 -40 48 -99.5t62 -115t49 -84.5v-29h-243q-25 23 -65 64.5t-84.5 88t-82 88.5t-57.5 66v21h373z" glyph-name="Egrave" horiz-adv-x="907" unicode="È"/>
<glyph d="M825 0h-704v1462h704v-295h-356v-264h330v-295h-330v-309h356v-299zM829 1899v-21q-21 -26 -54.5 -63.5t-73 -80t-81 -85t-79.5 -78.5h-244v29q33 54 61 105.5t53 100t46 93.5h372z" glyph-name="Eacute" horiz-adv-x="907" unicode="É"/>
<glyph d="M825 0h-704v1462h704v-295h-356v-264h330v-295h-330v-309h356v-299zM621 1899q24 -45 53 -93.5t64.5 -100t76.5 -105.5v-29h-203q-31 25 -66.5 62t-76.5 88q-43 -52 -78 -90t-61 -60h-207v29q28 35 67.5 91.5t76 114t53.5 93.5h301z" glyph-name="Ecircumflex" horiz-adv-x="907" unicode="Ê"/>
<glyph d="M825 0h-704v1462h704v-295h-356v-264h330v-295h-330v-309h356v-299zM123 1743q0 75 39.5 116.5t105.5 41.5q69 0 109.5 -43t40.5 -115q0 -70 -40.5 -113t-109.5 -43q-66 0 -105.5 41.5t-39.5 114.5zM518 1743q0 75 40.5 116.5t107.5 41.5q71 0 110 -43t39 -115 q0 -70 -39 -113t-110 -43q-70 0 -109 42t-39 114z" glyph-name="Edieresis" horiz-adv-x="907" unicode="Ë"/>
<glyph d="M121 0v1462h348v-1462h-348zM320 1899q17 -40 48 -99.5t62 -115t49 -84.5v-29h-243q-25 23 -65 64.5t-84.5 88t-82 88.5t-57.5 66v21h373z" glyph-name="Igrave" horiz-adv-x="590" unicode="Ì"/>
<glyph d="M121 0v1462h348v-1462h-348zM622 1899v-21q-21 -26 -54.5 -63.5t-73 -80t-81 -85t-79.5 -78.5h-244v29q33 54 61 105.5t53 100t46 93.5h372z" glyph-name="Iacute" horiz-adv-x="590" unicode="Í"/>
<glyph d="M121 0v1462h348v-1462h-348zM447 1899q24 -45 53 -93.5t64.5 -100t76.5 -105.5v-29h-203q-31 25 -66.5 62t-76.5 88q-43 -52 -78 -90t-61 -60h-207v29q28 35 67.5 91.5t76 114t53.5 93.5h301z" glyph-name="Icircumflex" horiz-adv-x="590" unicode="Î"/>
<glyph d="M121 0v1462h348v-1462h-348zM-51 1743q0 75 39.5 116.5t105.5 41.5q69 0 109.5 -43t40.5 -115q0 -70 -40.5 -113t-109.5 -43q-66 0 -105.5 41.5t-39.5 114.5zM344 1743q0 75 40.5 116.5t107.5 41.5q71 0 110 -43t39 -115q0 -70 -39 -113t-110 -43q-70 0 -109 42t-39 114z " glyph-name="Idieresis" horiz-adv-x="590" unicode="Ï"/>
<glyph d="M522 1462q192 0 326 -81t204 -237t70 -382q0 -243 -73.5 -413t-212.5 -259.5t-338 -89.5h-377v631h-121v256h121v575h401zM516 1161h-47v-274h139v-256h-139v-328h27q138 0 202 108t64 337q0 148 -27.5 239t-82 132.5t-136.5 41.5z" glyph-name="Eth" horiz-adv-x="1202" unicode="Ð"/>
<glyph d="M1223 0h-406l-381 909h-8q6 -80 9.5 -148.5t5 -124t1.5 -97.5v-539h-323v1462h403l379 -884h8q-4 74 -7 138t-5 118t-2 98v530h326v-1462zM315 1567q0 48 5.5 106.5t24 112t55 88.5t97.5 35q43 0 82 -14.5t75 -33.5t71 -33.5t69 -14.5q26 0 39 25.5t21 72.5h172 q0 -167 -54 -254.5t-133 -87.5q-40 0 -81 14.5t-80 33.5t-72.5 33.5t-59.5 14.5q-16 0 -35 -21t-24 -77h-172z" glyph-name="Ntilde" horiz-adv-x="1343" unicode="Ñ"/>
<glyph d="M1192 733q0 -184 -35.5 -324.5t-106 -236t-174 -144t-239.5 -48.5q-135 0 -239 49t-175 144.5t-107 236.5t-36 325q0 244 63.5 411t188 253t305.5 86q182 0 305.5 -85t186.5 -252.5t63 -414.5zM442 733q0 -149 22 -249t65.5 -149.5t107.5 -49.5q66 0 108.5 48t63 147.5 t20.5 252.5q0 232 -47.5 342.5t-144.5 110.5q-64 0 -107.5 -50.5t-65.5 -151t-22 -251.5zM672 1899q17 -40 48 -99.5t62 -115t49 -84.5v-29h-243q-25 23 -65 64.5t-84.5 88t-82 88.5t-57.5 66v21h373z" glyph-name="Ograve" horiz-adv-x="1272" unicode="Ò"/>
<glyph d="M1192 733q0 -184 -35.5 -324.5t-106 -236t-174 -144t-239.5 -48.5q-135 0 -239 49t-175 144.5t-107 236.5t-36 325q0 244 63.5 411t188 253t305.5 86q182 0 305.5 -85t186.5 -252.5t63 -414.5zM442 733q0 -149 22 -249t65.5 -149.5t107.5 -49.5q66 0 108.5 48t63 147.5 t20.5 252.5q0 232 -47.5 342.5t-144.5 110.5q-64 0 -107.5 -50.5t-65.5 -151t-22 -251.5zM997 1899v-21q-21 -26 -54.5 -63.5t-73 -80t-81 -85t-79.5 -78.5h-244v29q33 54 61 105.5t53 100t46 93.5h372z" glyph-name="Oacute" horiz-adv-x="1272" unicode="Ó"/>
<glyph d="M1192 733q0 -184 -35.5 -324.5t-106 -236t-174 -144t-239.5 -48.5q-135 0 -239 49t-175 144.5t-107 236.5t-36 325q0 244 63.5 411t188 253t305.5 86q182 0 305.5 -85t186.5 -252.5t63 -414.5zM442 733q0 -149 22 -249t65.5 -149.5t107.5 -49.5q66 0 108.5 48t63 147.5 t20.5 252.5q0 232 -47.5 342.5t-144.5 110.5q-64 0 -107.5 -50.5t-65.5 -151t-22 -251.5zM789 1899q24 -45 53 -93.5t64.5 -100t76.5 -105.5v-29h-203q-31 25 -66.5 62t-76.5 88q-43 -52 -78 -90t-61 -60h-207v29q28 35 67.5 91.5t76 114t53.5 93.5h301z" glyph-name="Ocircumflex" horiz-adv-x="1272" unicode="Ô"/>
<glyph d="M1192 733q0 -184 -35.5 -324.5t-106 -236t-174 -144t-239.5 -48.5q-135 0 -239 49t-175 144.5t-107 236.5t-36 325q0 244 63.5 411t188 253t305.5 86q182 0 305.5 -85t186.5 -252.5t63 -414.5zM442 733q0 -149 22 -249t65.5 -149.5t107.5 -49.5q66 0 108.5 48t63 147.5 t20.5 252.5q0 232 -47.5 342.5t-144.5 110.5q-64 0 -107.5 -50.5t-65.5 -151t-22 -251.5zM281 1567q0 48 5.5 106.5t24 112t55 88.5t97.5 35q43 0 82 -14.5t75 -33.5t71 -33.5t69 -14.5q26 0 39 25.5t21 72.5h172q0 -167 -54 -254.5t-133 -87.5q-40 0 -81 14.5t-80 33.5 t-72.5 33.5t-59.5 14.5q-16 0 -35 -21t-24 -77h-172z" glyph-name="Otilde" horiz-adv-x="1272" unicode="Õ"/>
<glyph d="M1192 733q0 -184 -35.5 -324.5t-106 -236t-174 -144t-239.5 -48.5q-135 0 -239 49t-175 144.5t-107 236.5t-36 325q0 244 63.5 411t188 253t305.5 86q182 0 305.5 -85t186.5 -252.5t63 -414.5zM442 733q0 -149 22 -249t65.5 -149.5t107.5 -49.5q66 0 108.5 48t63 147.5 t20.5 252.5q0 232 -47.5 342.5t-144.5 110.5q-64 0 -107.5 -50.5t-65.5 -151t-22 -251.5zM291 1743q0 75 39.5 116.5t105.5 41.5q69 0 109.5 -43t40.5 -115q0 -70 -40.5 -113t-109.5 -43q-66 0 -105.5 41.5t-39.5 114.5zM686 1743q0 75 40.5 116.5t107.5 41.5q71 0 110 -43 t39 -115q0 -70 -39 -113t-110 -43q-70 0 -109 42t-39 114z" glyph-name="Odieresis" horiz-adv-x="1272" unicode="Ö"/>
<glyph d="M762 1159l188 -182l-254 -254l250 -252l-184 -184l-254 250l-252 -248l-178 186l244 248l-246 248l180 188l252 -246z" glyph-name="multiply" horiz-adv-x="1024" unicode="×"/>
<glyph d="M1192 733q0 -184 -35.5 -324.5t-106 -236t-174 -144t-239.5 -48.5q-69 0 -129 12t-113 37l-65 -138l-162 76l84 170q-97 122 -134.5 268t-37.5 330q0 244 63.5 411t188 253t305.5 86q71 0 133.5 -13.5t116.5 -39.5l57 116l162 -75l-76 -154q82 -94 122 -241.5t40 -344.5z M840 733q0 56 -3 104t-10 91l-301 -613q22 -22 50.5 -33.5t60.5 -11.5q68 0 113 52t67.5 155t22.5 256zM432 733q0 -63 3.5 -116.5t10.5 -100.5l308 623q-23 28 -52.5 41.5t-64.5 13.5q-68 0 -114 -51.5t-68.5 -153.5t-22.5 -256z" glyph-name="Oslash" horiz-adv-x="1272" unicode="Ø"/>
<glyph d="M1092 1462v-966q0 -169 -57 -284t-167 -173.5t-270 -58.5q-233 0 -358 126t-125 381v975h348v-958q0 -120 35 -169.5t104 -49.5q49 0 80 21t46 69.5t15 130.5v956h349zM637 1899q17 -40 48 -99.5t62 -115t49 -84.5v-29h-243q-25 23 -65 64.5t-84.5 88t-82 88.5t-57.5 66 v21h373z" glyph-name="Ugrave" horiz-adv-x="1204" unicode="Ù"/>
<glyph d="M1092 1462v-966q0 -169 -57 -284t-167 -173.5t-270 -58.5q-233 0 -358 126t-125 381v975h348v-958q0 -120 35 -169.5t104 -49.5q49 0 80 21t46 69.5t15 130.5v956h349zM962 1899v-21q-21 -26 -54.5 -63.5t-73 -80t-81 -85t-79.5 -78.5h-244v29q33 54 61 105.5t53 100 t46 93.5h372z" glyph-name="Uacute" horiz-adv-x="1204" unicode="Ú"/>
<glyph d="M1092 1462v-966q0 -169 -57 -284t-167 -173.5t-270 -58.5q-233 0 -358 126t-125 381v975h348v-958q0 -120 35 -169.5t104 -49.5q49 0 80 21t46 69.5t15 130.5v956h349zM754 1899q24 -45 53 -93.5t64.5 -100t76.5 -105.5v-29h-203q-31 25 -66.5 62t-76.5 88 q-43 -52 -78 -90t-61 -60h-207v29q28 35 67.5 91.5t76 114t53.5 93.5h301z" glyph-name="Ucircumflex" horiz-adv-x="1204" unicode="Û"/>
<glyph d="M1092 1462v-966q0 -169 -57 -284t-167 -173.5t-270 -58.5q-233 0 -358 126t-125 381v975h348v-958q0 -120 35 -169.5t104 -49.5q49 0 80 21t46 69.5t15 130.5v956h349zM256 1743q0 75 39.5 116.5t105.5 41.5q69 0 109.5 -43t40.5 -115q0 -70 -40.5 -113t-109.5 -43 q-66 0 -105.5 41.5t-39.5 114.5zM651 1743q0 75 40.5 116.5t107.5 41.5q71 0 110 -43t39 -115q0 -70 -39 -113t-110 -43q-70 0 -109 42t-39 114z" glyph-name="Udieresis" horiz-adv-x="1204" unicode="Ü"/>
<glyph d="M541 930l178 532h358l-364 -901v-561h-348v549l-365 913h362zM899 1899v-21q-21 -26 -54.5 -63.5t-73 -80t-81 -85t-79.5 -78.5h-244v29q33 54 61 105.5t53 100t46 93.5h372z" glyph-name="Yacute" horiz-adv-x="1077" unicode="Ý"/>
<glyph d="M987 784q0 -105 -25.5 -197.5t-79 -163.5t-138 -111t-203.5 -40h-72v-272h-348v1462h348v-213h82q218 0 327 -121t109 -344zM469 565h37q42 0 73 22t47.5 70t16.5 125q0 86 -29 129t-88 43h-57v-389z" glyph-name="Thorn" horiz-adv-x="1024" unicode="Þ"/>
<glyph d="M1053 1196q0 -79 -20.5 -132.5t-50 -89t-59.5 -62t-50.5 -51t-20.5 -56.5q0 -15 11 -34t34.5 -41.5t60.5 -49.5q60 -42 103 -89t66.5 -106t23.5 -137q0 -122 -43 -204t-126.5 -123t-203.5 -41q-61 0 -128.5 12.5t-133.5 46.5v307q35 -25 72 -43.5t73.5 -28.5t67.5 -10 q47 0 66.5 16t19.5 42t-10 46.5t-38.5 46t-84.5 64.5q-72 52 -107.5 103t-47 101t-11.5 97q0 60 20.5 102t51.5 75t61.5 64t51 67t20.5 86q0 44 -33 80t-104 36q-49 0 -82.5 -26t-50.5 -77t-17 -128v-1059h-332v1100q0 143 58.5 248t167 162t256.5 57q137 0 243 -44.5 t166 -127.5t60 -199z" glyph-name="germandbls" horiz-adv-x="1200" unicode="ß"/>
<glyph d="M545 1153q169 0 267.5 -101t98.5 -309v-743h-239l-56 150h-6q-36 -57 -76.5 -95t-92 -56.5t-122.5 -18.5q-97 0 -156 53t-85.5 137t-26.5 176q0 182 97.5 272t283.5 97l148 6v29q0 69 -26.5 104t-82.5 35q-49 0 -108.5 -20.5t-135.5 -63.5l-86 246q83 49 185 75.5 t219 26.5zM580 506l-62 -4q-67 -3 -101 -38.5t-34 -103.5q0 -58 20 -87t60 -29q49 0 83 44.5t34 117.5v100zM561 1569q17 -40 48 -99.5t62 -115t49 -84.5v-29h-243q-25 23 -65 64.5t-84.5 88t-82 88.5t-57.5 66v21h373z" glyph-name="agrave" horiz-adv-x="1012" unicode="à"/>
<glyph d="M545 1153q169 0 267.5 -101t98.5 -309v-743h-239l-56 150h-6q-36 -57 -76.5 -95t-92 -56.5t-122.5 -18.5q-97 0 -156 53t-85.5 137t-26.5 176q0 182 97.5 272t283.5 97l148 6v29q0 69 -26.5 104t-82.5 35q-49 0 -108.5 -20.5t-135.5 -63.5l-86 246q83 49 185 75.5 t219 26.5zM580 506l-62 -4q-67 -3 -101 -38.5t-34 -103.5q0 -58 20 -87t60 -29q49 0 83 44.5t34 117.5v100zM886 1569v-21q-21 -26 -54.5 -63.5t-73 -80t-81 -85t-79.5 -78.5h-244v29q33 54 61 105.5t53 100t46 93.5h372z" glyph-name="aacute" horiz-adv-x="1012" unicode="á"/>
<glyph d="M545 1153q169 0 267.5 -101t98.5 -309v-743h-239l-56 150h-6q-36 -57 -76.5 -95t-92 -56.5t-122.5 -18.5q-97 0 -156 53t-85.5 137t-26.5 176q0 182 97.5 272t283.5 97l148 6v29q0 69 -26.5 104t-82.5 35q-49 0 -108.5 -20.5t-135.5 -63.5l-86 246q83 49 185 75.5 t219 26.5zM580 506l-62 -4q-67 -3 -101 -38.5t-34 -103.5q0 -58 20 -87t60 -29q49 0 83 44.5t34 117.5v100zM678 1569q24 -45 53 -93.5t64.5 -100t76.5 -105.5v-29h-203q-31 25 -66.5 62t-76.5 88q-43 -52 -78 -90t-61 -60h-207v29q28 35 67.5 91.5t76 114t53.5 93.5h301z " glyph-name="acircumflex" horiz-adv-x="1012" unicode="â"/>
<glyph d="M545 1153q169 0 267.5 -101t98.5 -309v-743h-239l-56 150h-6q-36 -57 -76.5 -95t-92 -56.5t-122.5 -18.5q-97 0 -156 53t-85.5 137t-26.5 176q0 182 97.5 272t283.5 97l148 6v29q0 69 -26.5 104t-82.5 35q-49 0 -108.5 -20.5t-135.5 -63.5l-86 246q83 49 185 75.5 t219 26.5zM580 506l-62 -4q-67 -3 -101 -38.5t-34 -103.5q0 -58 20 -87t60 -29q49 0 83 44.5t34 117.5v100zM170 1237q0 48 5.5 106.5t24 112t55 88.5t97.5 35q43 0 82 -14.5t75 -33.5t71 -33.5t69 -14.5q26 0 39 25.5t21 72.5h172q0 -167 -54 -254.5t-133 -87.5 q-40 0 -81 14.5t-80 33.5t-72.5 33.5t-59.5 14.5q-16 0 -35 -21t-24 -77h-172z" glyph-name="atilde" horiz-adv-x="1012" unicode="ã"/>
<glyph d="M545 1153q169 0 267.5 -101t98.5 -309v-743h-239l-56 150h-6q-36 -57 -76.5 -95t-92 -56.5t-122.5 -18.5q-97 0 -156 53t-85.5 137t-26.5 176q0 182 97.5 272t283.5 97l148 6v29q0 69 -26.5 104t-82.5 35q-49 0 -108.5 -20.5t-135.5 -63.5l-86 246q83 49 185 75.5 t219 26.5zM580 506l-62 -4q-67 -3 -101 -38.5t-34 -103.5q0 -58 20 -87t60 -29q49 0 83 44.5t34 117.5v100zM180 1413q0 75 39.5 116.5t105.5 41.5q69 0 109.5 -43t40.5 -115q0 -70 -40.5 -113t-109.5 -43q-66 0 -105.5 41.5t-39.5 114.5zM575 1413q0 75 40.5 116.5 t107.5 41.5q71 0 110 -43t39 -115q0 -70 -39 -113t-110 -43q-70 0 -109 42t-39 114z" glyph-name="adieresis" horiz-adv-x="1012" unicode="ä"/>
<glyph d="M545 1153q169 0 267.5 -101t98.5 -309v-743h-239l-56 150h-6q-36 -57 -76.5 -95t-92 -56.5t-122.5 -18.5q-97 0 -156 53t-85.5 137t-26.5 176q0 182 97.5 272t283.5 97l148 6v29q0 69 -26.5 104t-82.5 35q-49 0 -108.5 -20.5t-135.5 -63.5l-86 246q83 49 185 75.5 t219 26.5zM580 506l-62 -4q-67 -3 -101 -38.5t-34 -103.5q0 -58 20 -87t60 -29q49 0 83 44.5t34 117.5v100zM526 1237q-115 0 -184.5 71.5t-69.5 180.5q0 110 69.5 182t184.5 72q112 0 183 -73t71 -179t-70.5 -180t-183.5 -74zM526 1407q35 0 59.5 23.5t24.5 60.5 t-24.5 60.5t-59.5 23.5t-59.5 -23.5t-24.5 -60.5t21.5 -60.5t62.5 -23.5z" glyph-name="aring" horiz-adv-x="1012" unicode="å"/>
<glyph d="M1008 1151q136 0 229.5 -60t141.5 -175t48 -281v-174h-538q0 -114 46 -165.5t144 -51.5q80 0 147.5 20t143.5 68v-271q-72 -43 -152 -62t-178 -19q-75 0 -145 18.5t-127 57.5t-94 100q-44 -58 -94 -97.5t-106.5 -59t-121.5 -19.5q-108 0 -174 53t-96.5 137t-30.5 176 q0 121 43.5 201t128.5 121.5t209 46.5l148 6v29q0 69 -26.5 104t-82.5 35q-49 0 -108.5 -20.5t-135.5 -63.5l-86 246q80 50 174.5 76t188.5 26q86 0 147 -24.5t101 -73.5q47 47 109 71.5t147 24.5zM580 506l-62 -4q-67 -3 -101 -38.5t-34 -103.5q0 -58 20 -87t60 -29 q33 0 59.5 20.5t42 57t15.5 84.5v100zM1008 895q-51 0 -85 -45t-34 -156h233q0 72 -14 116.5t-39.5 64.5t-60.5 20z" glyph-name="ae" horiz-adv-x="1485" unicode="æ"/>
<glyph d="M520 -20q-152 0 -253 61.5t-151 190.5t-50 329q0 165 47.5 299t149.5 213.5t263 79.5q94 0 170.5 -21.5t143.5 -64.5l-88 -264q-51 34 -101 50.5t-102 16.5q-45 0 -78 -36t-51.5 -104.5t-18.5 -168.5q0 -99 18 -165.5t52.5 -100t85.5 -33.5q65 0 129 25.5t125 74.5v-282 q-61 -51 -133.5 -75.5t-157.5 -24.5zM740 -258q0 -107 -67.5 -170.5t-195.5 -63.5q-50 0 -95 5t-83 14v184q34 -7 62 -11.5t51 -4.5q37 0 56.5 14t19.5 43q0 35 -36.5 55t-98.5 23l69 170h156l-29 -70q60 -8 102.5 -33t65.5 -64.5t23 -90.5z" glyph-name="ccedilla" horiz-adv-x="887" unicode="ç"/>
<glyph d="M504 1151q135 0 231 -60t146.5 -175t50.5 -281v-174h-541q0 -114 47.5 -165.5t145.5 -51.5q78 0 145 20t145 68v-271q-73 -43 -157 -62t-182 -19q-164 0 -267.5 66.5t-152.5 196.5t-49 318q0 190 49.5 321.5t147 200t241.5 68.5zM512 895q-52 0 -86.5 -45t-34.5 -156h234 q0 72 -14 116.5t-39.5 64.5t-59.5 20zM539 1569q17 -40 48 -99.5t62 -115t49 -84.5v-29h-243q-25 23 -65 64.5t-84.5 88t-82 88.5t-57.5 66v21h373z" glyph-name="egrave" horiz-adv-x="987" unicode="è"/>
<glyph d="M504 1151q135 0 231 -60t146.5 -175t50.5 -281v-174h-541q0 -114 47.5 -165.5t145.5 -51.5q78 0 145 20t145 68v-271q-73 -43 -157 -62t-182 -19q-164 0 -267.5 66.5t-152.5 196.5t-49 318q0 190 49.5 321.5t147 200t241.5 68.5zM512 895q-52 0 -86.5 -45t-34.5 -156h234 q0 72 -14 116.5t-39.5 64.5t-59.5 20zM864 1569v-21q-21 -26 -54.5 -63.5t-73 -80t-81 -85t-79.5 -78.5h-244v29q33 54 61 105.5t53 100t46 93.5h372z" glyph-name="eacute" horiz-adv-x="987" unicode="é"/>
<glyph d="M504 1151q135 0 231 -60t146.5 -175t50.5 -281v-174h-541q0 -114 47.5 -165.5t145.5 -51.5q78 0 145 20t145 68v-271q-73 -43 -157 -62t-182 -19q-164 0 -267.5 66.5t-152.5 196.5t-49 318q0 190 49.5 321.5t147 200t241.5 68.5zM512 895q-52 0 -86.5 -45t-34.5 -156h234 q0 72 -14 116.5t-39.5 64.5t-59.5 20zM656 1569q24 -45 53 -93.5t64.5 -100t76.5 -105.5v-29h-203q-31 25 -66.5 62t-76.5 88q-43 -52 -78 -90t-61 -60h-207v29q28 35 67.5 91.5t76 114t53.5 93.5h301z" glyph-name="ecircumflex" horiz-adv-x="987" unicode="ê"/>
<glyph d="M504 1151q135 0 231 -60t146.5 -175t50.5 -281v-174h-541q0 -114 47.5 -165.5t145.5 -51.5q78 0 145 20t145 68v-271q-73 -43 -157 -62t-182 -19q-164 0 -267.5 66.5t-152.5 196.5t-49 318q0 190 49.5 321.5t147 200t241.5 68.5zM512 895q-52 0 -86.5 -45t-34.5 -156h234 q0 72 -14 116.5t-39.5 64.5t-59.5 20zM158 1413q0 75 39.5 116.5t105.5 41.5q69 0 109.5 -43t40.5 -115q0 -70 -40.5 -113t-109.5 -43q-66 0 -105.5 41.5t-39.5 114.5zM553 1413q0 75 40.5 116.5t107.5 41.5q71 0 110 -43t39 -115q0 -70 -39 -113t-110 -43q-70 0 -109 42 t-39 114z" glyph-name="edieresis" horiz-adv-x="987" unicode="ë"/>
<glyph d="M436 0h-332v1133h332v-1133zM305 1569q17 -40 48 -99.5t62 -115t49 -84.5v-29h-243q-25 23 -65 64.5t-84.5 88t-82 88.5t-57.5 66v21h373z" glyph-name="igrave" horiz-adv-x="543" unicode="ì"/>
<glyph d="M436 0h-332v1133h332v-1133zM630 1569v-21q-21 -26 -54.5 -63.5t-73 -80t-81 -85t-79.5 -78.5h-244v29q33 54 61 105.5t53 100t46 93.5h372z" glyph-name="iacute" horiz-adv-x="543" unicode="í"/>
<glyph d="M436 0h-332v1133h332v-1133zM422 1569q24 -45 53 -93.5t64.5 -100t76.5 -105.5v-29h-203q-31 25 -66.5 62t-76.5 88q-43 -52 -78 -90t-61 -60h-207v29q28 35 67.5 91.5t76 114t53.5 93.5h301z" glyph-name="icircumflex" horiz-adv-x="543" unicode="î"/>
<glyph d="M436 0h-332v1133h332v-1133zM-76 1413q0 75 39.5 116.5t105.5 41.5q69 0 109.5 -43t40.5 -115q0 -70 -40.5 -113t-109.5 -43q-66 0 -105.5 41.5t-39.5 114.5zM319 1413q0 75 40.5 116.5t107.5 41.5q71 0 110 -43t39 -115q0 -70 -39 -113t-110 -43q-70 0 -109 42t-39 114z " glyph-name="idieresis" horiz-adv-x="543" unicode="ï"/>
<glyph d="M426 1573q38 -20 81 -47t87 -62l131 111l125 -154l-113 -94q77 -89 133.5 -194.5t87.5 -242.5t31 -321q0 -183 -54.5 -315t-157.5 -203t-251 -71q-141 0 -244.5 64t-159.5 180.5t-56 275.5q0 163 57 277.5t150.5 175.5t201.5 61q23 0 43.5 -2t39.5 -6.5t36 -12.5l4 4 q-10 34 -31 71t-49 77l-117 -101l-125 152l121 102q-28 25 -55.5 48t-58.5 45zM528 735q-44 0 -72 -26t-41.5 -78.5t-13.5 -134.5q0 -78 13.5 -131.5t41.5 -81t72 -27.5q70 0 97.5 61t27.5 181q0 60 -6.5 104.5t-21 74t-38.5 44t-59 14.5z" glyph-name="eth" horiz-adv-x="1057" unicode="ð"/>
<glyph d="M672 1153q147 0 229 -109t82 -307v-737h-332v631q0 112 -18 169.5t-80 57.5q-70 0 -94.5 -74t-24.5 -266v-518h-332v1133h260l37 -140h19q26 54 62 89.5t84 53t108 17.5zM207 1237q0 48 5.5 106.5t24 112t55 88.5t97.5 35q43 0 82 -14.5t75 -33.5t71 -33.5t69 -14.5 q26 0 39 25.5t21 72.5h172q0 -167 -54 -254.5t-133 -87.5q-40 0 -81 14.5t-80 33.5t-72.5 33.5t-59.5 14.5q-16 0 -35 -21t-24 -77h-172z" glyph-name="ntilde" unicode="ñ"/>
<glyph d="M989 569q0 -109 -23.5 -213.5t-77.5 -189.5t-142.5 -135.5t-219.5 -50.5q-120 0 -207 49.5t-143 133t-83 189t-27 217.5q0 163 47 295.5t149.5 210.5t267.5 78q138 0 241 -68.5t160.5 -198.5t57.5 -317zM401 565q0 -101 13.5 -170t41.5 -104t72 -35q47 0 74 34.5 t39 104.5t12 174t-12 172t-39 102t-74 34q-66 0 -96.5 -76t-30.5 -236zM564 1569q17 -40 48 -99.5t62 -115t49 -84.5v-29h-243q-25 23 -65 64.5t-84.5 88t-82 88.5t-57.5 66v21h373z" glyph-name="ograve" horiz-adv-x="1057" unicode="ò"/>
<glyph d="M989 569q0 -109 -23.5 -213.5t-77.5 -189.5t-142.5 -135.5t-219.5 -50.5q-120 0 -207 49.5t-143 133t-83 189t-27 217.5q0 163 47 295.5t149.5 210.5t267.5 78q138 0 241 -68.5t160.5 -198.5t57.5 -317zM401 565q0 -101 13.5 -170t41.5 -104t72 -35q47 0 74 34.5 t39 104.5t12 174t-12 172t-39 102t-74 34q-66 0 -96.5 -76t-30.5 -236zM888 1569v-21q-21 -26 -54.5 -63.5t-73 -80t-81 -85t-79.5 -78.5h-244v29q33 54 61 105.5t53 100t46 93.5h372z" glyph-name="oacute" horiz-adv-x="1057" unicode="ó"/>
<glyph d="M989 569q0 -109 -23.5 -213.5t-77.5 -189.5t-142.5 -135.5t-219.5 -50.5q-120 0 -207 49.5t-143 133t-83 189t-27 217.5q0 163 47 295.5t149.5 210.5t267.5 78q138 0 241 -68.5t160.5 -198.5t57.5 -317zM401 565q0 -101 13.5 -170t41.5 -104t72 -35q47 0 74 34.5 t39 104.5t12 174t-12 172t-39 102t-74 34q-66 0 -96.5 -76t-30.5 -236zM680 1569q24 -45 53 -93.5t64.5 -100t76.5 -105.5v-29h-203q-31 25 -66.5 62t-76.5 88q-43 -52 -78 -90t-61 -60h-207v29q28 35 67.5 91.5t76 114t53.5 93.5h301z" glyph-name="ocircumflex" horiz-adv-x="1057" unicode="ô"/>
<glyph d="M989 569q0 -109 -23.5 -213.5t-77.5 -189.5t-142.5 -135.5t-219.5 -50.5q-120 0 -207 49.5t-143 133t-83 189t-27 217.5q0 163 47 295.5t149.5 210.5t267.5 78q138 0 241 -68.5t160.5 -198.5t57.5 -317zM401 565q0 -101 13.5 -170t41.5 -104t72 -35q47 0 74 34.5 t39 104.5t12 174t-12 172t-39 102t-74 34q-66 0 -96.5 -76t-30.5 -236zM172 1237q0 48 5.5 106.5t24 112t55 88.5t97.5 35q43 0 82 -14.5t75 -33.5t71 -33.5t69 -14.5q26 0 39 25.5t21 72.5h172q0 -167 -54 -254.5t-133 -87.5q-40 0 -81 14.5t-80 33.5t-72.5 33.5 t-59.5 14.5q-16 0 -35 -21t-24 -77h-172z" glyph-name="otilde" horiz-adv-x="1057" unicode="õ"/>
<glyph d="M989 569q0 -109 -23.5 -213.5t-77.5 -189.5t-142.5 -135.5t-219.5 -50.5q-120 0 -207 49.5t-143 133t-83 189t-27 217.5q0 163 47 295.5t149.5 210.5t267.5 78q138 0 241 -68.5t160.5 -198.5t57.5 -317zM401 565q0 -101 13.5 -170t41.5 -104t72 -35q47 0 74 34.5 t39 104.5t12 174t-12 172t-39 102t-74 34q-66 0 -96.5 -76t-30.5 -236zM182 1413q0 75 39.5 116.5t105.5 41.5q69 0 109.5 -43t40.5 -115q0 -70 -40.5 -113t-109.5 -43q-66 0 -105.5 41.5t-39.5 114.5zM577 1413q0 75 40.5 116.5t107.5 41.5q71 0 110 -43t39 -115 q0 -70 -39 -113t-110 -43q-70 0 -109 42t-39 114z" glyph-name="odieresis" horiz-adv-x="1057" unicode="ö"/>
<glyph d="M70 588v268h884v-268h-884zM514 141q-75 0 -119.5 46t-44.5 130q0 85 42.5 131t121.5 46q78 0 119 -46t41 -131q0 -82 -42.5 -129t-117.5 -47zM514 950q-75 0 -119.5 46t-44.5 130q0 85 42.5 131t121.5 46q78 0 119 -46t41 -131q0 -82 -42.5 -129t-117.5 -47z" glyph-name="divide" horiz-adv-x="1024" unicode="÷"/>
<glyph d="M989 569q0 -183 -54.5 -315t-157.5 -203t-251 -71q-49 0 -93.5 9t-84.5 25l-63 -131l-158 72l82 162q-77 97 -110 206.5t-33 245.5q0 277 122.5 430.5t341.5 153.5q50 0 93.5 -9t83.5 -28l55 109l156 -72l-68 -139q68 -77 103.5 -191t35.5 -254zM383 565q0 -34 0.5 -64.5 t3.5 -56.5l213 426q-13 14 -31.5 19.5t-40.5 5.5q-76 0 -110.5 -81.5t-34.5 -248.5zM674 569q0 31 -1 60t-3 55l-211 -424q14 -12 32 -18t37 -6q55 0 86.5 37.5t45.5 112t14 183.5z" glyph-name="oslash" horiz-adv-x="1057" unicode="ø"/>
<glyph d="M981 1133v-1133h-258l-39 139h-16q-27 -53 -63 -88.5t-83 -53t-108 -17.5q-99 0 -169.5 49t-107.5 141.5t-37 224.5v738h332v-629q0 -114 19.5 -172t68.5 -58q60 0 87 37t34.5 104t7.5 158v560h332zM578 1569q17 -40 48 -99.5t62 -115t49 -84.5v-29h-243q-25 23 -65 64.5 t-84.5 88t-82 88.5t-57.5 66v21h373z" glyph-name="ugrave" unicode="ù"/>
<glyph d="M981 1133v-1133h-258l-39 139h-16q-27 -53 -63 -88.5t-83 -53t-108 -17.5q-99 0 -169.5 49t-107.5 141.5t-37 224.5v738h332v-629q0 -114 19.5 -172t68.5 -58q60 0 87 37t34.5 104t7.5 158v560h332zM903 1569v-21q-21 -26 -54.5 -63.5t-73 -80t-81 -85t-79.5 -78.5h-244 v29q33 54 61 105.5t53 100t46 93.5h372z" glyph-name="uacute" unicode="ú"/>
<glyph d="M981 1133v-1133h-258l-39 139h-16q-27 -53 -63 -88.5t-83 -53t-108 -17.5q-99 0 -169.5 49t-107.5 141.5t-37 224.5v738h332v-629q0 -114 19.5 -172t68.5 -58q60 0 87 37t34.5 104t7.5 158v560h332zM695 1569q24 -45 53 -93.5t64.5 -100t76.5 -105.5v-29h-203 q-31 25 -66.5 62t-76.5 88q-43 -52 -78 -90t-61 -60h-207v29q28 35 67.5 91.5t76 114t53.5 93.5h301z" glyph-name="ucircumflex" unicode="û"/>
<glyph d="M981 1133v-1133h-258l-39 139h-16q-27 -53 -63 -88.5t-83 -53t-108 -17.5q-99 0 -169.5 49t-107.5 141.5t-37 224.5v738h332v-629q0 -114 19.5 -172t68.5 -58q60 0 87 37t34.5 104t7.5 158v560h332zM197 1413q0 75 39.5 116.5t105.5 41.5q69 0 109.5 -43t40.5 -115 q0 -70 -40.5 -113t-109.5 -43q-66 0 -105.5 41.5t-39.5 114.5zM592 1413q0 75 40.5 116.5t107.5 41.5q71 0 110 -43t39 -115q0 -70 -39 -113t-110 -43q-70 0 -109 42t-39 114z" glyph-name="udieresis" unicode="ü"/>
<glyph d="M4 1133h348l119 -492q8 -35 15 -70t12 -65.5t6 -54.5h8q3 34 11 78.5t24 107.5l110 496h344l-342 -1205q-44 -154 -100.5 -246.5t-132 -133t-178.5 -40.5q-40 0 -76 5t-68 12v291q20 -7 41.5 -10t40.5 -3q41 0 65.5 13.5t44 55t44.5 124.5l6 20zM864 1569v-21 q-21 -26 -54.5 -63.5t-73 -80t-81 -85t-79.5 -78.5h-244v29q33 54 61 105.5t53 100t46 93.5h372z" glyph-name="yacute" horiz-adv-x="1006" unicode="ý"/>
<glyph d="M1008 563q0 -181 -40 -311.5t-113.5 -201t-174.5 -70.5q-51 0 -95.5 17t-82 53.5t-68.5 94.5h-10q3 -51 5 -92t3.5 -72t1.5 -53v-420h-332v2048h332v-339q0 -58 -2 -115.5t-8 -114.5h10q38 70 73.5 105.5t75 48t89.5 12.5q158 0 247 -157.5t89 -432.5zM672 559 q0 161 -28.5 239.5t-82.5 78.5q-67 0 -97 -66.5t-30 -220.5v-66q0 -135 29.5 -197.5t95.5 -62.5q38 0 63 32.5t37.5 98.5t12.5 164z" glyph-name="thorn" horiz-adv-x="1073" unicode="þ"/>
<glyph d="M436 1556v-147h180v-233h-180v-15q0 -38 -7 -92.5t-21 -122.5h18q23 54 57 89.5t81.5 53t107.5 17.5q98 0 167.5 -49t106.5 -142t37 -225v-690h-332v584q0 113 -21.5 170t-66.5 57q-50 0 -78 -31t-39.5 -105t-11.5 -204v-471h-332v1176h-116v233h116v147h334z" glyph-name="hbar" unicode="ħ"/>
<glyph d="M436 0h-332v1133h332v-1133z" glyph-name="dotlessi" horiz-adv-x="543" unicode="ı"/>
<glyph d="M453 1151q164 0 267.5 -67t152.5 -196.5t49 -318.5t-49.5 -320.5t-147 -200t-242.5 -68.5q-135 0 -230.5 60t-146.5 175t-51 281v174h541q0 113 -47 165t-146 52q-78 0 -145 -20.5t-145 -67.5v270q74 43 158 62.5t182 19.5zM596 436h-234q0 -71 14.5 -115.5t40 -64.5 t58.5 -20q53 0 87 45t34 155z" glyph-name="uni0259" horiz-adv-x="987" unicode="ə"/>
<glyph d="M580 1569q24 -45 53 -93.5t64.5 -100t76.5 -105.5v-29h-203q-31 25 -66.5 62t-76.5 88q-43 -52 -78 -90t-61 -60h-207v29q28 35 67.5 91.5t76 114t53.5 93.5h301z" glyph-name="circumflex" horiz-adv-x="856" unicode="ˆ"/>
<glyph d="M690 1507v-235h-608v235h608z" glyph-name="macron" horiz-adv-x="772" unicode="ˉ"/>
<glyph d="M336 1237q-115 0 -184.5 71.5t-69.5 180.5q0 110 69.5 182t184.5 72q112 0 183 -73t71 -179t-70.5 -180t-183.5 -74zM336 1407q35 0 59.5 23.5t24.5 60.5t-24.5 60.5t-59.5 23.5t-59.5 -23.5t-24.5 -60.5t21.5 -60.5t62.5 -23.5z" glyph-name="ring" horiz-adv-x="672" unicode="˚"/>
<glyph d="M82 1237q0 48 5.5 106.5t24 112t55 88.5t97.5 35q43 0 82 -14.5t75 -33.5t71 -33.5t69 -14.5q26 0 39 25.5t21 72.5h172q0 -167 -54 -254.5t-133 -87.5q-40 0 -81 14.5t-80 33.5t-72.5 33.5t-59.5 14.5q-16 0 -35 -21t-24 -77h-172z" glyph-name="tilde" horiz-adv-x="874" unicode="˜"/>
<glyph d="M887 1569v-21q-12 -29 -42.5 -68.5t-70.5 -82.5t-82 -83.5t-78 -72.5h-170v29q37 74 65.5 131.5t48.5 100t30 67.5h299zM522 1569v-21q-14 -31 -43.5 -69.5t-69 -80t-83.5 -82t-88 -75.5h-156v29q37 75 65 133t47.5 100t30.5 66h297z" glyph-name="hungarumlaut" horiz-adv-x="969" unicode="˝"/>
<glyph d="M-401 1569q10 -24 29 -66t47.5 -100t66.5 -133v-29h-156q-46 36 -91 77.5t-84 83t-67.5 79.5t-41.5 67v21h297zM-766 1569q12 -25 31.5 -67.5t47.5 -100t64 -131.5v-29h-170q-32 29 -74 70.5t-83 86.5t-72 84.5t-43 65.5v21h299z" glyph-name="uni030F" horiz-adv-x="0" unicode="̏"/>
<glyph d="M877 1462v-301h-408v-1161h-348v1462h756z" glyph-name="Gamma" horiz-adv-x="903" unicode="Γ"/>
<glyph d="M121 0v1462h977v-1462h-348v1161h-281v-1161h-348z" glyph-name="Pi" horiz-adv-x="1217" unicode="Π"/>
<glyph d="M934 1483v-180q173 0 291 -71.5t178.5 -195t60.5 -280.5q0 -125 -34 -226.5t-101 -174t-166 -111.5t-229 -39v-225h-336v225q-134 0 -234 38.5t-165.5 110.5t-98 174.5t-32.5 229.5q0 111 28.5 209.5t91 174t164 118.5t246.5 43v180h336zM598 1016q-65 0 -107 -28 t-61.5 -84.5t-19.5 -143.5q0 -100 20.5 -159t62.5 -84t105 -25v524zM934 1016v-524q66 0 107.5 28t61 87.5t19.5 152.5q0 81 -21 138.5t-62.5 87.5t-104.5 30z" glyph-name="Phi" horiz-adv-x="1532" unicode="Φ"/>
<glyph d="M1489 1462v-497q0 -148 -31.5 -255.5t-96.5 -177t-164 -102.5t-234 -33v-397h-336v397q-139 0 -239 31t-163.5 96.5t-94 168t-30.5 245.5v524h349v-534q0 -89 17 -139.5t56.5 -71.5t104.5 -21v766h336v-766q61 0 100.5 24.5t58.5 74.5t19 127v540h348z" glyph-name="Psi" horiz-adv-x="1587" unicode="Ψ"/>
<glyph d="M682 702v-241h-102q-70 0 -110 -13t-56.5 -37.5t-16.5 -58.5q0 -31 17 -52.5t51 -32.5t84 -11q71 0 148 22.5t147 65.5v-285q-85 -46 -167.5 -62.5t-187.5 -16.5q-230 0 -329 94t-99 248q0 103 59.5 176t162.5 90v10q-82 25 -126 91t-44 157q0 93 48 162t135 107t204 38 q87 0 172 -20t182 -72l-106 -250q-55 35 -108 53.5t-99 18.5q-54 0 -81.5 -18.5t-27.5 -55.5q0 -63 38.5 -85t127.5 -22h84z" glyph-name="epsilon" horiz-adv-x="903" unicode="ε"/>
<glyph d="M918 1554v-1280q68 10 106 41t54 95t16 170q0 131 -17.5 269t-52.5 284h324q44 -174 60.5 -301.5t16.5 -258.5q0 -182 -57 -310t-169.5 -198.5t-280.5 -80.5v-476h-324v476q-163 6 -273 60.5t-165.5 169.5t-55.5 302v617h332v-603q0 -85 14.5 -139t50 -82t97.5 -35v1280 h324z" glyph-name="psi" horiz-adv-x="1516" unicode="ψ"/>
<glyph d="M825 0h-704v1462h704v-295h-356v-264h330v-295h-330v-309h356v-299zM504 1899q17 -40 48 -99.5t62 -115t49 -84.5v-29h-243q-25 23 -65 64.5t-84.5 88t-82 88.5t-57.5 66v21h373z" glyph-name="uni0400" horiz-adv-x="907" unicode="Ѐ"/>
<glyph d="M825 0h-704v1462h704v-295h-356v-264h330v-295h-330v-309h356v-299zM123 1743q0 75 39.5 116.5t105.5 41.5q69 0 109.5 -43t40.5 -115q0 -70 -40.5 -113t-109.5 -43q-66 0 -105.5 41.5t-39.5 114.5zM518 1743q0 75 40.5 116.5t107.5 41.5q71 0 110 -43t39 -115 q0 -70 -39 -113t-110 -43q-70 0 -109 42t-39 114z" glyph-name="uni0401" horiz-adv-x="907" unicode="Ё"/>
<glyph d="M858 -20q-35 0 -68.5 5.5t-64.5 14.5v291q11 -6 25.5 -11.5t29.5 -5.5q25 0 40 10t22 33t8 62v168q0 56 -23 82t-69 26h-119v-655h-348v1161h-256v301h858v-301h-254v-205h172q188 0 286.5 -109.5t98.5 -301.5v-133q-1 -211 -85 -321.5t-253 -110.5z" glyph-name="uni0402" horiz-adv-x="1282" unicode="Ђ"/>
<glyph d="M877 1462v-301h-408v-1161h-348v1462h756zM868 1899v-21q-21 -26 -54.5 -63.5t-73 -80t-81 -85t-79.5 -78.5h-244v29q33 54 61 105.5t53 100t46 93.5h372z" glyph-name="uni0403" horiz-adv-x="903" unicode="Ѓ"/>
<glyph d="M676 1184q-57 0 -96.5 -22t-66 -61t-42.5 -91.5t-25 -114.5h392v-297h-396q5 -81 24 -140.5t51.5 -98.5t76.5 -58.5t98 -19.5q77 0 149 27t144 65v-312q-73 -41 -159 -61t-183 -20q-182 0 -307.5 86t-190.5 253t-65 408q0 169 39.5 308t114.5 239t181.5 154.5t239.5 54.5 q102 0 196 -25t183 -78l-92 -286q-64 41 -128 65.5t-138 24.5z" glyph-name="uni0404" unicode="Є"/>
<glyph d="M879 444q0 -136 -56.5 -240.5t-159.5 -164t-243 -59.5q-63 0 -122.5 8.5t-118.5 28.5t-122 55v352q86 -58 176.5 -90.5t165.5 -32.5q43 0 70.5 14t41 38.5t13.5 56.5t-11 59.5t-49 61t-118 83.5q-64 41 -116 82.5t-88.5 91t-56 114.5t-19.5 153q0 130 51 226t150 149 t243 53q91 0 183 -26t186 -79l-93 -305q-76 48 -141 71t-121 23q-37 0 -60.5 -12.5t-34.5 -33.5t-11 -48q0 -39 13 -67t53.5 -59.5t123.5 -82.5q88 -54 148.5 -114t91.5 -134t31 -172z" glyph-name="uni0405" horiz-adv-x="930" unicode="Ѕ"/>
<glyph d="M121 0v1462h348v-1462h-348z" glyph-name="uni0406" horiz-adv-x="590" unicode="І"/>
<glyph d="M121 0v1462h348v-1462h-348zM-51 1743q0 75 39.5 116.5t105.5 41.5q69 0 109.5 -43t40.5 -115q0 -70 -40.5 -113t-109.5 -43q-66 0 -105.5 41.5t-39.5 114.5zM344 1743q0 75 40.5 116.5t107.5 41.5q71 0 110 -43t39 -115q0 -70 -39 -113t-110 -43q-70 0 -109 42t-39 114z " glyph-name="uni0407" horiz-adv-x="590" unicode="Ї"/>
<glyph d="M45 -459q-44 0 -87 5t-83 16v295q25 -10 53 -15.5t60 -5.5q53 0 83.5 23.5t43 80t12.5 156.5v1366h346v-1349q0 -221 -50.5 -346t-146 -175.5t-231.5 -50.5z" glyph-name="uni0408" horiz-adv-x="594" unicode="Ј"/>
<glyph d="M174 -20q-51 0 -89.5 6t-64.5 16v291q20 -9 39 -14t35 -5q28 0 46.5 18.5t32.5 62t26 116.5q7 49 19.5 153t27.5 242.5t29.5 292.5t25.5 303h786v-520h11q168 0 285 -51.5t178 -153t61 -252.5q0 -235 -133 -360t-373 -125h-366v1139h-144q-6 -94 -15 -198.5t-20 -208 t-23 -195t-23.5 -161.5t-22.5 -106q-30 -103 -69.5 -166.5t-101 -92.5t-157.5 -31zM1087 295h11q87 0 131.5 44.5t44.5 135.5q0 58 -17.5 96t-56 57t-102.5 19h-11v-352z" glyph-name="uni0409" horiz-adv-x="1677" unicode="Љ"/>
<glyph d="M121 0v1462h348v-536h252v536h338v-536h8q169 0 286 -50.5t177.5 -148.5t60.5 -242q0 -235 -133 -360t-373 -125h-364v631h-252v-631h-348zM1059 295h8q89 0 132.5 44.5t43.5 135.5q0 53 -19 87.5t-58 51.5t-99 17h-8v-336z" glyph-name="uni040A" horiz-adv-x="1649" unicode="Њ"/>
<glyph d="M893 1462v-301h-254v-205h172q186 0 286.5 -110t100.5 -301v-545h-348v547q0 56 -23 82t-69 26h-119v-655h-348v1161h-256v301h858z" glyph-name="uni040B" horiz-adv-x="1288" unicode="Ћ"/>
<glyph d="M1149 0h-385l-295 760v-760h-348v1462h348v-686l311 686h375l-352 -694zM974 1899v-21q-21 -26 -54.5 -63.5t-73 -80t-81 -85t-79.5 -78.5h-244v29q33 54 61 105.5t53 100t46 93.5h372z" glyph-name="uni040C" horiz-adv-x="1130" unicode="Ќ"/>
<glyph d="M121 1462h338v-524q0 -34 -1 -73t-2.5 -83.5t-4.5 -94.5t-7 -105h9l378 880h420v-1462h-338v528q0 32 1 71t3 85.5t5.5 100t7.5 114.5h-8l-383 -899h-418v1462zM721 1899q17 -40 48 -99.5t62 -115t49 -84.5v-29h-243q-25 23 -65 64.5t-84.5 88t-82 88.5t-57.5 66v21h373z " glyph-name="uni040D" horiz-adv-x="1370" unicode="Ѝ"/>
<glyph d="M1100 1462l-338 -1026q-46 -139 -106 -241.5t-155.5 -158.5t-250.5 -56q-54 0 -102 7.5t-93 22.5v301q35 -18 72 -27.5t72 -9.5q54 0 86.5 15.5t52 47t33.5 79.5l-367 1046h367l112 -379q16 -52 29 -101.5t24 -99.5t19 -104h12q10 55 19 98.5t19.5 86.5t23.5 94l106 405 h365zM933 1932q-10 -123 -55.5 -205.5t-126 -124t-196.5 -41.5q-122 0 -202.5 41.5t-123 124t-49.5 205.5h256q0 -97 27 -146t92 -49q56 0 86.5 49t33.5 146h258z" glyph-name="uni040E" horiz-adv-x="1100" unicode="Ў"/>
<glyph d="M1098 0h-322v-455h-338v455h-317v1462h348v-1163h281v1163h348v-1462z" glyph-name="uni040F" horiz-adv-x="1217" unicode="Џ"/>
<glyph d="M803 0l-55 285h-316l-55 -285h-377l356 1462h459l361 -1462h-373zM694 584l-59 327q-10 55 -18.5 107t-15 99.5t-11.5 88.5q-4 -39 -10.5 -86t-15.5 -98.5t-19 -106.5l-62 -331h211z" glyph-name="uni0410" horiz-adv-x="1176" unicode="А"/>
<glyph d="M121 0v1462h776v-301h-428v-219h8q168 0 285 -51.5t178 -153t61 -252.5q0 -235 -132.5 -360t-370.5 -125h-377zM469 295h8q89 0 132.5 44.5t43.5 135.5q0 58 -19.5 96t-58.5 57t-100 19h-6v-352z" glyph-name="uni0411" horiz-adv-x="1059" unicode="Б"/>
<glyph d="M121 1462h424q247 0 367 -88t120 -276q0 -81 -24 -147.5t-66.5 -111.5t-99.5 -63v-10q76 -23 123 -68.5t69.5 -113t22.5 -156.5q0 -132 -57 -228t-162.5 -148t-251.5 -52h-465v1462zM469 893h76q65 0 100 38t35 113q0 68 -35 102t-106 34h-70v-287zM469 621v-332h90 q71 0 106 41.5t35 126.5q0 52 -16.5 88.5t-49 56t-79.5 19.5h-86z" glyph-name="uni0412" horiz-adv-x="1143" unicode="В"/>
<glyph d="M877 1462v-301h-408v-1161h-348v1462h756z" glyph-name="uni0413" horiz-adv-x="903" unicode="Г"/>
<glyph d="M1153 1462v-1163h152v-754h-338v455h-619v-455h-338v754h92q50 124 90.5 258.5t70 280t48.5 302t27 322.5h815zM805 1171h-158q-7 -115 -22 -227t-37 -221t-50 -215t-63 -209h330v872z" glyph-name="uni0414" horiz-adv-x="1335" unicode="Д"/>
<glyph d="M825 0h-704v1462h704v-295h-356v-264h330v-295h-330v-309h356v-299z" glyph-name="uni0415" horiz-adv-x="907" unicode="Е"/>
<glyph d="M311 764l-336 698h371l309 -698v698h336v-698l312 698h368l-338 -698l334 -764h-377l-299 752v-752h-336v752l-301 -752h-377z" glyph-name="uni0416" horiz-adv-x="1649" unicode="Ж"/>
<glyph d="M932 1120q0 -144 -66 -231.5t-198 -116.5v-8q150 -17 228.5 -106.5t78.5 -239.5q0 -122 -53 -221.5t-170 -158t-310 -58.5q-116 0 -213 18t-176 55v324q42 -29 100.5 -50.5t119.5 -33.5t112 -12q126 0 179.5 38t53.5 130q0 83 -62 124t-187 41h-127v295h112q86 0 136 12 t71 44.5t21 91.5q0 63 -39 95t-117 32q-75 0 -137 -26t-115 -77l-127 258q69 55 135 86t144 44.5t180 13.5q128 0 224 -45.5t149 -127t53 -190.5z" glyph-name="uni0417" horiz-adv-x="1059" unicode="З"/>
<glyph d="M121 1462h338v-524q0 -34 -1 -73t-2.5 -83.5t-4.5 -94.5t-7 -105h9l378 880h420v-1462h-338v528q0 32 1 71t3 85.5t5.5 100t7.5 114.5h-8l-383 -899h-418v1462z" glyph-name="uni0418" horiz-adv-x="1370" unicode="И"/>
<glyph d="M121 1462h338v-524q0 -34 -1 -73t-2.5 -83.5t-4.5 -94.5t-7 -105h9l378 880h420v-1462h-338v528q0 32 1 71t3 85.5t5.5 100t7.5 114.5h-8l-383 -899h-418v1462zM1065 1932q-10 -123 -55.5 -205.5t-126 -124t-196.5 -41.5q-122 0 -202.5 41.5t-123 124t-49.5 205.5h256 q0 -97 27 -146t92 -49q56 0 86.5 49t33.5 146h258z" glyph-name="uni0419" horiz-adv-x="1370" unicode="Й"/>
<glyph d="M1149 0h-385l-295 760v-760h-348v1462h348v-686l311 686h375l-352 -694z" glyph-name="uni041A" horiz-adv-x="1130" unicode="К"/>
<glyph d="M1128 0h-348v1139h-174q-7 -118 -19.5 -250t-27 -256.5t-29.5 -221t-28 -141.5q-30 -103 -69.5 -167t-101 -93.5t-157.5 -29.5q-51 0 -89.5 6t-64.5 16v291q20 -9 39 -14t35 -5q28 0 46.5 18.5t32.5 62t26 116.5q7 49 19.5 153t27.5 242.5t29.5 292.5t25.5 303h827v-1462 z" glyph-name="uni041B" horiz-adv-x="1247" unicode="Л"/>
<glyph d="M690 0l-252 983h-8q5 -66 8.5 -127.5t5.5 -116.5t2 -104v-635h-325v1462h477l227 -878h6l228 878h473v-1462h-334v641q0 55 2 109.5t5 112.5t7 120h-8l-256 -983h-258z" glyph-name="uni041C" horiz-adv-x="1653" unicode="М"/>
<glyph d="M1126 0h-348v610h-309v-610h-348v1462h348v-553h309v553h348v-1462z" glyph-name="uni041D" horiz-adv-x="1247" unicode="Н"/>
<glyph d="M1192 733q0 -184 -35.5 -324.5t-106 -236t-174 -144t-239.5 -48.5q-135 0 -239 49t-175 144.5t-107 236.5t-36 325q0 244 63.5 411t188 253t305.5 86q182 0 305.5 -85t186.5 -252.5t63 -414.5zM442 733q0 -149 22 -249t65.5 -149.5t107.5 -49.5q66 0 108.5 48t63 147.5 t20.5 252.5q0 232 -47.5 342.5t-144.5 110.5q-64 0 -107.5 -50.5t-65.5 -151t-22 -251.5z" glyph-name="uni041E" horiz-adv-x="1272" unicode="О"/>
<glyph d="M121 0v1462h977v-1462h-348v1161h-281v-1161h-348z" glyph-name="uni041F" horiz-adv-x="1217" unicode="П"/>
<glyph d="M555 1462q226 0 339.5 -121t113.5 -344q0 -109 -28 -202.5t-86 -163t-147 -108t-210 -38.5h-68v-485h-348v1462h434zM522 1167h-53v-387h31q48 0 84 21.5t55.5 69t19.5 124.5q0 86 -34 129t-103 43z" glyph-name="uni0420" horiz-adv-x="1065" unicode="Р"/>
<glyph d="M655 1184q-51 0 -91 -31.5t-67 -91t-41 -144.5t-14 -192q0 -148 25.5 -247t76.5 -148t128 -49q71 0 136.5 27t131.5 65v-312q-70 -41 -151.5 -61t-172.5 -20q-174 0 -293.5 86t-181 253t-61.5 408q0 169 37.5 308t108.5 239t171.5 154.5t227.5 54.5q97 0 186.5 -25 t177.5 -78l-92 -286q-58 41 -117 65.5t-125 24.5z" glyph-name="uni0421" horiz-adv-x="1038" unicode="С"/>
<glyph d="M645 0h-346v1161h-264v301h872v-301h-262v-1161z" glyph-name="uni0422" horiz-adv-x="942" unicode="Т"/>
<glyph d="M1100 1462l-338 -1026q-46 -139 -106 -241.5t-155.5 -158.5t-250.5 -56q-54 0 -102 7.5t-93 22.5v301q35 -18 72 -27.5t72 -9.5q54 0 86.5 15.5t52 47t33.5 79.5l-367 1046h367l112 -379q16 -52 29 -101.5t24 -99.5t19 -104h12q10 55 19 98.5t19.5 86.5t23.5 94l106 405 h365z" glyph-name="uni0423" horiz-adv-x="1100" unicode="У"/>
<glyph d="M934 1483v-180q173 0 291 -71.5t178.5 -195t60.5 -280.5q0 -125 -34 -226.5t-101 -174t-166 -111.5t-229 -39v-225h-336v225q-134 0 -234 38.5t-165.5 110.5t-98 174.5t-32.5 229.5q0 111 28.5 209.5t91 174t164 118.5t246.5 43v180h336zM598 1016q-65 0 -107 -28 t-61.5 -84.5t-19.5 -143.5q0 -100 20.5 -159t62.5 -84t105 -25v524zM934 1016v-524q66 0 107.5 28t61 87.5t19.5 152.5q0 81 -21 138.5t-62.5 87.5t-104.5 30z" glyph-name="uni0424" horiz-adv-x="1532" unicode="Ф"/>
<glyph d="M1069 0h-375l-164 422l-168 -422h-366l334 731l-314 731h361l143 -405l133 405h369l-303 -719z" glyph-name="uni0425" horiz-adv-x="1065" unicode="Х"/>
<glyph d="M1317 299v-754h-338v455h-858v1462h348v-1163h309v1163h348v-1163h191z" glyph-name="uni0426" horiz-adv-x="1348" unicode="Ц"/>
<glyph d="M1042 0h-348v530q-85 -38 -162 -57.5t-145 -19.5q-139 0 -218 103.5t-79 287.5v618h348v-510q0 -107 22 -152.5t72 -45.5q32 0 73.5 14t88.5 43v651h348v-1462z" glyph-name="uni0427" horiz-adv-x="1163" unicode="Ч"/>
<glyph d="M1700 0h-1579v1462h348v-1163h266v1163h348v-1163h269v1163h348v-1462z" glyph-name="uni0428" horiz-adv-x="1821" unicode="Ш"/>
<glyph d="M1890 299v-754h-338v455h-1431v1462h348v-1163h266v1163h348v-1163h269v1163h348v-1163h190z" glyph-name="uni0429" horiz-adv-x="1919" unicode="Щ"/>
<glyph d="M299 0v1161h-264v301h610v-520h10q168 0 285.5 -51.5t178.5 -153t61 -252.5q0 -235 -133 -360t-371 -125h-377zM645 295h10q88 0 132 44.5t44 135.5q0 58 -19.5 96t-59 57t-99.5 19h-8v-352z" glyph-name="uni042A" horiz-adv-x="1237" unicode="Ъ"/>
<glyph d="M121 0v1462h348v-520h8q168 0 285 -51.5t178 -153t61 -252.5q0 -235 -133 -360t-372 -125h-375zM469 295h8q89 0 132.5 44.5t43.5 135.5q0 58 -19.5 96t-58.5 57t-100 19h-6v-352zM1133 0v1462h348v-1462h-348z" glyph-name="uni042B" horiz-adv-x="1599" unicode="Ы"/>
<glyph d="M121 0v1462h348v-520h8q168 0 285 -51.5t178 -153t61 -252.5q0 -235 -133 -360t-372 -125h-375zM469 297h8q89 0 132.5 44.5t43.5 133.5q0 59 -19.5 97t-58.5 56.5t-100 18.5h-6v-350z" glyph-name="uni042C" horiz-adv-x="1059" unicode="Ь"/>
<glyph d="M408 1184q-76 0 -139.5 -24.5t-129.5 -65.5l-92 286q88 53 183.5 78t213.5 25q122 0 224.5 -46t177.5 -139.5t116.5 -235.5t41.5 -335q0 -241 -65 -408t-191 -253t-310 -86q-95 0 -186 20t-166 61v312q74 -38 151 -65t152 -27q55 0 99 18.5t76 56.5t51.5 98t25.5 144 h-395v297h389q-7 51 -22 102.5t-41 93.5t-66.5 67.5t-97.5 25.5z" glyph-name="uni042D" unicode="Э"/>
<glyph d="M1667 733q0 -184 -34 -324.5t-100.5 -236t-165.5 -144t-230 -48.5q-155 0 -268.5 71.5t-179.5 211.5t-81 345h-139v-608h-348v1462h348v-555h143q20 189 86.5 317.5t177.5 194.5t261 66q175 0 293 -85t177.5 -252.5t59.5 -414.5zM954 733q0 -149 20 -249t59 -149.5 t97 -49.5q60 0 99 48t58.5 147.5t19.5 252.5q0 155 -20 255t-59 149t-98 49q-58 0 -97 -50.5t-59 -151t-20 -251.5z" glyph-name="uni042E" horiz-adv-x="1749" unicode="Ю"/>
<glyph d="M600 549l-227 -549h-383l305 637q-66 46 -110.5 105t-66.5 131t-22 157q0 217 126.5 324.5t379.5 107.5h393v-1462h-348v549h-47zM647 1171h-39q-51 0 -85 -17.5t-51 -53t-17 -88.5q0 -97 38.5 -145t116.5 -48h37v352z" glyph-name="uni042F" horiz-adv-x="1116" unicode="Я"/>
<glyph d="M545 1153q169 0 267.5 -101t98.5 -309v-743h-239l-56 150h-6q-36 -57 -76.5 -95t-92 -56.5t-122.5 -18.5q-97 0 -156 53t-85.5 137t-26.5 176q0 182 97.5 272t283.5 97l148 6v29q0 69 -26.5 104t-82.5 35q-49 0 -108.5 -20.5t-135.5 -63.5l-86 246q83 49 185 75.5 t219 26.5zM580 506l-62 -4q-67 -3 -101 -38.5t-34 -103.5q0 -58 20 -87t60 -29q49 0 83 44.5t34 117.5v100z" glyph-name="uni0430" horiz-adv-x="1012" unicode="а"/>
<glyph d="M66 678q0 225 43 390.5t147 274t285 162.5q60 19 163 36.5t250 33.5l29 -299q-30 -3 -92.5 -10.5t-134 -18.5t-131.5 -24t-86 -27q-48 -24 -79 -63t-47 -97.5t-20 -142.5h15q18 46 53.5 83t82.5 59t101 22q110 0 186.5 -56t117 -165t40.5 -267q0 -183 -54.5 -315 t-158 -203t-250.5 -71q-103 0 -188 36.5t-145.5 118t-93.5 215.5t-33 328zM535 256q40 0 66 30t39 90t13 150q0 132 -26.5 198.5t-81.5 66.5q-29 0 -58 -22.5t-52 -55.5t-34 -64q0 -87 8 -159t24.5 -124.5t42 -81t59.5 -28.5z" glyph-name="uni0431" horiz-adv-x="1057" unicode="б"/>
<glyph d="M973 840q0 -98 -50.5 -163.5t-138.5 -82.5v-8q95 -14 154 -84.5t59 -177.5t-45.5 -179.5t-137 -108.5t-228.5 -36h-484v1133h486q128 0 213.5 -32t128.5 -97t43 -164zM662 362q0 54 -27.5 79.5t-81.5 25.5h-119v-221h119q54 0 81.5 29t27.5 87zM641 788q0 50 -23.5 74.5 t-70.5 24.5h-113v-185h113q47 0 70.5 24.5t23.5 61.5z" glyph-name="uni0432" horiz-adv-x="1061" unicode="в"/>
<glyph d="M768 1133v-277h-334v-856h-332v1133h666z" glyph-name="uni0433" horiz-adv-x="799" unicode="г"/>
<glyph d="M1049 1133v-857h129v-692h-324v416h-508v-416h-321v692h98q43 108 78 245t60 292.5t36 319.5h752zM717 856h-142q-9 -103 -21.5 -189.5t-32.5 -178.5t-52 -212h248v580z" glyph-name="uni0434" horiz-adv-x="1202" unicode="д"/>
<glyph d="M504 1151q135 0 231 -60t146.5 -175t50.5 -281v-174h-541q0 -114 47.5 -165.5t145.5 -51.5q78 0 145 20t145 68v-271q-73 -43 -157 -62t-182 -19q-164 0 -267.5 66.5t-152.5 196.5t-49 318q0 190 49.5 321.5t147 200t241.5 68.5zM512 895q-52 0 -86.5 -45t-34.5 -156h234 q0 72 -14 116.5t-39.5 64.5t-59.5 20z" glyph-name="uni0435" horiz-adv-x="987" unicode="е"/>
<glyph d="M1604 1133l-301 -543l325 -590h-364l-287 575v-575h-326v575l-286 -575h-365l326 590l-301 543h354l272 -549v549h326v-549l272 549h355z" glyph-name="uni0436" horiz-adv-x="1628" unicode="ж"/>
<glyph d="M403 1153q117 0 204.5 -38t135.5 -107t48 -162q0 -91 -45 -157t-125 -91v-10q69 -11 118.5 -48.5t76 -93t26.5 -124.5q0 -100 -49.5 -177.5t-145 -121t-233.5 -43.5q-70 0 -129.5 7t-114 24t-111.5 48v285q71 -43 147 -65.5t148 -22.5q51 0 84.5 11t50.5 32.5t17 52.5 q0 34 -16.5 58.5t-56 37.5t-109.5 13h-105v241h84q91 0 129.5 22t38.5 85q0 37 -27.5 55.5t-81.5 18.5q-47 0 -99 -18.5t-107 -53.5l-107 250q100 56 183.5 74t170.5 18z" glyph-name="uni0437" horiz-adv-x="903" unicode="з"/>
<glyph d="M420 1133v-334q0 -42 -1 -81.5t-3.5 -80t-6 -86t-8.5 -100.5l322 682h350v-1133h-315v356q0 54 2.5 107t6.5 107t9 110l-321 -680h-353v1133h318z" glyph-name="uni0438" horiz-adv-x="1178" unicode="и"/>
<glyph d="M420 1133v-334q0 -42 -1 -81.5t-3.5 -80t-6 -86t-8.5 -100.5l322 682h350v-1133h-315v356q0 54 2.5 107t6.5 107t9 110l-321 -680h-353v1133h318zM966 1602q-10 -123 -55.5 -205.5t-126 -124t-196.5 -41.5q-122 0 -202.5 41.5t-123 124t-49.5 205.5h256q0 -97 27 -146 t92 -49q56 0 86.5 49t33.5 146h258z" glyph-name="uni0439" horiz-adv-x="1178" unicode="й"/>
<glyph d="M709 1133h354l-301 -543l325 -590h-364l-289 575v-575h-332v1133h332v-549z" glyph-name="uni043A" horiz-adv-x="1087" unicode="к"/>
<glyph d="M1014 0h-332v842h-143q-18 -246 -41.5 -412t-62 -265t-100.5 -142t-157 -43q-44 0 -83.5 7.5t-74.5 22.5v275q13 -10 29.5 -14.5t36.5 -4.5q26 0 46 31.5t35 97t27.5 168t22.5 244.5t19 326h778v-1133z" glyph-name="uni043B" horiz-adv-x="1116" unicode="л"/>
<glyph d="M1325 1133v-1133h-313v465q0 72 5.5 151.5t12.5 149.5h-8l-197 -766h-227l-197 766h-8q8 -75 12.5 -149t4.5 -154v-463h-308v1133h465l146 -594l149 594h463z" glyph-name="uni043C" horiz-adv-x="1427" unicode="м"/>
<glyph d="M434 1133v-414h217v414h332v-1133h-332v440h-217v-440h-332v1133h332z" glyph-name="uni043D" horiz-adv-x="1087" unicode="н"/>
<glyph d="M989 569q0 -109 -23.5 -213.5t-77.5 -189.5t-142.5 -135.5t-219.5 -50.5q-120 0 -207 49.5t-143 133t-83 189t-27 217.5q0 163 47 295.5t149.5 210.5t267.5 78q138 0 241 -68.5t160.5 -198.5t57.5 -317zM401 565q0 -101 13.5 -170t41.5 -104t72 -35q47 0 74 34.5 t39 104.5t12 174t-12 172t-39 102t-74 34q-66 0 -96.5 -76t-30.5 -236z" glyph-name="uni043E" horiz-adv-x="1057" unicode="о"/>
<glyph d="M983 1133v-1133h-332v856h-217v-856h-332v1133h881z" glyph-name="uni043F" horiz-adv-x="1087" unicode="п"/>
<glyph d="M672 1153q158 0 247 -157.5t89 -432.5q0 -181 -40 -311.5t-113.5 -201t-174.5 -70.5q-51 0 -95.5 17t-82 53.5t-68.5 94.5h-10q5 -76 7.5 -130.5t2.5 -86.5v-420h-332v1625h267l49 -146h16q38 70 73.5 105.5t75 48t89.5 12.5zM561 877q-45 0 -73 -29t-41 -92t-13 -166 v-66q0 -90 13 -147.5t40.5 -85t71.5 -27.5q38 0 63 32.5t37.5 98.5t12.5 164q0 161 -28.5 239.5t-82.5 78.5z" glyph-name="uni0440" horiz-adv-x="1073" unicode="р"/>
<glyph d="M520 -20q-152 0 -253 61.5t-151 190.5t-50 329q0 165 47.5 299t149.5 213.5t263 79.5q94 0 170.5 -21.5t143.5 -64.5l-88 -264q-51 34 -101 50.5t-102 16.5q-45 0 -78 -36t-51.5 -104.5t-18.5 -168.5q0 -99 18 -165.5t52.5 -100t85.5 -33.5q65 0 129 25.5t125 74.5v-282 q-61 -51 -133.5 -75.5t-157.5 -24.5z" glyph-name="uni0441" horiz-adv-x="887" unicode="с"/>
<glyph d="M897 856h-266v-856h-332v856h-268v277h866v-277z" glyph-name="uni0442" horiz-adv-x="928" unicode="т"/>
<glyph d="M4 1133h348l119 -492q8 -35 15 -70t12 -65.5t6 -54.5h8q3 34 11 78.5t24 107.5l110 496h344l-342 -1205q-44 -154 -100.5 -246.5t-132 -133t-178.5 -40.5q-40 0 -76 5t-68 12v291q20 -7 41.5 -10t40.5 -3q41 0 65.5 13.5t44 55t44.5 124.5l6 20z" glyph-name="uni0443" horiz-adv-x="1006" unicode="у"/>
<glyph d="M895 1556v-423q159 -12 270.5 -86.5t170.5 -198t59 -283.5q0 -169 -59.5 -290.5t-171 -191t-269.5 -83.5v-492h-322v492q-158 14 -272 88.5t-174.5 197.5t-60.5 279q0 172 56.5 294t168.5 191.5t278 82.5v423h326zM569 856q-46 -3 -84 -41.5t-61 -103t-23 -146.5 q0 -85 21.5 -149.5t59.5 -101t87 -38.5v580zM895 856v-580q49 2 87 39t59.5 101.5t21.5 148.5q0 125 -48 206t-120 85z" glyph-name="uni0444" horiz-adv-x="1460" unicode="ф"/>
<glyph d="M272 578l-256 555h361l110 -297l105 297h360l-252 -555l263 -578h-361l-123 319l-117 -319h-352z" glyph-name="uni0445" horiz-adv-x="973" unicode="х"/>
<glyph d="M1145 -416h-322v416h-721v1133h332v-857h238v857h332v-857h141v-692z" glyph-name="uni0446" horiz-adv-x="1169" unicode="ц"/>
<glyph d="M403 1133v-410q0 -60 18.5 -89.5t55.5 -29.5q32 0 74.5 13.5t91.5 37.5v478h334v-1133h-334v412q-73 -42 -139 -63t-123 -21q-158 0 -233.5 94.5t-75.5 292.5v418h331z" glyph-name="uni0447" horiz-adv-x="1079" unicode="ч"/>
<glyph d="M1534 1133v-1133h-1432v1133h332v-857h217v857h332v-857h217v857h334z" glyph-name="uni0448" horiz-adv-x="1636" unicode="ш"/>
<glyph d="M1534 1133v-857h139v-692h-321v416h-1250v1133h332v-857h217v857h332v-857h217v857h334z" glyph-name="uni0449" horiz-adv-x="1700" unicode="щ"/>
<glyph d="M598 1133v-408h43q151 0 251 -36t150 -113t50 -201q0 -130 -49 -213t-141.5 -122.5t-223.5 -39.5h-412v842h-235v291h567zM649 479h-51v-233h55q51 0 79 29.5t28 82.5q0 59 -25.5 90t-85.5 31z" glyph-name="uni044A" horiz-adv-x="1139" unicode="ъ"/>
<glyph d="M102 0v1133h332v-408h43q151 0 251 -36t150 -113t50 -201q0 -130 -49 -213t-142 -122.5t-225 -39.5h-410zM434 246h55q50 0 78.5 29.5t28.5 82.5q0 59 -25.5 90t-85.5 31h-51v-233zM1036 0v1133h332v-1133h-332z" glyph-name="uni044B" horiz-adv-x="1473" unicode="ы"/>
<glyph d="M434 725h43q151 0 251 -36t150 -113t50 -201q0 -130 -49 -213t-142 -122.5t-225 -39.5h-410v1133h332v-408zM596 358q0 59 -25.5 90t-85.5 31h-51v-233h55q50 0 78.5 29.5t28.5 82.5z" glyph-name="uni044C" horiz-adv-x="975" unicode="ь"/>
<glyph d="M377 -20q-88 0 -162.5 24.5t-136.5 75.5v272q65 -49 131 -73.5t135 -24.5q42 0 73.5 20.5t52.5 62t30 103.5h-285v246h285q-14 100 -51 149.5t-97 49.5q-57 0 -110 -17t-107 -51l-88 250q72 43 149 64.5t156 21.5q157 0 267 -70t167.5 -202t57.5 -320q0 -187 -53 -317 t-157 -197t-257 -67z" glyph-name="uni044D" horiz-adv-x="909" unicode="э"/>
<glyph d="M1438 569q0 -184 -53 -316t-153 -202.5t-243 -70.5q-117 0 -207.5 43t-148.5 143.5t-80 273.5h-119v-440h-332v1133h332v-414h121q21 139 79 236t150 147.5t211 50.5q133 0 232.5 -72t155 -203t55.5 -309zM879 565q0 -101 11.5 -170t36 -104t64.5 -35t64.5 34.5 t35.5 104.5t11 174t-11 172t-36 102t-66 34q-39 0 -63 -33.5t-35.5 -102.5t-11.5 -176z" glyph-name="uni044E" horiz-adv-x="1503" unicode="ю"/>
<glyph d="M340 0h-350l227 440q-49 25 -82.5 72.5t-51 113.5t-17.5 144q0 173 99.5 268t278.5 95h447v-1133h-332v393h-53zM397 758q0 -52 28.5 -85.5t82.5 -33.5h51v248h-53q-51 0 -80 -36t-29 -93z" glyph-name="uni044F" horiz-adv-x="993" unicode="я"/>
<glyph d="M504 1151q135 0 231 -60t146.5 -175t50.5 -281v-174h-541q0 -114 47.5 -165.5t145.5 -51.5q78 0 145 20t145 68v-271q-73 -43 -157 -62t-182 -19q-164 0 -267.5 66.5t-152.5 196.5t-49 318q0 190 49.5 321.5t147 200t241.5 68.5zM512 895q-52 0 -86.5 -45t-34.5 -156h234 q0 72 -14 116.5t-39.5 64.5t-59.5 20zM539 1569q17 -40 48 -99.5t62 -115t49 -84.5v-29h-243q-25 23 -65 64.5t-84.5 88t-82 88.5t-57.5 66v21h373z" glyph-name="uni0450" horiz-adv-x="987" unicode="ѐ"/>
<glyph d="M504 1151q135 0 231 -60t146.5 -175t50.5 -281v-174h-541q0 -114 47.5 -165.5t145.5 -51.5q78 0 145 20t145 68v-271q-73 -43 -157 -62t-182 -19q-164 0 -267.5 66.5t-152.5 196.5t-49 318q0 190 49.5 321.5t147 200t241.5 68.5zM512 895q-52 0 -86.5 -45t-34.5 -156h234 q0 72 -14 116.5t-39.5 64.5t-59.5 20zM158 1413q0 75 39.5 116.5t105.5 41.5q69 0 109.5 -43t40.5 -115q0 -70 -40.5 -113t-109.5 -43q-66 0 -105.5 41.5t-39.5 114.5zM553 1413q0 75 40.5 116.5t107.5 41.5q71 0 110 -43t39 -115q0 -70 -39 -113t-110 -43q-70 0 -109 42 t-39 114z" glyph-name="uni0451" horiz-adv-x="987" unicode="ё"/>
<glyph d="M641 -492q-35 0 -89.5 8t-82.5 17v281q25 -10 47.5 -14.5t44.5 -4.5q47 0 68.5 35t21.5 104v650q0 113 -21.5 170t-66.5 57q-47 0 -75.5 -31t-41 -105t-12.5 -204v-471h-332v1176h-116v233h116v147h334v-147h180v-233h-180v-15q0 -38 -7 -92.5t-21 -122.5h18 q23 54 57 89.5t81.5 53t107.5 17.5q98 0 167.5 -49t106.5 -142t37 -225v-782q0 -124 -40 -213.5t-116 -138t-186 -48.5z" glyph-name="uni0452" unicode="ђ"/>
<glyph d="M768 1133v-277h-334v-856h-332v1133h666zM800 1569v-21q-21 -26 -54.5 -63.5t-73 -80t-81 -85t-79.5 -78.5h-244v29q33 54 61 105.5t53 100t46 93.5h372z" glyph-name="uni0453" horiz-adv-x="799" unicode="ѓ"/>
<glyph d="M532 -20q-153 0 -257 67t-156.5 197t-52.5 317q0 177 53 310.5t162 207.5t276 74q80 0 156.5 -21.5t146.5 -64.5l-86 -250q-54 34 -107 51t-112 17q-39 0 -68 -22t-48.5 -66t-28.5 -111h284v-246h-284q9 -62 29 -103.5t51.5 -62t74.5 -20.5q69 0 135.5 24.5t130.5 73.5 v-272q-61 -51 -136 -75.5t-163 -24.5z" glyph-name="uni0454" horiz-adv-x="909" unicode="є"/>
<glyph d="M762 348q0 -122 -46 -204t-132.5 -123t-208.5 -41q-83 0 -163 14t-159 49v313q62 -37 136.5 -64.5t150.5 -27.5q46 0 69 15.5t23 50.5q0 19 -9.5 36.5t-45.5 42.5t-115 64q-69 35 -116 85.5t-71 115.5t-24 145q0 158 96 246t273 88q88 0 166 -24.5t159 -71.5l-81 -252 q-51 34 -108 59t-116 25q-35 0 -52 -13t-17 -40q0 -18 9.5 -33t43.5 -37.5t106 -65.5q69 -38 121 -87t81.5 -113.5t29.5 -151.5z" glyph-name="uni0455" horiz-adv-x="811" unicode="ѕ"/>
<glyph d="M436 1133v-1133h-332v1133h332zM270 1589q92 0 134 -44t42 -130t-44 -129t-132 -43q-87 0 -131.5 43t-44.5 129q0 88 42 131t134 43z" glyph-name="uni0456" horiz-adv-x="543" unicode="і"/>
<glyph d="M436 0h-332v1133h332v-1133zM-76 1413q0 75 39.5 116.5t105.5 41.5q69 0 109.5 -43t40.5 -115q0 -70 -40.5 -113t-109.5 -43q-66 0 -105.5 41.5t-39.5 114.5zM319 1413q0 75 40.5 116.5t107.5 41.5q71 0 110 -43t39 -115q0 -70 -39 -113t-110 -43q-70 0 -109 42t-39 114z " glyph-name="uni0457" horiz-adv-x="543" unicode="ї"/>
<glyph d="M94 -492q-41 0 -86 6t-86 19v281q25 -10 48 -14.5t44 -4.5q47 0 68.5 35t21.5 104v1199h332v-1225q0 -137 -41 -225t-117.5 -130.5t-183.5 -44.5zM94 1415q0 88 42 131t134 43t134 -44t42 -130t-44 -129t-132 -43q-87 0 -131.5 43t-44.5 129z" glyph-name="uni0458" horiz-adv-x="543" unicode="ј"/>
<glyph d="M995 1133v-408h41q151 0 251 -36t150 -113t50 -201q0 -130 -49 -213t-141.5 -122.5t-223.5 -39.5h-401v842h-133q-18 -246 -41.5 -412t-62 -265t-100.5 -142t-157 -43q-44 0 -83.5 7.5t-74.5 22.5v275q13 -10 29.5 -14.5t36.5 -4.5q26 0 46 31.5t35 97t27.5 168 t22.5 244.5t19 326h759zM1047 479h-52v-233h54q50 0 78 29.5t28 82.5q0 59 -25 90t-83 31z" glyph-name="uni0459" horiz-adv-x="1536" unicode="љ"/>
<glyph d="M977 1133v-408h41q151 0 250.5 -36t149.5 -113t50 -201q0 -130 -48.5 -213t-141 -122.5t-223.5 -39.5h-404v449h-217v-449h-332v1133h332v-408h217v408h326zM1026 479h-49v-233h53q51 0 79 29.5t28 82.5q0 59 -25.5 90t-85.5 31z" glyph-name="uni045A" horiz-adv-x="1516" unicode="њ"/>
<glyph d="M436 1556v-147h180v-233h-180v-15q0 -38 -7 -92.5t-21 -122.5h18q23 54 57 89.5t81.5 53t107.5 17.5q98 0 167.5 -49t106.5 -142t37 -225v-690h-332v584q0 113 -21.5 170t-66.5 57q-50 0 -78 -31t-39.5 -105t-11.5 -204v-471h-332v1176h-116v233h116v147h334z" glyph-name="uni045B" unicode="ћ"/>
<glyph d="M709 1133h354l-301 -543l325 -590h-364l-289 575v-575h-332v1133h332v-549zM923 1569v-21q-21 -26 -54.5 -63.5t-73 -80t-81 -85t-79.5 -78.5h-244v29q33 54 61 105.5t53 100t46 93.5h372z" glyph-name="uni045C" horiz-adv-x="1087" unicode="ќ"/>
<glyph d="M420 1133v-334q0 -42 -1 -81.5t-3.5 -80t-6 -86t-8.5 -100.5l322 682h350v-1133h-315v356q0 54 2.5 107t6.5 107t9 110l-321 -680h-353v1133h318zM623 1569q17 -40 48 -99.5t62 -115t49 -84.5v-29h-243q-25 23 -65 64.5t-84.5 88t-82 88.5t-57.5 66v21h373z" glyph-name="uni045D" horiz-adv-x="1178" unicode="ѝ"/>
<glyph d="M4 1133h348l119 -492q8 -35 15 -70t12 -65.5t6 -54.5h8q3 34 11 78.5t24 107.5l110 496h344l-342 -1205q-44 -154 -100.5 -246.5t-132 -133t-178.5 -40.5q-40 0 -76 5t-68 12v291q20 -7 41.5 -10t40.5 -3q41 0 65.5 13.5t44 55t44.5 124.5l6 20zM882 1602 q-10 -123 -55.5 -205.5t-126 -124t-196.5 -41.5q-122 0 -202.5 41.5t-123 124t-49.5 205.5h256q0 -97 27 -146t92 -49q56 0 86.5 49t33.5 146h258z" glyph-name="uni045E" horiz-adv-x="1006" unicode="ў"/>
<glyph d="M383 0h-281v1133h332v-857h217v857h332v-1133h-278v-416h-322v416z" glyph-name="uni045F" horiz-adv-x="1087" unicode="џ"/>
<glyph d="M348 0q-77 180 -137.5 362t-103 366t-65.5 367.5t-26 366.5h365q-3 -127 6.5 -264t30 -273.5t50.5 -264t67 -236.5h6q14 78 36.5 158.5t45.5 156.5l84 287q-10 75 -18 146t-12.5 142.5t-4.5 147.5h356q0 -128 9 -259t29 -262.5t54 -261t84 -255.5h6q61 148 103.5 323.5 t66 359.5t25.5 355h356q-15 -223 -62 -469.5t-131.5 -499t-211.5 -493.5h-293q-31 65 -61.5 135.5t-59 141.5t-53.5 139t-45 129l-152 -545h-344z" glyph-name="uni0460" horiz-adv-x="1782" unicode="Ѡ"/>
<glyph d="M1491 1133q-8 -195 -52.5 -400.5t-108 -395t-130.5 -337.5h-293q-27 60 -60.5 147.5t-62 177.5t-43.5 154l-145 -479h-299q-67 141 -115 283t-80.5 283.5t-52.5 283.5t-29 283h322q5 -119 20.5 -256t41.5 -269.5t63 -240.5h6q7 24 17.5 59.5t20.5 70.5t17 54l99 283 q-11 83 -17 166.5t-6 132.5h314q5 -125 21 -264.5t43.5 -271.5t66.5 -237h6q32 90 57.5 219t41 274t15.5 280h322z" glyph-name="uni0461" horiz-adv-x="1540" unicode="ѡ"/>
<glyph d="M121 0v1128h-121v256h121v172h348v-172h270v-256h-270v-206h8q168 0 285 -49t178 -148t61 -250q0 -224 -133 -349.5t-372 -125.5h-375zM469 297h8q89 0 132.5 42t43.5 128q0 53 -17.5 89t-56 54.5t-102.5 18.5h-8v-332z" glyph-name="uni0462" horiz-adv-x="1059" unicode="Ѣ"/>
<glyph d="M547 1354v-221h231v-234h-231v-174h43q226 0 337 -82t111 -268q0 -130 -48 -213t-140.5 -122.5t-224.5 -39.5h-410v899h-195v234h195v221h332zM598 479h-51v-233h53q51 0 79 29.5t28 82.5q0 59 -24.5 90t-84.5 31z" glyph-name="uni0463" horiz-adv-x="1085" unicode="ѣ"/>
<glyph d="M1133 -20q-160 0 -275 71t-182 209t-84 338h-123v-598h-348v1462h348v-567h129q19 147 64 257t115 183.5t164.5 110.5t211.5 37q98 0 190.5 -25t180.5 -78l-92 -286q-67 41 -130 65.5t-139 24.5q-43 0 -79 -19.5t-64.5 -57t-48.5 -91t-31 -121.5h385v-297h-389 q8 -80 27 -139.5t49.5 -99t73 -59t96.5 -19.5q75 0 147 27t146 65v-312q-76 -41 -161.5 -61t-180.5 -20z" glyph-name="uni0464" horiz-adv-x="1571" unicode="Ѥ"/>
<glyph d="M1004 -20q-147 0 -240.5 53.5t-143 156.5t-67.5 250h-119v-440h-332v1133h332v-447h121q17 133 71.5 238.5t153 167t246.5 61.5q82 0 158.5 -21.5t146.5 -64.5l-88 -250q-52 34 -106 51t-111 17q-40 0 -69.5 -22t-49 -66t-28.5 -111h284v-246h-284q9 -62 29.5 -103.5 t52 -62t73.5 -20.5q69 0 137 24.5t132 73.5v-272q-63 -51 -138 -75.5t-161 -24.5z" glyph-name="uni0465" horiz-adv-x="1378" unicode="ѥ"/>
<glyph d="M963 1462l489 -1462h-373l-166 555h-30v-555h-324v555h-31l-166 -555h-372l489 1462h484zM721 1217q-3 -15 -6.5 -29.5t-7 -28.5t-7 -26t-6.5 -23l-86 -279h226l-89 285q-3 10 -6 21.5t-6 24.5t-6 26.5t-6 28.5z" glyph-name="uni0466" horiz-adv-x="1442" unicode="Ѧ"/>
<glyph d="M811 1133l389 -1133h-330l-104 373h-25v-373h-286v373h-23l-106 -373h-330l391 1133h424zM604 928h-8q-5 -28 -10 -50t-10.5 -40.5t-10.5 -36.5l-51 -170h168l-49 172q-5 18 -9.5 36t-9.5 39.5t-10 49.5z" glyph-name="uni0467" horiz-adv-x="1194" unicode="ѧ"/>
<glyph d="M1493 1462l489 -1462h-372l-166 555h-31v-555h-323v555h-31l-166 -555h-367l203 608h-260v-608h-348v1462h348v-555h360l187 555h477zM1251 1217q-3 -15 -6.5 -29.5t-6.5 -28.5t-6.5 -26t-6.5 -23l-86 -279h225l-88 285q-3 10 -6 21.5t-6 24.5t-6.5 26.5t-6.5 28.5z" glyph-name="uni0468" horiz-adv-x="1972" unicode="Ѩ"/>
<glyph d="M1292 1133l387 -1133h-329l-105 373h-22v-373h-287v373h-25l-106 -373h-320l154 449h-205v-449h-332v1133h332v-408h299l139 408h420zM1083 928h-8q-5 -28 -10 -50t-10 -40.5t-11 -36.5l-49 -170h168l-49 172l-10 36t-10 39.5t-11 49.5z" glyph-name="uni0469" horiz-adv-x="1675" unicode="ѩ"/>
<glyph d="M1305 1462v-174l-263 -432q73 -24 121 -67t84.5 -122.5t75.5 -213.5l131 -453h-373l-82 340q-23 102 -39 155.5t-31 76t-38 30.5v-602h-324v602q-21 -7 -35 -25t-29.5 -71t-43.5 -166l-82 -340h-373l133 453q29 99 53 168t52.5 114.5t68.5 74t99 46.5l-250 432v174h1145z M877 1186h-297l145 -299z" glyph-name="uni046A" horiz-adv-x="1458" unicode="Ѫ"/>
<glyph d="M1098 1133v-150l-217 -334q65 -18 111 -56t78.5 -97.5t53.5 -143.5l88 -352h-321l-74 360q-5 27 -14 45t-21 26.5t-26 8.5v-440h-287v438q-15 0 -27 -8t-20.5 -25.5t-13.5 -44.5l-76 -360h-322l82 352q21 85 55 147t81.5 100t107.5 52l-217 332v150h979zM733 901h-250 l125 -215z" glyph-name="uni046B" horiz-adv-x="1223" unicode="ѫ"/>
<glyph d="M1825 1462v-174l-262 -432q73 -24 120.5 -67t84 -122.5t75.5 -213.5l131 -453h-372l-82 340q-23 102 -39.5 155.5t-32 76t-37.5 30.5v-602h-324v602q-21 -7 -35 -25t-29.5 -71t-43.5 -166l-82 -340h-362l114 389q17 56 37 110t49 109h-266v-608h-348v1462h348v-555h430 l-219 381v174h1145zM1397 1186h-297l145 -299z" glyph-name="uni046C" horiz-adv-x="1978" unicode="Ѭ"/>
<glyph d="M1593 1133v-150l-217 -334q65 -18 111 -56t78.5 -97.5t54.5 -143.5l88 -352h-322l-73 360q-6 27 -15 45t-21 26.5t-28 8.5v-440h-286v438q-14 0 -26 -8t-21 -25.5t-15 -44.5l-74 -360h-313l90 373q5 18 11.5 37.5t17.5 38.5h-199v-449h-332v1133h332v-408h348l-168 258 v150h979zM1229 901h-250l125 -215z" glyph-name="uni046D" horiz-adv-x="1718" unicode="ѭ"/>
<glyph d="M754 1794q31 0 57 -3.5t49 -12.5v-187q-10 6 -25.5 9.5t-35.5 3.5q-37 0 -69 -34.5t-71 -105.5q129 -37 201 -128t72 -216q0 -144 -66 -231.5t-198 -116.5v-8q150 -17 228.5 -106.5t78.5 -239.5q0 -104 -36 -185t-97.5 -137.5t-137.5 -86t-157 -29.5q-62 0 -103.5 -8.5 t-61.5 -26.5t-20 -49q0 -48 29 -62t80 -14q48 0 88 2.5t73 5t58 2.5q50 0 84.5 -12t44.5 -31v-270q-13 17 -48 25.5t-91 8.5q-55 0 -98.5 -2t-87.5 -4t-103 -2q-124 0 -207 45t-124.5 126t-41.5 188q0 135 48.5 218.5t135.5 122t204 38.5q106 0 159 38t53 130q0 83 -62 124 t-187 41h-127v295h112q86 2 135.5 14t70.5 43.5t22 90.5q0 63 -39 95t-117 32q-75 0 -137 -26t-115 -77l-127 258q71 56 139.5 87t147.5 44q-20 36 -50.5 84t-65 97.5t-68.5 91.5v29h206q31 -26 65.5 -64t74.5 -86q31 56 68.5 94t84.5 58t105 20z" glyph-name="uni046E" horiz-adv-x="1042" unicode="Ѯ"/>
<glyph d="M676 1374q29 0 56.5 -3t49.5 -11v-178q-10 8 -26.5 10t-36.5 2q-34 0 -61 -19t-50 -57q98 -38 149.5 -109t51.5 -163q0 -91 -45 -157t-125 -91v-10q68 -11 117 -48.5t75.5 -93t26.5 -124.5q0 -102 -44 -179t-134 -120t-229 -43q-50 0 -79.5 -9.5t-42 -28t-12.5 -46.5 q0 -48 26.5 -63t68.5 -15q38 0 72 2.5t67 5t67 2.5q41 0 70.5 -10.5t48.5 -32.5v-279q-12 19 -46 31t-73 12q-32 0 -78.5 -2.5t-92.5 -5t-78 -2.5q-117 0 -199 41t-125 121t-43 197q0 113 43.5 193t124.5 122.5t195 42.5q52 0 87 11t52.5 32.5t17.5 52.5q0 34 -16.5 58.5 t-56 37.5t-109.5 13h-102v241h84q89 0 127 22t38 85q0 37 -27.5 55.5t-84.5 18.5q-51 0 -106.5 -18.5t-114.5 -53.5l-107 250q47 23 87 39.5t75 25.5q-20 35 -43 69t-46.5 66.5t-47.5 61.5v29h207q29 -26 64 -63t75 -87q30 57 67 95t84.5 57.5t106.5 19.5z" glyph-name="uni046F" horiz-adv-x="920" unicode="ѯ"/>
<glyph d="M1489 1462v-497q0 -148 -31.5 -255.5t-96.5 -177t-164 -102.5t-234 -33v-397h-336v397q-139 0 -239 31t-163.5 96.5t-94 168t-30.5 245.5v524h349v-534q0 -89 17 -139.5t56.5 -71.5t104.5 -21v766h336v-766q61 0 100.5 24.5t58.5 74.5t19 127v540h348z" glyph-name="uni0470" horiz-adv-x="1587" unicode="Ѱ"/>
<glyph d="M918 1554v-1280q68 10 106 41t54 95t16 170q0 131 -17.5 269t-52.5 284h324q44 -174 60.5 -301.5t16.5 -258.5q0 -182 -57 -310t-169.5 -198.5t-280.5 -80.5v-476h-324v476q-163 6 -273 60.5t-165.5 169.5t-55.5 302v617h332v-603q0 -85 14.5 -139t50 -82t97.5 -35v1280 h324z" glyph-name="uni0471" horiz-adv-x="1516" unicode="ѱ"/>
<glyph d="M1233 733q0 -184 -37 -324.5t-110 -236t-180.5 -144t-248.5 -48.5q-139 0 -246.5 49t-181.5 144.5t-111.5 236.5t-37.5 325q0 244 66.5 411t195 253t315.5 86q189 0 317 -85t193.5 -252.5t65.5 -414.5zM657 281q63 0 109 35.5t74.5 107t36.5 180.5h-441q9 -109 37 -180.5 t74.5 -107t109.5 -35.5zM657 1190q-61 0 -106.5 -34.5t-74 -103t-38.5 -171.5h436q-13 155 -68 232t-149 77z" glyph-name="uni0472" horiz-adv-x="1313" unicode="Ѳ"/>
<glyph d="M1042 569q0 -184 -58 -316t-167.5 -202.5t-265.5 -70.5q-147 0 -256 72.5t-169 204.5t-60 312q0 277 129.5 430.5t361.5 153.5q147 0 256 -71.5t169 -202.5t60 -310zM555 256q44 0 75 22.5t50.5 66t28.5 106.5h-310q7 -42 23 -87.5t48 -76.5t85 -31zM553 877 q-64 0 -103 -50t-53 -153h314q-5 44 -20.5 91t-48 79.5t-89.5 32.5z" glyph-name="uni0473" horiz-adv-x="1108" unicode="ѳ"/>
<glyph d="M1143 1176q-22 0 -41 -13t-35.5 -48t-34.5 -103l-258 -1012h-405l-369 1462h365l153 -721q12 -53 24 -122t21 -137t12 -120q5 39 13 95t16.5 113.5t15.5 103t11 63.5l78 381q27 125 70 204t106 116t149 37q51 0 91.5 -9t74.5 -26v-279q-15 6 -30 10.5t-27 4.5z" glyph-name="uni0474" horiz-adv-x="1210" unicode="Ѵ"/>
<glyph d="M864 1153q62 0 101.5 -10t62.5 -23v-258q-13 6 -27 10.5t-26 4.5q-17 0 -30.5 -9.5t-23.5 -31t-20 -56.5l-219 -780h-356l-322 1133h344l115 -551q12 -58 21 -114.5t12 -119.5h8q2 53 10.5 111t22.5 121l51 231q30 135 67 209t88 103.5t121 29.5z" glyph-name="uni0475" horiz-adv-x="1047" unicode="ѵ"/>
<glyph d="M1143 1176q-22 0 -41 -13t-35.5 -48t-34.5 -103l-258 -1012h-405l-369 1462h365l153 -721q12 -53 24 -122t21 -137t12 -120q5 39 13 95t16.5 113.5t15.5 103t11 63.5l78 381q27 125 70 204t106 116t149 37q51 0 91.5 -9t74.5 -26v-279q-15 6 -30 10.5t-27 4.5zM713 1899 q10 -24 29 -66t47.5 -100t66.5 -133v-29h-156q-46 36 -91 77.5t-84 83t-67.5 79.5t-41.5 67v21h297zM348 1899q12 -25 31.5 -67.5t47.5 -100t64 -131.5v-29h-170q-32 29 -74 70.5t-83 86.5t-72 84.5t-43 65.5v21h299z" glyph-name="uni0476" horiz-adv-x="1210" unicode="Ѷ"/>
<glyph d="M864 1153q62 0 101.5 -10t62.5 -23v-258q-13 6 -27 10.5t-26 4.5q-17 0 -30.5 -9.5t-23.5 -31t-20 -56.5l-219 -780h-356l-322 1133h344l115 -551q12 -58 21 -114.5t12 -119.5h8q2 53 10.5 111t22.5 121l51 231q30 135 67 209t88 103.5t121 29.5zM637 1569q10 -24 29 -66 t47.5 -100t66.5 -133v-29h-156q-46 36 -91 77.5t-84 83t-67.5 79.5t-41.5 67v21h297zM272 1569q12 -25 31.5 -67.5t47.5 -100t64 -131.5v-29h-170q-32 29 -74 70.5t-83 86.5t-72 84.5t-43 65.5v21h299z" glyph-name="uni0477" horiz-adv-x="1047" unicode="ѷ"/>
<glyph d="M1192 733q0 -184 -35.5 -324.5t-106 -236t-174 -144t-239.5 -48.5q-135 0 -239 49t-175 144.5t-107 236.5t-36 325q0 244 63.5 411t188 253t305.5 86q182 0 305.5 -85t186.5 -252.5t63 -414.5zM442 733q0 -149 22 -249t65.5 -149.5t107.5 -49.5q66 0 108.5 48t63 147.5 t20.5 252.5q0 155 -21 255t-63.5 149t-107.5 49q-64 0 -107.5 -50.5t-65.5 -151t-22 -251.5zM1276 1133h348l119 -492q8 -35 15 -70t12 -65.5t6 -54.5h8q3 34 11 78.5t24 107.5l110 496h344l-342 -1205q-44 -154 -100.5 -246.5t-132.5 -133t-178 -40.5q-40 0 -76 5t-68 12 v291q20 -7 41.5 -10t40.5 -3q41 0 65.5 13.5t44 55t44.5 124.5l6 20z" glyph-name="uni0478" horiz-adv-x="2277" unicode="Ѹ"/>
<glyph d="M989 569q0 -109 -23.5 -213.5t-77.5 -189.5t-142.5 -135.5t-219.5 -50.5q-120 0 -207 49.5t-143 133t-83 189t-27 217.5q0 163 47 295.5t149.5 210.5t267.5 78q138 0 241 -68.5t160.5 -198.5t57.5 -317zM401 565q0 -101 13.5 -170t41.5 -104t72 -35q47 0 74 34.5 t39 104.5t12 174t-12 172t-39 102t-74 34q-66 0 -96.5 -76t-30.5 -236zM1036 1133h348l119 -492q8 -35 15 -70t12 -65.5t6 -54.5h8q3 34 11 78.5t24 107.5l110 496h344l-342 -1205q-44 -154 -100.5 -246.5t-132 -133t-178.5 -40.5q-40 0 -76 5t-68 12v291q20 -7 41.5 -10 t40.5 -3q41 0 65.5 13.5t44 55t44.5 124.5l6 20z" glyph-name="uni0479" horiz-adv-x="2038" unicode="ѹ"/>
<glyph d="M659 -147q-55 0 -99.5 32t-61.5 115q-102 25 -180.5 84.5t-131 152.5t-79.5 218t-27 280q0 204 47 356t140 247.5t229 127.5q15 80 59.5 112t103.5 32q54 0 97.5 -32t58.5 -112q138 -30 231 -124t140 -247t47 -362q0 -156 -26.5 -281t-79.5 -218t-131.5 -152.5 t-182.5 -83.5q-15 -82 -58 -113.5t-96 -31.5zM512 334q26 66 63.5 90.5t83.5 24.5q42 0 82 -27.5t62 -93.5q26 34 43 93t26 138.5t9 173.5q0 140 -19.5 247t-56.5 159q-17 -67 -58 -96t-88 -29q-46 0 -90 27.5t-59 91.5q-25 -37 -42.5 -97t-26.5 -137t-9 -166q0 -90 9 -167 t27 -136.5t44 -95.5z" glyph-name="uni047A" horiz-adv-x="1313" unicode="Ѻ"/>
<glyph d="M1059 569q0 -155 -42.5 -275t-124.5 -196t-200 -102q-15 -69 -48.5 -99t-78.5 -30q-44 0 -81.5 30t-53.5 99q-114 26 -195.5 104.5t-125 198.5t-43.5 270q0 233 95.5 382t268.5 188q14 68 52.5 94.5t82.5 26.5q42 0 79 -27.5t50 -95.5q116 -27 197.5 -105.5t124.5 -197 t43 -265.5zM739 569q0 65 -6 110.5t-17 79t-28 60.5q-13 -55 -48 -81.5t-75 -26.5q-41 0 -75.5 24.5t-53.5 81.5q-26 -44 -38.5 -107t-14.5 -145q-1 -79 13.5 -144t39.5 -104q14 51 51.5 75t77.5 24q38 0 72.5 -24t50.5 -77q28 45 39.5 105.5t11.5 148.5z" glyph-name="uni047B" horiz-adv-x="1124" unicode="ѻ"/>
<glyph d="M573 1935v62q0 81 15.5 136t45 89t72 49t95.5 15q51 0 98 -18.5t94 -43t98.5 -43t112.5 -18.5h21v-228h-13q-57 0 -117.5 16t-114.5 37.5t-92.5 37.5t-51.5 16q-31 0 -47.5 -28.5t-16.5 -78.5h-199zM782 1493v111q63 0 85 14.5t22 34.5q0 29 -19 39t-43.5 17t-43.5 23 t-19 56q0 56 37.5 88.5t103.5 32.5q76 0 118 -49.5t42 -137.5q0 -69 -28 -119.5t-90 -78.5t-165 -31zM555 -20q-153 0 -259 98t-161 276t-55 416q0 161 31.5 291.5t92 224.5t147.5 144.5t198 50.5q80 0 154.5 -32t117.5 -83l-100 -256q-34 35 -66 53.5t-63 18.5 q-37 0 -66.5 -27t-50 -81t-31 -135.5t-10.5 -190.5q0 -149 21 -253.5t61.5 -159t99.5 -54.5q26 0 54 7.5t59 28.5v400h328v-402q29 -18 58 -26t54 -8q59 0 99 53t61 157t21 257q0 109 -10.5 190.5t-30 135.5t-48.5 81t-67 27q-32 0 -65 -18.5t-62 -53.5l-102 256 q44 53 118 84t154 31q111 0 198 -49t147 -142t91 -224.5t31 -295.5q0 -180 -32 -326t-95 -249.5t-156 -159t-215 -55.5q-109 0 -183 31.5t-130 107.5q-60 -74 -144 -106.5t-194 -32.5z" glyph-name="uni047C" horiz-adv-x="1784" unicode="Ѽ"/>
<glyph d="M750 1612q75 0 117 -49.5t42 -137.5q0 -69 -33 -119.5t-100 -78.5t-170 -31v111q63 0 94 14.5t31 34.5q0 29 -18.5 39.5t-43 17t-43 22.5t-18.5 56q0 56 38 88.5t104 32.5zM633 1987q52 0 99.5 -18.5t94.5 -43t98 -43t111 -18.5h23v-228h-15q-47 0 -107.5 16t-118.5 37.5 t-99.5 37.5t-50.5 16q-31 0 -47.5 -28.5t-16.5 -78.5h-196v62q0 68 12 121t38.5 91t69.5 57.5t105 19.5zM481 -20q-106 0 -184.5 38.5t-129.5 115t-76 191t-25 265.5q0 187 46.5 312t140.5 188t236 63q59 0 113 -12t103 -37l-84 -250q-20 11 -41.5 17t-42.5 6 q-71 0 -103.5 -65t-32.5 -222q0 -82 8.5 -144.5t25 -104.5t40 -63.5t53.5 -21.5q11 0 20.5 1.5t18.5 2.5v354h332v-354q6 -1 12.5 -2t12.5 -1.5t12 -0.5q40 0 69 38t44.5 112.5t15.5 183.5q0 157 -32.5 222t-104.5 65q-22 0 -43 -6t-41 -17l-84 250q49 25 103 37t114 12 q142 0 236 -62.5t141 -187.5t47 -313q0 -202 -44.5 -337.5t-137 -204t-236.5 -68.5q-85 0 -144.5 27.5t-103.5 82.5q-50 -57 -114 -83.5t-140 -26.5z" glyph-name="uni047D" horiz-adv-x="1466" unicode="ѽ"/>
<glyph d="M348 0q-77 180 -137.5 362t-103 366t-65.5 367.5t-26 366.5h365q-3 -127 6.5 -264t30 -273.5t50.5 -264t67 -236.5h6q14 78 36.5 158.5t45.5 156.5l84 287q-10 75 -18 146t-12.5 142.5t-4.5 147.5h356q0 -128 9 -259t29 -262.5t54 -261t84 -255.5h6q61 148 103.5 323.5 t66 359.5t25.5 355h356q-15 -223 -62 -469.5t-131.5 -499t-211.5 -493.5h-293q-31 65 -61.5 135.5t-59 141.5t-53.5 139t-45 129l-152 -545h-344zM1319 1850v-127l-82 -172h-71l-50 102h-131l-49 -102h-71l-48 102h-133l-49 -102h-71l-80 172v127h835z" glyph-name="uni047E" horiz-adv-x="1782" unicode="Ѿ"/>
<glyph d="M1491 1133q-8 -195 -52.5 -400.5t-108 -395t-130.5 -337.5h-293q-27 60 -60.5 147.5t-62 177.5t-43.5 154l-145 -479h-299q-67 141 -115 283t-80.5 283.5t-52.5 283.5t-29 283h322q5 -119 20.5 -256t41.5 -269.5t63 -240.5h6q7 24 17.5 59.5t20.5 70.5t17 54l99 283 q-11 83 -17 166.5t-6 132.5h314q5 -125 21 -264.5t43.5 -271.5t66.5 -237h6q32 90 57.5 219t41 274t15.5 280h322zM1175 1520v-127l-82 -172h-71l-50 102h-131l-49 -102h-71l-48 102h-133l-49 -102h-71l-80 172v127h835z" glyph-name="uni047F" horiz-adv-x="1540" unicode="ѿ"/>
<glyph d="M625 1483q97 0 186.5 -25t177.5 -78l-92 -286q-58 41 -117 65.5t-125 24.5q-51 0 -91 -31.5t-67 -91t-41 -144.5t-14 -192q0 -148 25.5 -247t76.5 -148t128 -49q71 0 136.5 27t131.5 65v-828h-338v435q-101 2 -184 34.5t-146 94.5t-105.5 152t-64.5 207t-22 259 q0 169 37.5 308t108.5 239t171.5 154.5t227.5 54.5z" glyph-name="uni0480" horiz-adv-x="1038" unicode="Ҁ"/>
<glyph d="M530 1153q77 0 149.5 -21.5t139.5 -64.5l-88 -264q-46 34 -94 50.5t-98 16.5q-41 0 -72 -36t-48.5 -104.5t-17.5 -168.5q0 -99 16.5 -165.5t49.5 -100t82 -33.5q63 0 123.5 25.5t118.5 74.5v-778h-322v398q-116 5 -193.5 55t-123.5 131.5t-66 183t-20 209.5q0 188 54 320 t158 202t252 70z" glyph-name="uni0481" horiz-adv-x="866" unicode="ҁ"/>
<glyph d="M698 1325l244 -104l-102 -244l215 -92l-105 -236l-209 92l-116 -274l215 -96l-103 -234l-213 92l-108 -256l-246 105l109 256l-232 102l103 234l233 -101l111 277l-232 100l103 236l229 -101z" glyph-name="uni0482" horiz-adv-x="1094" unicode="҂"/>
<glyph d="M-578 1231q-7 -48 -37.5 -67t-80.5 -19q-52 0 -85.5 46t-33.5 107q0 83 40 125.5t120 42.5h297q6 42 37.5 64t78.5 22q60 0 90.5 -37.5t30.5 -111.5q0 -57 -17.5 -95.5t-53 -57.5t-89.5 -19h-297z" glyph-name="uni0483" horiz-adv-x="0" unicode="҃"/>
<glyph d="M-369 1581q53 0 95.5 -15t72 -49t45 -89t15.5 -136v-61h-199q0 49 -16 77.5t-47 28.5q-19 0 -57 -15.5t-89.5 -36.5t-110.5 -37t-120 -17h-13v227h21q61 0 112 18.5t98 43t94 43t99 18.5z" glyph-name="uni0484" horiz-adv-x="0" unicode="҄"/>
<glyph d="M-584 1458q0 88 42.5 137.5t117.5 49.5q66 0 103.5 -34t37.5 -87q0 -40 -19 -57t-43.5 -25t-43.5 -18.5t-19 -37.5q0 -25 31.5 -43.5t116.5 -23.5v-111q-107 3 -179.5 32t-108.5 83.5t-36 134.5z" glyph-name="uni0485" horiz-adv-x="0" unicode="҅"/>
<glyph d="M-258 1458q0 -80 -36 -134.5t-108 -83.5t-180 -32v111q85 5 115.5 23.5t30.5 43.5q0 30 -18.5 40.5t-43 17.5t-43 23t-18.5 57q0 53 37.5 87t103.5 34q74 0 117 -49.5t43 -137.5z" glyph-name="uni0486" horiz-adv-x="0" unicode="҆"/>
<glyph d="M1186 934q5 89 72 148t167 59q105 0 171 -56.5t69 -150.5h-115q-3 34 -27.5 49.5t-97.5 15.5q-58 0 -88.5 -16.5t-33.5 -48.5h-117zM158 -41q5 91 74.5 149t166.5 58q105 0 169.5 -56t70.5 -151h-115q-3 32 -28.5 49t-96.5 17q-56 0 -88.5 -17.5t-34.5 -48.5h-118z M664 -319q5 90 72 148t167 58q106 0 172 -57t70 -149h-117q-3 34 -28 49.5t-97 15.5q-60 0 -90.5 -16.5t-30.5 -48.5h-118zM31 453q5 89 73 147.5t168 58.5q107 0 171.5 -56t68.5 -150h-117q-3 35 -28 50t-95 15q-59 0 -90.5 -16.5t-31.5 -48.5h-119zM156 930q5 89 72 148 t167 59q105 0 171 -56.5t69 -150.5h-115q-3 32 -27.5 48.5t-97.5 16.5q-57 0 -88.5 -17t-34.5 -48h-116zM1186 -41q5 89 73 148t166 59q107 0 172.5 -57.5t69.5 -149.5h-117q-3 34 -27.5 50t-97.5 16q-58 0 -88 -17t-32 -49h-119zM1311 444q5 91 74.5 149t166.5 58 q105 0 169.5 -56t70.5 -151h-115q-3 34 -28.5 50t-96.5 16q-59 0 -90.5 -17t-31.5 -49h-119zM662 1219q5 90 74 148t167 58q106 0 170.5 -56.5t67.5 -149.5h-113q-3 34 -28.5 49.5t-96.5 15.5q-60 0 -91.5 -16.5t-31.5 -48.5h-118z" glyph-name="uni0488" horiz-adv-x="1823" unicode="҈"/>
<glyph d="M1493 1233l117 -115q-92 -57 -167 -106t-130 -92l-146 145l2 18q39 22 99.5 51.5t122 57t102.5 41.5zM483 184l148 -143l-4 -18q-48 -29 -100 -55t-107.5 -50t-116.5 -47l-117 117q97 59 172 107.5t125 88.5zM31 690q109 -26 197.5 -43t152.5 -26v-205l-14 -10 q-82 20 -166 50t-170 70v164zM1036 -35l11 -14q-22 -82 -52.5 -165t-70.5 -171h-164q26 110 44 198t25 152h207zM1360 233l18 -2q22 -38 51 -98.5t56.5 -122t42.5 -102.5l-115 -115q-55 92 -104 166t-92 129zM383 1315q59 -97 108 -172t89 -125l-146 -148l-16 4 q-43 73 -80.5 153t-71.5 171zM1430 700q43 -12 107 -33.5t127 -45.5t101 -43v-162q-106 25 -192.5 42t-157.5 27v203zM1036 1491q-24 -106 -41 -192.5t-28 -157.5h-205l-10 14q11 43 32.5 107t46 126.5t43.5 102.5h162z" glyph-name="uni0489" horiz-adv-x="1796" unicode="҉"/>
<glyph d="M958 -455l152 455h-197v528q0 42 1.5 97.5t5 124t8.5 149.5h-6l-383 -899h-418v1462h338v-524q0 -45 -1.5 -99.5t-4 -118.5t-7.5 -138h7l378 880h420v-1138h230l-146 -779h-377zM684 1569q-122 0 -202.5 41.5t-122.5 124t-50 204.5h256q0 -87 27.5 -131.5t91.5 -44.5 q59 0 89 44.5t34 131.5h256q-10 -122 -56 -204.5t-126.5 -124t-196.5 -41.5z" glyph-name="uni048A" horiz-adv-x="1495" unicode="Ҋ"/>
<glyph d="M838 -416l110 416h-190v354q0 54 2 107t6 107t10 110l-321 -678h-353v1133h318v-336q0 -56 -1.5 -109t-5.5 -110.5t-12 -128.5l322 684h350v-861h199l-121 -688h-313zM590 1231q-123 0 -203.5 41.5t-123 124t-50.5 205.5h258q0 -88 27.5 -132.5t91.5 -44.5 q57 0 87.5 44.5t33.5 132.5h258q-11 -123 -57 -205.5t-126 -124t-196 -41.5z" glyph-name="uni048B" horiz-adv-x="1284" unicode="ҋ"/>
<glyph d="M469 1462v-172h270v-256h-270v-112h8q168 0 285 -49t178 -148t61 -250q0 -224 -133 -349.5t-372 -125.5h-375v1034h-121v256h121v172h348zM477 629h-8v-332h8q89 0 132.5 42t43.5 128q0 53 -17.5 89t-56 54.5t-102.5 18.5z" glyph-name="uni048C" horiz-adv-x="1059" unicode="Ҍ"/>
<glyph d="M434 1556v-190h232v-233h-232v-408h43q151 0 251 -36t150 -113t50 -201q0 -130 -49 -213t-142 -122.5t-225 -39.5h-410v1133h-102v233h102v190h332zM485 479h-51v-233h55q50 0 78.5 29.5t28.5 82.5q0 59 -25.5 90t-85.5 31z" glyph-name="uni048D" horiz-adv-x="975" unicode="ҍ"/>
<glyph d="M1100 997q0 -172 -65.5 -286t-207.5 -179l56 -167l-172 -60l-62 184q-19 -3 -40 -3.5t-44 -0.5h-96v-485h-348v1462h489q246 0 368 -121t122 -344zM469 766h6q22 0 44.5 1.5t35.5 2.5l-61 178l172 58l53 -158q17 38 25 75t8 72q0 91 -47.5 137t-141.5 46h-94v-412z" glyph-name="uni048E" horiz-adv-x="1155" unicode="Ҏ"/>
<glyph d="M639 -14q-41 0 -79.5 21t-70.5 57t-55 81h-10q5 -76 7.5 -130.5t2.5 -86.5v-420h-332v1625h267l49 -146h16q36 64 76.5 100t87.5 51t102 15q179 0 279 -156.5t100 -433.5q0 -208 -57.5 -349t-183.5 -210l49 -145l-170 -58l-62 185h-7h-9zM598 877q-57 0 -93.5 -29 t-53.5 -92t-17 -166v-66q0 -72 11 -123.5t34 -83t58 -45.5q5 -1 10.5 -2.5t11.5 -3.5l-84 252l170 57l76 -221q11 54 16.5 106t5.5 99q0 161 -38 239.5t-107 78.5z" glyph-name="uni048F" horiz-adv-x="1147" unicode="ҏ"/>
<glyph d="M922 1776v-615h-453v-1161h-348v1462h463v314h338z" glyph-name="uni0490" horiz-adv-x="950" unicode="Ґ"/>
<glyph d="M784 1427v-571h-350v-856h-332v1133h361v294h321z" glyph-name="uni0491" horiz-adv-x="799" unicode="ґ"/>
<glyph d="M877 1462v-295h-408v-295h260v-286h-260v-586h-348v586h-107v286h107v590h756z" glyph-name="uni0492" horiz-adv-x="903" unicode="Ғ"/>
<glyph d="M768 1133v-277h-334v-201h205v-272h-205v-383h-332v383h-98v272h98v478h666z" glyph-name="uni0493" horiz-adv-x="799" unicode="ғ"/>
<glyph d="M549 510q-23 0 -42 -1.5t-38 -6.5v-502h-348v1462h756v-295h-408v-376q35 9 73.5 13.5t78.5 4.5q107 0 195.5 -42.5t153.5 -123.5t100.5 -199t35.5 -270q0 -165 -36.5 -289.5t-103.5 -208.5t-159 -126t-203 -42q-50 0 -114 11t-101 24v299q38 -16 78 -25.5t80 -9.5 q50 0 88 25t64 72t39.5 114.5t13.5 151.5q0 113 -23 188.5t-68 113.5t-112 38z" glyph-name="uni0494" horiz-adv-x="1165" unicode="Ҕ"/>
<glyph d="M768 1133v-277h-334v-244q25 5 47 8t41 3q130 0 226.5 -66t150 -184t53.5 -275q0 -187 -46 -319t-137 -201.5t-226 -69.5q-55 0 -106 12.5t-97 35.5v272q26 -22 59.5 -32.5t71.5 -10.5q78 0 114 67t36 224q0 134 -36.5 202t-111.5 68q-9 0 -19.5 -1.5t-19.5 -4.5v-340 h-332v1133h666z" glyph-name="uni0495" horiz-adv-x="1001" unicode="ҕ"/>
<glyph d="M1671 1462l-338 -698l203 -465h199v-754h-338v455h-107l-299 752v-752h-336v752l-301 -752h-377l334 764l-336 698h371l309 -698v698h336v-698l312 698h368z" glyph-name="uni0496" horiz-adv-x="1763" unicode="Җ"/>
<glyph d="M1604 1133l-301 -543l172 -314h186v-692h-324v416h-73l-287 575v-575h-326v575l-286 -575h-365l326 590l-301 543h354l272 -549v549h326v-549l272 549h355z" glyph-name="uni0497" horiz-adv-x="1686" unicode="җ"/>
<glyph d="M932 1120q0 -144 -66 -231.5t-198 -116.5v-8q150 -17 228.5 -106.5t78.5 -239.5q0 -122 -53 -221.5t-170 -158t-310 -58.5q-116 0 -213 18t-176 55v324q42 -29 100.5 -50.5t119.5 -33.5t112 -12q126 0 179.5 38t53.5 130q0 83 -62 124t-187 41h-127v295h112q86 0 136 12 t71 44.5t21 91.5q0 63 -39 95t-117 32q-75 0 -137 -26t-115 -77l-127 258q69 55 135 86t144 44.5t180 13.5q128 0 224 -45.5t149 -127t53 -190.5zM438 -199q0 44 -19.5 82.5t-82.5 116.5h197q86 -66 121.5 -128.5t35.5 -131.5q0 -109 -64 -170.5t-183 -61.5q-40 0 -79.5 7 t-74.5 20v221q15 -9 41.5 -15.5t48.5 -6.5q29 0 44 16.5t15 50.5z" glyph-name="uni0498" horiz-adv-x="1059" unicode="Ҙ"/>
<glyph d="M403 1153q117 0 204.5 -38t135.5 -107t48 -162q0 -91 -45 -157t-125 -91v-10q69 -11 118.5 -48.5t76 -93t26.5 -124.5q0 -100 -49.5 -177.5t-145 -121t-233.5 -43.5q-70 0 -129.5 7t-114 24t-111.5 48v285q71 -43 147 -65.5t148 -22.5q51 0 84.5 11t50.5 32.5t17 52.5 q0 34 -16.5 58.5t-56 37.5t-109.5 13h-105v241h84q91 0 129.5 22t38.5 85q0 37 -27.5 55.5t-81.5 18.5q-47 0 -99 -18.5t-107 -53.5l-107 250q100 56 183.5 74t170.5 18zM368 -199q0 44 -19.5 82.5t-82.5 116.5h197q86 -66 121.5 -128.5t35.5 -131.5q0 -109 -64 -170.5 t-183 -61.5q-40 0 -79.5 7t-74.5 20v221q15 -9 41.5 -15.5t48.5 -6.5q29 0 44 16.5t15 50.5z" glyph-name="uni0499" horiz-adv-x="903" unicode="ҙ"/>
<glyph d="M1155 1462l-340 -676l205 -487h197v-754h-338v455h-115l-295 776v-776h-348v1462h348v-657l311 657h375z" glyph-name="uni049A" horiz-adv-x="1247" unicode="Қ"/>
<glyph d="M799 -416v416h-82l-283 575v-575h-332v1133h332v-549l275 549h354l-301 -543l172 -314h186v-692h-321z" glyph-name="uni049B" horiz-adv-x="1145" unicode="қ"/>
<glyph d="M668 61h-133v1344h133v-1344zM1149 0h-385l-295 760v-760h-348v1462h348v-686l311 686h375l-352 -694z" glyph-name="uni049C" horiz-adv-x="1130" unicode="Ҝ"/>
<glyph d="M594 1083v-1036h-105v1036h105zM709 1133h354l-301 -543l325 -590h-364l-289 575v-575h-332v1133h332v-549z" glyph-name="uni049D" horiz-adv-x="1087" unicode="ҝ"/>
<glyph d="M14 1108v246h545v-246h-545zM1149 0h-385l-295 760v-760h-348v1462h348v-686l311 686h375l-352 -694z" glyph-name="uni049E" horiz-adv-x="1130" unicode="Ҟ"/>
<glyph d="M434 1556v-131h232v-231h-232v-610l275 549h354l-301 -543l325 -590h-364l-289 575v-575h-332v1194h-102v231h102v131h332z" glyph-name="uni049F" horiz-adv-x="1087" unicode="ҟ"/>
<glyph d="M1309 1462l-353 -694l347 -768h-385l-295 760v-760h-349v1161h-239v301h588v-686l311 686h375z" glyph-name="uni04A0" horiz-adv-x="1284" unicode="Ҡ"/>
<glyph d="M1225 1133l-301 -543l325 -590h-364l-287 575v-575h-334v856h-233v277h567v-549l272 549h355z" glyph-name="uni04A1" horiz-adv-x="1249" unicode="ҡ"/>
<glyph d="M979 -455v455h-201v610h-309v-610h-348v1462h348v-553h309v553h348v-1163h191v-754h-338z" glyph-name="uni04A2" horiz-adv-x="1348" unicode="Ң"/>
<glyph d="M803 -416v416h-152v440h-217v-440h-332v1133h332v-414h217v414h332v-857h141v-692h-321z" glyph-name="uni04A3" horiz-adv-x="1151" unicode="ң"/>
<glyph d="M121 0v1462h348v-553h309v553h588v-301h-240v-1161h-348v610h-309v-610h-348z" glyph-name="uni04A4" horiz-adv-x="1403" unicode="Ҥ"/>
<glyph d="M102 0v1133h332v-414h217v414h568v-277h-236v-856h-332v440h-217v-440h-332z" glyph-name="uni04A5" horiz-adv-x="1249" unicode="ҥ"/>
<glyph d="M1087 1462v-671q38 9 76 13.5t76 4.5q108 0 197 -42.5t153.5 -123.5t99.5 -199t35 -270q0 -165 -36.5 -289.5t-103.5 -208.5t-158.5 -126t-202.5 -42q-51 0 -114.5 11t-100.5 24v299q38 -16 77.5 -25.5t79.5 -9.5q50 0 88 25t64 72t39.5 114.5t13.5 151.5t-12.5 148 t-38 106.5t-63.5 64t-89 21.5q-21 0 -41 -1.5t-39 -6.5v-502h-348v1161h-270v-1161h-348v1462h966z" glyph-name="uni04A6" horiz-adv-x="1784" unicode="Ҧ"/>
<glyph d="M975 1133v-521q23 5 44.5 8t43.5 3q130 0 226 -66t149 -184t53 -275q0 -187 -45.5 -319t-136.5 -201.5t-228 -69.5q-53 0 -104.5 12.5t-97.5 35.5v272q26 -22 59.5 -32.5t73.5 -10.5q77 0 112 67t35 224q0 134 -35.5 202t-109.5 68q-11 0 -21 -1.5t-18 -4.5v-340h-334 v856h-207v-856h-332v1133h873z" glyph-name="uni04A7" horiz-adv-x="1540" unicode="ҧ"/>
<glyph d="M1335 678q0 -83 -20 -162.5t-63.5 -156t-116.5 -150.5q21 -7 54.5 -11.5t59.5 -4.5q34 0 66 6t61 16v-274q-14 -6 -46 -12t-70 -9.5t-72 -3.5q-100 0 -184 25.5t-150 74.5q-40 -18 -93 -27t-116 -9q-130 0 -228.5 50t-165 145t-99.5 230t-33 306q0 253 57.5 425.5 t170 260.5t278.5 88q58 0 130 -14.5t109 -32.5l-73 -281q-34 14 -65 21.5t-62 7.5q-44 0 -79.5 -29.5t-61 -88t-39 -145t-13.5 -200.5q0 -143 18.5 -242.5t53 -150.5t82.5 -51q20 0 35 1.5t22 4.5q-26 50 -46.5 114t-32 131.5t-11.5 128.5q0 105 24.5 186t72 137t116.5 85 t158 29q120 0 203 -48.5t126 -142t43 -227.5zM1024 668q0 50 -6 83.5t-19 50.5t-34 17q-14 0 -25.5 -9t-20 -28t-13.5 -49.5t-5 -73.5q0 -42 4.5 -86t16 -88.5t30.5 -87.5q25 39 40.5 82t23.5 90.5t8 98.5z" glyph-name="uni04A8" horiz-adv-x="1427" unicode="Ҩ"/>
<glyph d="M508 1153q50 0 98.5 -12t95.5 -37l-67 -260q-28 14 -56.5 23.5t-48.5 9.5q-69 0 -103 -87.5t-34 -224.5q0 -92 16.5 -162t46.5 -109.5t70 -39.5q5 0 10.5 1t6.5 1q-22 44 -34.5 108t-12.5 144q0 107 34 183.5t101.5 117.5t167.5 41q99 0 171 -41.5t111 -117.5t39 -181 q0 -88 -24.5 -162.5t-110.5 -169.5q3 0 15.5 -1t21.5 -1q26 0 55.5 7t57.5 18v-238q-36 -16 -78.5 -24.5t-89.5 -8.5q-76 0 -143.5 20t-127.5 60q-41 -15 -93.5 -22.5t-117.5 -7.5q-132 0 -225.5 70t-143.5 201.5t-50 315.5q0 141 29 250t85.5 184t139 113.5t188.5 38.5z M801 604q-18 0 -30.5 -13t-19 -38.5t-6.5 -63.5q0 -43 11.5 -88t34.5 -79q30 21 46.5 69t16.5 105q0 35 -6 59t-17.5 36.5t-29.5 12.5z" glyph-name="uni04A9" horiz-adv-x="1194" unicode="ҩ"/>
<glyph d="M655 1184q-51 0 -91 -31.5t-67 -91t-41 -144.5t-14 -192q0 -148 25.5 -247t76.5 -148t128 -49q71 0 136.5 27t131.5 65v-312q-70 -41 -151.5 -61t-172.5 -20q-174 0 -293.5 86t-181 253t-61.5 408q0 169 37.5 308t108.5 239t171.5 154.5t227.5 54.5q97 0 186.5 -25 t177.5 -78l-92 -286q-58 41 -117 65.5t-125 24.5zM589 -199q0 44 -19.5 82.5t-82.5 116.5h197q86 -66 121.5 -128.5t35.5 -131.5q0 -109 -64 -170.5t-183 -61.5q-40 0 -79.5 7t-74.5 20v221q15 -9 41.5 -15.5t48.5 -6.5q29 0 44 16.5t15 50.5z" glyph-name="uni04AA" horiz-adv-x="1038" unicode="Ҫ"/>
<glyph d="M520 -20q-152 0 -253 61.5t-151 190.5t-50 329q0 165 47.5 299t149.5 213.5t263 79.5q94 0 170.5 -21.5t143.5 -64.5l-88 -264q-51 34 -101 50.5t-102 16.5q-45 0 -78 -36t-51.5 -104.5t-18.5 -168.5q0 -99 18 -165.5t52.5 -100t85.5 -33.5q65 0 129 25.5t125 74.5v-282 q-61 -51 -133.5 -75.5t-157.5 -24.5zM475 -199q0 44 -19.5 82.5t-82.5 116.5h197q86 -66 121.5 -128.5t35.5 -131.5q0 -109 -64 -170.5t-183 -61.5q-40 0 -79.5 7t-74.5 20v221q15 -9 41.5 -15.5t48.5 -6.5q29 0 44 16.5t15 50.5z" glyph-name="uni04AB" horiz-adv-x="887" unicode="ҫ"/>
<glyph d="M498 -455v455h-199v1161h-264v301h872v-301h-262v-862h191v-754h-338z" glyph-name="uni04AC" horiz-adv-x="942" unicode="Ҭ"/>
<glyph d="M897 1133v-277h-266v-580h139v-692h-321v416h-150v856h-268v277h866z" glyph-name="uni04AD" horiz-adv-x="928" unicode="ҭ"/>
<glyph d="M541 930l178 532h358l-364 -901v-561h-348v549l-365 913h362z" glyph-name="uni04AE" horiz-adv-x="1077" unicode="Ү"/>
<glyph d="M668 -492h-332v492l-332 1133h344l131 -613q8 -34 12 -67.5t7 -65.5h6q0 28 4.5 60.5t11.5 72.5l137 613h344l-333 -1133v-492z" glyph-name="uni04AF" horiz-adv-x="1006" unicode="ү"/>
<glyph d="M365 0v256h-250v287h250v6l-365 913h373l168 -512l168 512h368l-364 -901v-18h250v-287h-250v-256h-348z" glyph-name="uni04B0" horiz-adv-x="1077" unicode="Ұ"/>
<glyph d="M1001 1133l-333 -1133h235v-266h-235v-226h-332v226h-236v266h236l-332 1133h344l131 -613q8 -34 12 -67.5t7 -65.5h6q0 28 4.5 60.5t11.5 72.5l137 613h344z" glyph-name="uni04B1" horiz-adv-x="1006" unicode="ұ"/>
<glyph d="M840 -455v455h-115l-170 422l-182 -422h-377l352 731l-332 731h371l154 -405l141 405h381l-320 -719l218 -444h217v-754h-338z" glyph-name="uni04B2" horiz-adv-x="1206" unicode="Ҳ"/>
<glyph d="M733 -416v416h-100l-129 334l-131 -334h-363l283 578l-277 555h371l117 -308l117 308h370l-270 -555l147 -302h187v-692h-322z" glyph-name="uni04B3" horiz-adv-x="1079" unicode="ҳ"/>
<glyph d="M1155 -455v455h-866v1161h-254v301h842v-301h-240v-862h319v1163h349v-1163h188v-754h-338z" glyph-name="uni04B4" horiz-adv-x="1524" unicode="Ҵ"/>
<glyph d="M1053 -416v416h-774v856h-248v277h786v-277h-207v-580h291v857h334v-857h139v-692h-321z" glyph-name="uni04B5" horiz-adv-x="1401" unicode="ҵ"/>
<glyph d="M1042 1462v-1163h191v-754h-338v455h-201v530q-85 -38 -162 -57.5t-145 -19.5q-139 0 -218 103.5t-79 287.5v618h348v-510q0 -107 22 -152.5t72 -45.5q32 0 73.5 14t88.5 43v651h348z" glyph-name="uni04B6" horiz-adv-x="1264" unicode="Ҷ"/>
<glyph d="M977 1133v-857h139v-692h-321v416h-152v412q-73 -42 -139 -63t-123 -21q-158 0 -233.5 94.5t-75.5 292.5v418h331v-410q0 -60 18.5 -89.5t55.5 -29.5q32 0 74.5 13.5t91.5 37.5v478h334z" glyph-name="uni04B7" horiz-adv-x="1143" unicode="ҷ"/>
<glyph d="M1116 1462v-1462h-348v516q-25 -13 -47.5 -24t-44.5 -19v-291h-146v273q-126 0 -211 22t-135.5 69t-72 121t-21.5 177v618h348v-510q0 -94 21 -140.5t71 -55.5v348h146v-344q22 6 44.5 15t47.5 22v665h348z" glyph-name="uni04B8" horiz-adv-x="1237" unicode="Ҹ"/>
<glyph d="M1047 1133v-1133h-332v412q-23 -11 -44.5 -21t-41.5 -18v-246h-140v207q-18 -3 -36 -4.5t-35 -1.5q-177 0 -261.5 94.5t-84.5 292.5v418h331v-410q0 -57 21.5 -86.5t64.5 -32.5v256h140v-233q20 5 41.5 12t44.5 16v478h332z" glyph-name="uni04B9" horiz-adv-x="1149" unicode="ҹ"/>
<glyph d="M121 1462h348v-530q86 43 162 60.5t143 17.5q140 0 219.5 -97.5t79.5 -294.5v-618h-348v510q0 116 -22 157.5t-72 41.5q-32 0 -73.5 -14.5t-88.5 -43.5v-651h-348v1462z" glyph-name="uni04BA" horiz-adv-x="1163" unicode="Һ"/>
<glyph d="M434 1556v-284q0 -70 -6 -140.5t-20 -138.5h18q23 54 57 89.5t81.5 53t107.5 17.5q98 0 167.5 -49t106.5 -142t37 -225v-737h-332v631q0 113 -21.5 170t-66.5 57q-54 0 -81.5 -36t-37.5 -111.5t-10 -192.5v-518h-332v1556h332z" glyph-name="uni04BB" unicode="һ"/>
<glyph d="M903 1485q167 0 285.5 -86t181 -254.5t62.5 -415.5v-106h-707q5 -97 29.5 -173.5t78 -120.5t146.5 -44q60 0 119.5 10t126.5 34.5t147 67.5v-315q-103 -52 -211 -77t-221 -25q-179 0 -303 73t-192.5 216t-82.5 354h-124q-121 0 -184.5 64t-63.5 190q0 52 12 104t37 102 h250q-11 -35 -17 -65.5t-6 -56.5q0 -37 14.5 -54.5t55.5 -17.5h31q15 146 59 257t113 186.5t161 114t203 38.5zM905 1194q-39 0 -70 -19t-54 -57t-36.5 -95t-17.5 -134h356q-6 154 -53.5 229.5t-124.5 75.5z" glyph-name="uni04BC" horiz-adv-x="1511" unicode="Ҽ"/>
<glyph d="M782 1151q137 0 232.5 -60t145.5 -175t50 -281v-174h-538q0 -114 46 -165.5t144 -51.5q80 0 147.5 20t143.5 68v-271q-72 -43 -156 -62t-184 -19q-111 0 -194 31.5t-139.5 92.5t-88.5 150.5t-41 206.5q-144 0 -222 21t-108 71.5t-30 138.5q0 48 12 95.5t37 93.5h240 q-13 -32 -18 -60t-5 -51q0 -47 16 -61.5t62 -14.5h18q17 148 71 249.5t144 154.5t215 53zM791 895q-51 0 -85 -45t-34 -156h233q0 72 -14 116.5t-39.5 64.5t-60.5 20z" glyph-name="uni04BD" horiz-adv-x="1268" unicode="ҽ"/>
<glyph d="M903 1485q167 0 285.5 -86t181 -254.5t62.5 -415.5v-106h-707q5 -97 29.5 -173.5t78 -120.5t146.5 -44q60 0 119.5 10t126.5 34.5t147 67.5v-315q-66 -34 -134.5 -55.5t-139.5 -32.5v-449h-338v457q-122 33 -206.5 114t-132 208t-59.5 299h-124q-121 0 -184.5 64 t-63.5 190q0 52 12 104t37 102h250q-11 -35 -17 -65.5t-6 -56.5q0 -37 14.5 -54.5t55.5 -17.5h31q15 146 59 257t113 186.5t161 114t203 38.5zM905 1194q-39 0 -70 -19t-54 -57t-36.5 -95t-17.5 -134h356q-6 154 -53.5 229.5t-124.5 75.5z" glyph-name="uni04BE" horiz-adv-x="1511" unicode="Ҿ"/>
<glyph d="M637 4q-89 29 -149.5 90t-94 153.5t-43.5 213.5q-144 0 -222 21t-108 71.5t-30 138.5q0 48 12 95.5t37 93.5h240q-13 -32 -18 -60t-5 -51q0 -43 14 -59.5t56 -16.5h26q17 148 71 249.5t144 154.5t215 53q137 0 232.5 -60t145.5 -175t50 -281v-174h-538q0 -114 46 -165.5 t144 -51.5q80 0 147.5 20t143.5 68v-271q-44 -25 -92.5 -43t-102.5 -26v-408h-321v420zM791 895q-51 0 -85 -45t-34 -156h233q0 72 -14 116.5t-39.5 64.5t-60.5 20z" glyph-name="uni04BF" horiz-adv-x="1268" unicode="ҿ"/>
<glyph d="M121 0v1462h348v-1462h-348z" glyph-name="uni04C0" horiz-adv-x="590" unicode="Ӏ"/>
<glyph d="M311 764l-336 698h371l309 -698v698h336v-698l312 698h368l-338 -698l334 -764h-377l-299 752v-752h-336v752l-301 -752h-377zM1202 1932q-10 -123 -55.5 -205.5t-126 -124t-196.5 -41.5q-122 0 -202.5 41.5t-123 124t-49.5 205.5h256q0 -97 27 -146t92 -49q56 0 86.5 49 t33.5 146h258z" glyph-name="uni04C1" horiz-adv-x="1649" unicode="Ӂ"/>
<glyph d="M1604 1133l-301 -543l325 -590h-364l-287 575v-575h-326v575l-286 -575h-365l326 590l-301 543h354l272 -549v549h326v-549l272 549h355zM1194 1602q-10 -123 -55.5 -205.5t-126 -124t-196.5 -41.5q-122 0 -202.5 41.5t-123 124t-49.5 205.5h256q0 -97 27 -146t92 -49 q56 0 86.5 49t33.5 146h258z" glyph-name="uni04C2" horiz-adv-x="1628" unicode="ӂ"/>
<glyph d="M1155 1462l-369 -686q5 0 14.5 -1t16.5 -3q70 -14 138.5 -54t125 -112.5t90 -181t33.5 -258.5q0 -163 -37 -286t-104.5 -206t-159.5 -124.5t-201 -41.5q-50 0 -113.5 11t-101.5 24v299q39 -16 78.5 -25.5t79.5 -9.5q50 0 88 25t64 72t39.5 114.5t13.5 151.5t-17 150 t-51 111.5t-86 69t-121 23.5q-28 0 -54.5 -1.5t-51.5 -6.5v-516h-348v1462h348v-667q19 38 36 81.5t36 81.5l239 504h375z" glyph-name="uni04C3" horiz-adv-x="1266" unicode="Ӄ"/>
<glyph d="M1071 86q0 -183 -46.5 -312.5t-137.5 -197.5t-223 -68q-55 0 -106.5 12.5t-98.5 35.5v272q26 -22 59.5 -32.5t73.5 -10.5q51 0 83.5 29t48 93.5t15.5 168.5q0 89 -18.5 152.5t-57 97.5t-100.5 34q-35 0 -67.5 -6t-61.5 -18v-336h-332v1133h332v-519l275 519h354 l-307 -525q101 -27 171.5 -100.5t107 -181.5t36.5 -240z" glyph-name="uni04C4" horiz-adv-x="1122" unicode="ӄ"/>
<glyph d="M1128 324h230l-146 -779h-376l151 455h-207v1139h-174q-7 -118 -19.5 -250t-27 -256.5t-29.5 -221t-28 -141.5q-30 -103 -69.5 -166.5t-101 -92.5t-157.5 -31q-51 0 -89.5 6t-64.5 16v291q20 -9 39 -14t35 -5q28 0 46.5 18.5t32.5 62t26 116.5q7 49 19.5 153t27.5 242.5 t29.5 292.5t25.5 303h827v-1138z" glyph-name="uni04C5" horiz-adv-x="1372" unicode="Ӆ"/>
<glyph d="M1014 272h196l-118 -688h-316l111 416h-205v842h-143q-18 -246 -41.5 -412t-62 -265t-100.5 -142t-157 -43q-44 0 -83.5 7.5t-74.5 22.5v275q13 -10 29.5 -14.5t36.5 -4.5q26 0 46 31.5t35 97t27.5 168t22.5 244.5t19 326h778v-861z" glyph-name="uni04C6" horiz-adv-x="1223" unicode="ӆ"/>
<glyph d="M1126 1462v-1349q0 -198 -47.5 -324.5t-142.5 -187t-238 -60.5q-44 0 -86.5 5t-83.5 16v295q25 -10 52.5 -15.5t58.5 -5.5q75 0 107 59t32 201v514h-309v-610h-348v1462h348v-553h309v553h348z" glyph-name="uni04C7" horiz-adv-x="1247" unicode="Ӈ"/>
<glyph d="M983 1133v-1225q0 -124 -40 -213.5t-116 -138t-186 -48.5q-35 0 -89.5 8t-82.5 17v281q25 -10 47.5 -14.5t44.5 -4.5q47 0 68.5 32.5t21.5 96.5v516h-217v-440h-332v1133h332v-414h217v414h332z" glyph-name="uni04C8" horiz-adv-x="1087" unicode="ӈ"/>
<glyph d="M1126 324h232l-146 -779h-378l153 455h-209v610h-309v-610h-348v1462h348v-553h309v553h348v-1138z" glyph-name="uni04C9" horiz-adv-x="1372" unicode="Ӊ"/>
<glyph d="M102 0v1133h332v-414h217v414h332v-861h199l-119 -688h-315l110 416h-207v440h-217v-440h-332z" glyph-name="uni04CA" horiz-adv-x="1194" unicode="ӊ"/>
<glyph d="M1042 0h-198v-455h-338v754h188v231q-85 -38 -162 -57.5t-145 -19.5q-139 0 -218 103.5t-79 287.5v618h348v-510q0 -107 22 -152.5t72 -45.5q32 0 73.5 14t88.5 43v651h348v-1462z" glyph-name="uni04CB" horiz-adv-x="1163" unicode="Ӌ"/>
<glyph d="M977 1133v-1133h-152v-416h-321v692h139v166q-73 -43 -139 -63.5t-123 -20.5q-158 0 -233.5 94.5t-75.5 292.5v388h331v-381q0 -58 18.5 -87.5t55.5 -29.5q32 0 74.5 12t91.5 37v449h334z" glyph-name="uni04CC" horiz-adv-x="1079" unicode="ӌ"/>
<glyph d="M690 0l-252 983h-8q4 -50 7 -97t5 -90.5t3 -83.5t1 -77v-635h-325v1462h477l227 -878h6l228 878h473v-1138h229l-143 -779h-379l154 455h-195v641q0 41 1 82t3 83t4.5 86t5.5 91h-8l-256 -983h-258z" glyph-name="uni04CD" horiz-adv-x="1778" unicode="Ӎ"/>
<glyph d="M1524 272l-121 -688h-316l111 416h-186v465q0 75 3.5 150.5t12.5 150.5h-8l-195 -766h-227l-195 766h-8q8 -75 11.5 -150.5t3.5 -150.5v-465h-308v1133h463l148 -615l151 615h461v-861h199z" glyph-name="uni04CE" horiz-adv-x="1536" unicode="ӎ"/>
<glyph d="M121 0v1462h348v-1462h-348z" glyph-name="uni04CF" horiz-adv-x="590" unicode="ӏ"/>
<glyph d="M803 0l-55 285h-316l-55 -285h-377l356 1462h459l361 -1462h-373zM694 584l-59 327q-10 55 -18.5 107t-15 99.5t-11.5 88.5q-4 -39 -10.5 -86t-15.5 -98.5t-19 -106.5l-62 -331h211zM968 1932q-10 -123 -55.5 -205.5t-126 -124t-196.5 -41.5q-122 0 -202.5 41.5t-123 124 t-49.5 205.5h256q0 -97 27 -146t92 -49q56 0 86.5 49t33.5 146h258z" glyph-name="uni04D0" horiz-adv-x="1176" unicode="Ӑ"/>
<glyph d="M545 1153q169 0 267.5 -101t98.5 -309v-743h-239l-56 150h-6q-36 -57 -76.5 -95t-92 -56.5t-122.5 -18.5q-97 0 -156 53t-85.5 137t-26.5 176q0 182 97.5 272t283.5 97l148 6v29q0 69 -26.5 104t-82.5 35q-49 0 -108.5 -20.5t-135.5 -63.5l-86 246q83 49 185 75.5 t219 26.5zM580 506l-62 -4q-67 -3 -101 -38.5t-34 -103.5q0 -58 20 -87t60 -29q49 0 83 44.5t34 117.5v100zM899 1602q-10 -123 -55.5 -205.5t-126 -124t-196.5 -41.5q-122 0 -202.5 41.5t-123 124t-49.5 205.5h256q0 -97 27 -146t92 -49q56 0 86.5 49t33.5 146h258z" glyph-name="uni04D1" horiz-adv-x="1012" unicode="ӑ"/>
<glyph d="M803 0l-55 285h-316l-55 -285h-377l356 1462h459l361 -1462h-373zM694 584l-59 327q-10 55 -18.5 107t-15 99.5t-11.5 88.5q-4 -39 -10.5 -86t-15.5 -98.5t-19 -106.5l-62 -331h211zM242 1743q0 75 39.5 116.5t105.5 41.5q69 0 109.5 -43t40.5 -115q0 -70 -40.5 -113 t-109.5 -43q-66 0 -105.5 41.5t-39.5 114.5zM637 1743q0 75 40.5 116.5t107.5 41.5q71 0 110 -43t39 -115q0 -70 -39 -113t-110 -43q-70 0 -109 42t-39 114z" glyph-name="uni04D2" horiz-adv-x="1176" unicode="Ӓ"/>
<glyph d="M545 1153q169 0 267.5 -101t98.5 -309v-743h-239l-56 150h-6q-36 -57 -76.5 -95t-92 -56.5t-122.5 -18.5q-97 0 -156 53t-85.5 137t-26.5 176q0 182 97.5 272t283.5 97l148 6v29q0 69 -26.5 104t-82.5 35q-49 0 -108.5 -20.5t-135.5 -63.5l-86 246q83 49 185 75.5 t219 26.5zM580 506l-62 -4q-67 -3 -101 -38.5t-34 -103.5q0 -58 20 -87t60 -29q49 0 83 44.5t34 117.5v100zM172 1413q0 75 39.5 116.5t105.5 41.5q69 0 109.5 -43t40.5 -115q0 -70 -40.5 -113t-109.5 -43q-66 0 -105.5 41.5t-39.5 114.5zM567 1413q0 75 40.5 116.5 t107.5 41.5q71 0 110 -43t39 -115q0 -70 -39 -113t-110 -43q-70 0 -109 42t-39 114z" glyph-name="uni04D3" horiz-adv-x="1012" unicode="ӓ"/>
<glyph d="M1436 0h-701v285h-284l-80 -285h-381l452 1462h994v-295h-359v-264h330v-295h-330v-309h359v-299zM530 584h205v583h-51z" glyph-name="uni04D4" horiz-adv-x="1518" unicode="Ӕ"/>
<glyph d="M1008 1151q136 0 229.5 -60t141.5 -175t48 -281v-174h-538q0 -114 46 -165.5t144 -51.5q80 0 147.5 20t143.5 68v-271q-72 -43 -152 -62t-178 -19q-75 0 -145 18.5t-127 57.5t-94 100q-44 -58 -94 -97.5t-106.5 -59t-121.5 -19.5q-108 0 -174 53t-96.5 137t-30.5 176 q0 121 43.5 201t128.5 121.5t209 46.5l148 6v29q0 69 -26.5 104t-82.5 35q-49 0 -108.5 -20.5t-135.5 -63.5l-86 246q80 50 174.5 76t188.5 26q86 0 147 -24.5t101 -73.5q47 47 109 71.5t147 24.5zM580 506l-62 -4q-67 -3 -101 -38.5t-34 -103.5q0 -58 20 -87t60 -29 q33 0 59.5 20.5t42 57t15.5 84.5v100zM1008 895q-51 0 -85 -45t-34 -156h233q0 72 -14 116.5t-39.5 64.5t-60.5 20z" glyph-name="uni04D5" horiz-adv-x="1485" unicode="ӕ"/>
<glyph d="M825 0h-704v1462h704v-295h-356v-264h330v-295h-330v-309h356v-299zM841 1932q-10 -123 -55.5 -205.5t-126 -124t-196.5 -41.5q-122 0 -202.5 41.5t-123 124t-49.5 205.5h256q0 -97 27 -146t92 -49q56 0 86.5 49t33.5 146h258z" glyph-name="uni04D6" horiz-adv-x="907" unicode="Ӗ"/>
<glyph d="M504 1151q135 0 231 -60t146.5 -175t50.5 -281v-174h-541q0 -114 47.5 -165.5t145.5 -51.5q78 0 145 20t145 68v-271q-73 -43 -157 -62t-182 -19q-164 0 -267.5 66.5t-152.5 196.5t-49 318q0 190 49.5 321.5t147 200t241.5 68.5zM512 895q-52 0 -86.5 -45t-34.5 -156h234 q0 72 -14 116.5t-39.5 64.5t-59.5 20zM886 1602q-10 -123 -55.5 -205.5t-126 -124t-196.5 -41.5q-122 0 -202.5 41.5t-123 124t-49.5 205.5h256q0 -97 27 -146t92 -49q56 0 86.5 49t33.5 146h258z" glyph-name="uni04D7" horiz-adv-x="987" unicode="ӗ"/>
<glyph d="M532 1180q-59 0 -119 -10.5t-127.5 -35t-148.5 -67.5v317q70 34 141.5 56.5t145 33.5t147.5 11q145 0 254 -48t181.5 -143t108.5 -235.5t36 -325.5q0 -184 -37.5 -324.5t-109 -236t-172 -144t-226.5 -48.5q-166 0 -283.5 86.5t-180 255t-62.5 413.5v107h706 q-6 97 -30 173.5t-77 120.5t-147 44zM606 270q53 0 90.5 34t59 102t26.5 169h-354q3 -101 26 -169t62 -102t90 -34z" glyph-name="uni04D8" horiz-adv-x="1231" unicode="Ә"/>
<glyph d="M453 1151q164 0 267.5 -67t152.5 -196.5t49 -318.5t-49.5 -320.5t-147 -200t-242.5 -68.5q-135 0 -230.5 60t-146.5 175t-51 281v174h541q0 113 -47 165t-146 52q-78 0 -145 -20.5t-145 -67.5v270q74 43 158 62.5t182 19.5zM596 436h-234q0 -71 14.5 -115.5t40 -64.5 t58.5 -20q53 0 87 45t34 155z" glyph-name="uni04D9" horiz-adv-x="987" unicode="ә"/>
<glyph d="M532 1180q-59 0 -119 -10.5t-127.5 -35t-148.5 -67.5v317q70 34 141.5 56.5t145 33.5t147.5 11q145 0 254 -48t181.5 -143t108.5 -235.5t36 -325.5q0 -184 -37.5 -324.5t-109 -236t-172 -144t-226.5 -48.5q-166 0 -283.5 86.5t-180 255t-62.5 413.5v107h706 q-6 97 -30 173.5t-77 120.5t-147 44zM606 270q53 0 90.5 34t59 102t26.5 169h-354q3 -101 26 -169t62 -102t90 -34zM238 1743q0 75 39.5 116.5t105.5 41.5q69 0 109.5 -43t40.5 -115q0 -70 -40.5 -113t-109.5 -43q-66 0 -105.5 41.5t-39.5 114.5zM633 1743q0 75 40.5 116.5 t107.5 41.5q71 0 110 -43t39 -115q0 -70 -39 -113t-110 -43q-70 0 -109 42t-39 114z" glyph-name="uni04DA" horiz-adv-x="1231" unicode="Ӛ"/>
<glyph d="M453 1151q164 0 267.5 -67t152.5 -196.5t49 -318.5t-49.5 -320.5t-147 -200t-242.5 -68.5q-135 0 -230.5 60t-146.5 175t-51 281v174h541q0 113 -47 165t-146 52q-78 0 -145 -20.5t-145 -67.5v270q74 43 158 62.5t182 19.5zM596 436h-234q0 -71 14.5 -115.5t40 -64.5 t58.5 -20q53 0 87 45t34 155zM129 1413q0 75 39.5 116.5t105.5 41.5q69 0 109.5 -43t40.5 -115q0 -70 -40.5 -113t-109.5 -43q-66 0 -105.5 41.5t-39.5 114.5zM524 1413q0 75 40.5 116.5t107.5 41.5q71 0 110 -43t39 -115q0 -70 -39 -113t-110 -43q-70 0 -109 42t-39 114z " glyph-name="uni04DB" horiz-adv-x="987" unicode="ӛ"/>
<glyph d="M311 764l-336 698h371l309 -698v698h336v-698l312 698h368l-338 -698l334 -764h-377l-299 752v-752h-336v752l-301 -752h-377zM487 1751q0 75 39.5 116.5t105.5 41.5q69 0 109.5 -43t40.5 -115q0 -70 -40.5 -113t-109.5 -43q-66 0 -105.5 41.5t-39.5 114.5zM882 1751 q0 75 40.5 116.5t107.5 41.5q71 0 110 -43t39 -115q0 -70 -39 -113t-110 -43q-70 0 -109 42t-39 114z" glyph-name="uni04DC" horiz-adv-x="1649" unicode="Ӝ"/>
<glyph d="M1604 1133l-301 -543l325 -590h-364l-287 575v-575h-326v575l-286 -575h-365l326 590l-301 543h354l272 -549v549h326v-549l272 549h355zM471 1413q0 75 39.5 116.5t105.5 41.5q69 0 109.5 -43t40.5 -115q0 -70 -40.5 -113t-109.5 -43q-66 0 -105.5 41.5t-39.5 114.5z M866 1413q0 75 40.5 116.5t107.5 41.5q71 0 110 -43t39 -115q0 -70 -39 -113t-110 -43q-70 0 -109 42t-39 114z" glyph-name="uni04DD" horiz-adv-x="1628" unicode="ӝ"/>
<glyph d="M932 1120q0 -144 -66 -231.5t-198 -116.5v-8q150 -17 228.5 -106.5t78.5 -239.5q0 -122 -53 -221.5t-170 -158t-310 -58.5q-116 0 -213 18t-176 55v324q42 -29 100.5 -50.5t119.5 -33.5t112 -12q126 0 179.5 38t53.5 130q0 83 -62 124t-187 41h-127v295h112q86 0 136 12 t71 44.5t21 91.5q0 63 -39 95t-117 32q-75 0 -137 -26t-115 -77l-127 258q69 55 135 86t144 44.5t180 13.5q128 0 224 -45.5t149 -127t53 -190.5zM145 1751q0 75 39.5 116.5t105.5 41.5q69 0 109.5 -43t40.5 -115q0 -70 -40.5 -113t-109.5 -43q-66 0 -105.5 41.5 t-39.5 114.5zM540 1751q0 75 40.5 116.5t107.5 41.5q71 0 110 -43t39 -115q0 -70 -39 -113t-110 -43q-70 0 -109 42t-39 114z" glyph-name="uni04DE" horiz-adv-x="1059" unicode="Ӟ"/>
<glyph d="M403 1153q117 0 204.5 -38t135.5 -107t48 -162q0 -91 -45 -157t-125 -91v-10q69 -11 118.5 -48.5t76 -93t26.5 -124.5q0 -100 -49.5 -177.5t-145 -121t-233.5 -43.5q-70 0 -129.5 7t-114 24t-111.5 48v285q71 -43 147 -65.5t148 -22.5q51 0 84.5 11t50.5 32.5t17 52.5 q0 34 -16.5 58.5t-56 37.5t-109.5 13h-105v241h84q91 0 129.5 22t38.5 85q0 37 -27.5 55.5t-81.5 18.5q-47 0 -99 -18.5t-107 -53.5l-107 250q100 56 183.5 74t170.5 18zM80 1413q0 75 39.5 116.5t105.5 41.5q69 0 109.5 -43t40.5 -115q0 -70 -40.5 -113t-109.5 -43 q-66 0 -105.5 41.5t-39.5 114.5zM475 1413q0 75 40.5 116.5t107.5 41.5q71 0 110 -43t39 -115q0 -70 -39 -113t-110 -43q-70 0 -109 42t-39 114z" glyph-name="uni04DF" horiz-adv-x="903" unicode="ӟ"/>
<glyph d="M913 1462v-243l-301 -338q192 -32 277.5 -154.5t85.5 -288.5q0 -139 -54.5 -242t-171.5 -159.5t-307 -56.5q-116 0 -213 18t-176 55v324q63 -43 159.5 -69.5t172.5 -26.5q84 0 135 17.5t74.5 57.5t23.5 105q0 59 -27.5 98t-83 58.5t-138.5 19.5h-127v229l256 301h-402 v295h817z" glyph-name="uni04E0" horiz-adv-x="1059" unicode="Ӡ"/>
<glyph d="M860 1133v-220l-319 -407q102 -14 185.5 -63.5t133 -143t49.5 -242.5q0 -175 -68.5 -297.5t-193 -187t-293.5 -64.5q-129 0 -212 25t-128 47v301q57 -28 134.5 -52t168.5 -24q81 0 138.5 25.5t87.5 77.5t30 131q0 83 -34 132t-101 70t-166 21h-77v236l274 358h-426v277 h817z" glyph-name="uni04E1" horiz-adv-x="963" unicode="ӡ"/>
<glyph d="M121 1462h338v-524q0 -34 -1 -73t-2.5 -83.5t-4.5 -94.5t-7 -105h9l378 880h420v-1462h-338v528q0 32 1 71t3 85.5t5.5 100t7.5 114.5h-8l-383 -899h-418v1462zM987 1845v-235h-608v235h608z" glyph-name="uni04E2" horiz-adv-x="1370" unicode="Ӣ"/>
<glyph d="M420 1133v-334q0 -42 -1 -81.5t-3.5 -80t-6 -86t-8.5 -100.5l322 682h350v-1133h-315v356q0 54 2.5 107t6.5 107t9 110l-321 -680h-353v1133h318zM895 1507v-235h-608v235h608z" glyph-name="uni04E3" horiz-adv-x="1178" unicode="ӣ"/>
<glyph d="M121 1462h338v-524q0 -34 -1 -73t-2.5 -83.5t-4.5 -94.5t-7 -105h9l378 880h420v-1462h-338v528q0 32 1 71t3 85.5t5.5 100t7.5 114.5h-8l-383 -899h-418v1462zM338 1751q0 75 39.5 116.5t105.5 41.5q69 0 109.5 -43t40.5 -115q0 -70 -40.5 -113t-109.5 -43 q-66 0 -105.5 41.5t-39.5 114.5zM733 1751q0 75 40.5 116.5t107.5 41.5q71 0 110 -43t39 -115q0 -70 -39 -113t-110 -43q-70 0 -109 42t-39 114z" glyph-name="uni04E4" horiz-adv-x="1370" unicode="Ӥ"/>
<glyph d="M420 1133v-334q0 -42 -1 -81.5t-3.5 -80t-6 -86t-8.5 -100.5l322 682h350v-1133h-315v356q0 54 2.5 107t6.5 107t9 110l-321 -680h-353v1133h318zM244 1413q0 75 39.5 116.5t105.5 41.5q69 0 109.5 -43t40.5 -115q0 -70 -40.5 -113t-109.5 -43q-66 0 -105.5 41.5 t-39.5 114.5zM639 1413q0 75 40.5 116.5t107.5 41.5q71 0 110 -43t39 -115q0 -70 -39 -113t-110 -43q-70 0 -109 42t-39 114z" glyph-name="uni04E5" horiz-adv-x="1178" unicode="ӥ"/>
<glyph d="M1192 733q0 -184 -35.5 -324.5t-106 -236t-174 -144t-239.5 -48.5q-135 0 -239 49t-175 144.5t-107 236.5t-36 325q0 244 63.5 411t188 253t305.5 86q182 0 305.5 -85t186.5 -252.5t63 -414.5zM442 733q0 -149 22 -249t65.5 -149.5t107.5 -49.5q66 0 108.5 48t63 147.5 t20.5 252.5q0 232 -47.5 342.5t-144.5 110.5q-64 0 -107.5 -50.5t-65.5 -151t-22 -251.5zM289 1743q0 75 39.5 116.5t105.5 41.5q69 0 109.5 -43t40.5 -115q0 -70 -40.5 -113t-109.5 -43q-66 0 -105.5 41.5t-39.5 114.5zM684 1743q0 75 40.5 116.5t107.5 41.5q71 0 110 -43 t39 -115q0 -70 -39 -113t-110 -43q-70 0 -109 42t-39 114z" glyph-name="uni04E6" horiz-adv-x="1272" unicode="Ӧ"/>
<glyph d="M989 569q0 -109 -23.5 -213.5t-77.5 -189.5t-142.5 -135.5t-219.5 -50.5q-120 0 -207 49.5t-143 133t-83 189t-27 217.5q0 163 47 295.5t149.5 210.5t267.5 78q138 0 241 -68.5t160.5 -198.5t57.5 -317zM401 565q0 -101 13.5 -170t41.5 -104t72 -35q47 0 74 34.5 t39 104.5t12 174t-12 172t-39 102t-74 34q-66 0 -96.5 -76t-30.5 -236zM182 1413q0 75 39.5 116.5t105.5 41.5q69 0 109.5 -43t40.5 -115q0 -70 -40.5 -113t-109.5 -43q-66 0 -105.5 41.5t-39.5 114.5zM577 1413q0 75 40.5 116.5t107.5 41.5q71 0 110 -43t39 -115 q0 -70 -39 -113t-110 -43q-70 0 -109 42t-39 114z" glyph-name="uni04E7" horiz-adv-x="1057" unicode="ӧ"/>
<glyph d="M1233 733q0 -184 -37 -324.5t-110 -236t-180.5 -144t-248.5 -48.5q-139 0 -246.5 49t-181.5 144.5t-111.5 236.5t-37.5 325q0 244 66.5 411t195 253t315.5 86q189 0 317 -85t193.5 -252.5t65.5 -414.5zM657 281q63 0 109 35.5t74.5 107t36.5 180.5h-441q9 -109 37 -180.5 t74.5 -107t109.5 -35.5zM657 1190q-61 0 -106.5 -34.5t-74 -103t-38.5 -171.5h436q-13 155 -68 232t-149 77z" glyph-name="uni04E8" horiz-adv-x="1313" unicode="Ө"/>
<glyph d="M1042 569q0 -184 -58 -316t-167.5 -202.5t-265.5 -70.5q-147 0 -256 72.5t-169 204.5t-60 312q0 277 129.5 430.5t361.5 153.5q147 0 256 -71.5t169 -202.5t60 -310zM555 256q44 0 75 22.5t50.5 66t28.5 106.5h-310q7 -42 23 -87.5t48 -76.5t85 -31zM553 877 q-64 0 -103 -50t-53 -153h314q-5 44 -20.5 91t-48 79.5t-89.5 32.5z" glyph-name="uni04E9" horiz-adv-x="1108" unicode="ө"/>
<glyph d="M1233 733q0 -184 -37 -324.5t-110 -236t-180.5 -144t-248.5 -48.5q-139 0 -246.5 49t-181.5 144.5t-111.5 236.5t-37.5 325q0 244 66.5 411t195 253t315.5 86q189 0 317 -85t193.5 -252.5t65.5 -414.5zM657 281q63 0 109 35.5t74.5 107t36.5 180.5h-441q9 -109 37 -180.5 t74.5 -107t109.5 -35.5zM657 1190q-61 0 -106.5 -34.5t-74 -103t-38.5 -171.5h436q-13 155 -68 232t-149 77zM309 1751q0 75 39.5 116.5t105.5 41.5q69 0 109.5 -43t40.5 -115q0 -70 -40.5 -113t-109.5 -43q-66 0 -105.5 41.5t-39.5 114.5zM704 1751q0 75 40.5 116.5 t107.5 41.5q71 0 110 -43t39 -115q0 -70 -39 -113t-110 -43q-70 0 -109 42t-39 114z" glyph-name="uni04EA" horiz-adv-x="1313" unicode="Ӫ"/>
<glyph d="M1042 569q0 -184 -58 -316t-167.5 -202.5t-265.5 -70.5q-147 0 -256 72.5t-169 204.5t-60 312q0 277 129.5 430.5t361.5 153.5q147 0 256 -71.5t169 -202.5t60 -310zM555 256q44 0 75 22.5t50.5 66t28.5 106.5h-310q7 -42 23 -87.5t48 -76.5t85 -31zM553 877 q-64 0 -103 -50t-53 -153h314q-5 44 -20.5 91t-48 79.5t-89.5 32.5zM207 1413q0 75 39.5 116.5t105.5 41.5q69 0 109.5 -43t40.5 -115q0 -70 -40.5 -113t-109.5 -43q-66 0 -105.5 41.5t-39.5 114.5zM602 1413q0 75 40.5 116.5t107.5 41.5q71 0 110 -43t39 -115 q0 -70 -39 -113t-110 -43q-70 0 -109 42t-39 114z" glyph-name="uni04EB" horiz-adv-x="1108" unicode="ӫ"/>
<glyph d="M408 1184q-76 0 -139.5 -24.5t-129.5 -65.5l-92 286q88 53 183.5 78t213.5 25q122 0 224.5 -46t177.5 -139.5t116.5 -235.5t41.5 -335q0 -241 -65 -408t-191 -253t-310 -86q-95 0 -186 20t-166 61v312q74 -38 151 -65t152 -27q55 0 99 18.5t76 56.5t51.5 98t25.5 144 h-395v297h389q-7 51 -22 102.5t-41 93.5t-66.5 67.5t-97.5 25.5zM125 1751q0 75 39.5 116.5t105.5 41.5q69 0 109.5 -43t40.5 -115q0 -70 -40.5 -113t-109.5 -43q-66 0 -105.5 41.5t-39.5 114.5zM520 1751q0 75 40.5 116.5t107.5 41.5q71 0 110 -43t39 -115q0 -70 -39 -113 t-110 -43q-70 0 -109 42t-39 114z" glyph-name="uni04EC" unicode="Ӭ"/>
<glyph d="M377 -20q-88 0 -162.5 24.5t-136.5 75.5v272q65 -49 131 -73.5t135 -24.5q42 0 73.5 20.5t52.5 62t30 103.5h-285v246h285q-14 100 -51 149.5t-97 49.5q-57 0 -110 -17t-107 -51l-88 250q72 43 149 64.5t156 21.5q157 0 267 -70t167.5 -202t57.5 -320q0 -187 -53 -317 t-157 -197t-257 -67zM45 1413q0 75 39.5 116.5t105.5 41.5q69 0 109.5 -43t40.5 -115q0 -70 -40.5 -113t-109.5 -43q-66 0 -105.5 41.5t-39.5 114.5zM440 1413q0 75 40.5 116.5t107.5 41.5q71 0 110 -43t39 -115q0 -70 -39 -113t-110 -43q-70 0 -109 42t-39 114z" glyph-name="uni04ED" horiz-adv-x="909" unicode="ӭ"/>
<glyph d="M1100 1462l-338 -1026q-46 -139 -106 -241.5t-155.5 -158.5t-250.5 -56q-54 0 -102 7.5t-93 22.5v301q35 -18 72 -27.5t72 -9.5q54 0 86.5 15.5t52 47t33.5 79.5l-367 1046h367l112 -379q16 -52 29 -101.5t24 -99.5t19 -104h12q10 55 19 98.5t19.5 86.5t23.5 94l106 405 h365zM864 1845v-235h-608v235h608z" glyph-name="uni04EE" horiz-adv-x="1100" unicode="Ӯ"/>
<glyph d="M4 1133h348l119 -492q8 -35 15 -70t12 -65.5t6 -54.5h8q3 34 11 78.5t24 107.5l110 496h344l-342 -1205q-44 -154 -100.5 -246.5t-132 -133t-178.5 -40.5q-40 0 -76 5t-68 12v291q20 -7 41.5 -10t40.5 -3q41 0 65.5 13.5t44 55t44.5 124.5l6 20zM809 1507v-235h-608v235 h608z" glyph-name="uni04EF" horiz-adv-x="1006" unicode="ӯ"/>
<glyph d="M1100 1462l-338 -1026q-46 -139 -106 -241.5t-155.5 -158.5t-250.5 -56q-54 0 -102 7.5t-93 22.5v301q35 -18 72 -27.5t72 -9.5q54 0 86.5 15.5t52 47t33.5 79.5l-367 1046h367l112 -379q16 -52 29 -101.5t24 -99.5t19 -104h12q10 55 19 98.5t19.5 86.5t23.5 94l106 405 h365zM213 1751q0 75 39.5 116.5t105.5 41.5q69 0 109.5 -43t40.5 -115q0 -70 -40.5 -113t-109.5 -43q-66 0 -105.5 41.5t-39.5 114.5zM608 1751q0 75 40.5 116.5t107.5 41.5q71 0 110 -43t39 -115q0 -70 -39 -113t-110 -43q-70 0 -109 42t-39 114z" glyph-name="uni04F0" horiz-adv-x="1100" unicode="Ӱ"/>
<glyph d="M4 1133h348l119 -492q8 -35 15 -70t12 -65.5t6 -54.5h8q3 34 11 78.5t24 107.5l110 496h344l-342 -1205q-44 -154 -100.5 -246.5t-132 -133t-178.5 -40.5q-40 0 -76 5t-68 12v291q20 -7 41.5 -10t40.5 -3q41 0 65.5 13.5t44 55t44.5 124.5l6 20zM156 1413 q0 75 39.5 116.5t105.5 41.5q69 0 109.5 -43t40.5 -115q0 -70 -40.5 -113t-109.5 -43q-66 0 -105.5 41.5t-39.5 114.5zM551 1413q0 75 40.5 116.5t107.5 41.5q71 0 110 -43t39 -115q0 -70 -39 -113t-110 -43q-70 0 -109 42t-39 114z" glyph-name="uni04F1" horiz-adv-x="1006" unicode="ӱ"/>
<glyph d="M1100 1462l-338 -1026q-46 -139 -106 -241.5t-155.5 -158.5t-250.5 -56q-54 0 -102 7.5t-93 22.5v301q35 -18 72 -27.5t72 -9.5q54 0 86.5 15.5t52 47t33.5 79.5l-367 1046h367l112 -379q16 -52 29 -101.5t24 -99.5t19 -104h12q10 55 19 98.5t19.5 86.5t23.5 94l106 405 h365zM1112 1907v-21q-12 -29 -42.5 -68.5t-70.5 -82.5t-82 -83.5t-78 -72.5h-170v29q37 74 65.5 131.5t48.5 100t30 67.5h299zM747 1907v-21q-14 -31 -43.5 -69.5t-69 -80t-83.5 -82t-88 -75.5h-156v29q37 75 65 133t47.5 100t30.5 66h297z" glyph-name="uni04F2" horiz-adv-x="1100" unicode="Ӳ"/>
<glyph d="M4 1133h348l119 -492q8 -35 15 -70t12 -65.5t6 -54.5h8q3 34 11 78.5t24 107.5l110 496h344l-342 -1205q-44 -154 -100.5 -246.5t-132 -133t-178.5 -40.5q-40 0 -76 5t-68 12v291q20 -7 41.5 -10t40.5 -3q41 0 65.5 13.5t44 55t44.5 124.5l6 20zM1069 1569v-21 q-12 -29 -42.5 -68.5t-70.5 -82.5t-82 -83.5t-78 -72.5h-170v29q37 74 65.5 131.5t48.5 100t30 67.5h299zM704 1569v-21q-14 -31 -43.5 -69.5t-69 -80t-83.5 -82t-88 -75.5h-156v29q37 75 65 133t47.5 100t30.5 66h297z" glyph-name="uni04F3" horiz-adv-x="1006" unicode="ӳ"/>
<glyph d="M1042 0h-348v530q-85 -38 -162 -57.5t-145 -19.5q-139 0 -218 103.5t-79 287.5v618h348v-510q0 -107 22 -152.5t72 -45.5q32 0 73.5 14t88.5 43v651h348v-1462zM219 1751q0 75 39.5 116.5t105.5 41.5q69 0 109.5 -43t40.5 -115q0 -70 -40.5 -113t-109.5 -43 q-66 0 -105.5 41.5t-39.5 114.5zM614 1751q0 75 40.5 116.5t107.5 41.5q71 0 110 -43t39 -115q0 -70 -39 -113t-110 -43q-70 0 -109 42t-39 114z" glyph-name="uni04F4" horiz-adv-x="1163" unicode="Ӵ"/>
<glyph d="M403 1133v-410q0 -60 18.5 -89.5t55.5 -29.5q32 0 74.5 13.5t91.5 37.5v478h334v-1133h-334v412q-73 -42 -139 -63t-123 -21q-158 0 -233.5 94.5t-75.5 292.5v418h331zM178 1413q0 75 39.5 116.5t105.5 41.5q69 0 109.5 -43t40.5 -115q0 -70 -40.5 -113t-109.5 -43 q-66 0 -105.5 41.5t-39.5 114.5zM573 1413q0 75 40.5 116.5t107.5 41.5q71 0 110 -43t39 -115q0 -70 -39 -113t-110 -43q-70 0 -109 42t-39 114z" glyph-name="uni04F5" horiz-adv-x="1079" unicode="ӵ"/>
<glyph d="M877 1462v-295h-408v-868h188v-754h-338v455h-198v1462h756z" glyph-name="uni04F6" horiz-adv-x="903" unicode="Ӷ"/>
<glyph d="M768 1133v-277h-334v-580h141v-692h-321v416h-152v1133h666z" glyph-name="uni04F7" horiz-adv-x="799" unicode="ӷ"/>
<glyph d="M121 0v1462h348v-520h8q168 0 285 -51.5t178 -153t61 -252.5q0 -235 -133 -360t-372 -125h-375zM469 295h8q89 0 132.5 44.5t43.5 135.5q0 58 -19.5 96t-58.5 57t-100 19h-6v-352zM1133 0v1462h348v-1462h-348zM455 1751q0 75 39.5 116.5t105.5 41.5q69 0 109.5 -43 t40.5 -115q0 -70 -40.5 -113t-109.5 -43q-66 0 -105.5 41.5t-39.5 114.5zM850 1751q0 75 40.5 116.5t107.5 41.5q71 0 110 -43t39 -115q0 -70 -39 -113t-110 -43q-70 0 -109 42t-39 114z" glyph-name="uni04F8" horiz-adv-x="1599" unicode="Ӹ"/>
<glyph d="M102 0v1133h332v-408h43q151 0 251 -36t150 -113t50 -201q0 -130 -49 -213t-142 -122.5t-225 -39.5h-410zM434 246h55q50 0 78.5 29.5t28.5 82.5q0 59 -25.5 90t-85.5 31h-51v-233zM1036 0v1133h332v-1133h-332zM383 1413q0 75 39.5 116.5t105.5 41.5q69 0 109.5 -43 t40.5 -115q0 -70 -40.5 -113t-109.5 -43q-66 0 -105.5 41.5t-39.5 114.5zM778 1413q0 75 40.5 116.5t107.5 41.5q71 0 110 -43t39 -115q0 -70 -39 -113t-110 -43q-70 0 -109 42t-39 114z" glyph-name="uni04F9" horiz-adv-x="1473" unicode="ӹ"/>
<glyph d="M877 1462v-295h-408v-295h260v-286h-260v-586h-348v586h-107v286h107v590h756zM459 -492q-67 0 -116 6.5t-81 16.5v281q25 -10 48 -14.5t48 -4.5q42 0 66.5 14.5t34.5 46.5t10 83v63h-17v299h355v-371q0 -139 -43 -232.5t-121.5 -140.5t-183.5 -47z" glyph-name="uni04FA" horiz-adv-x="903" unicode="Ӻ"/>
<glyph d="M395 -492q-66 0 -115 6.5t-81 16.5v279q24 -10 47.5 -14.5t48.5 -4.5q42 0 66.5 14.5t34.5 46t10 82.5v66h-304v403h-98v273h98v457h666v-277h-334v-180h205v-273h-205v-127h293v-348q0 -139 -39 -232.5t-113 -140.5t-180 -47z" glyph-name="uni04FB" horiz-adv-x="799" unicode="ӻ"/>
<glyph d="M778 -492q-66 0 -114 6.5t-80 16.5v281q23 -10 47 -14.5t49 -4.5q42 0 65.5 14.5t33 46.5t9.5 83v63h-94l-164 422l-168 -422h-366l334 731l-314 731h361l143 -405l133 405h369l-303 -719l209 -444h198v-371q0 -139 -43 -232.5t-121 -140.5t-184 -47z" glyph-name="uni04FC" horiz-adv-x="1151" unicode="Ӽ"/>
<glyph d="M690 -492q-63 0 -109.5 6.5t-78.5 16.5v272q25 -9 48 -13.5t48 -4.5q51 0 74.5 23t30 60.5t6.5 80.5v51h-107l-123 319l-117 -319h-352l262 578l-256 555h361l110 -297l105 297h360l-252 -555l138 -302h192v-358q0 -140 -42.5 -231t-119 -135t-178.5 -44z" glyph-name="uni04FD" horiz-adv-x="1055" unicode="ӽ"/>
<glyph d="M86 872h182l-252 590h361l143 -405l133 405h369l-248 -590h205v-286h-186l276 -586h-375l-164 422l-168 -422h-366l266 586h-176v286z" glyph-name="uni04FE" horiz-adv-x="1065" unicode="Ӿ"/>
<glyph d="M508 0q-226 0 -339.5 117.5t-113.5 331.5q0 160 55 269.5t160.5 166.5t255.5 57h64v520h348v-1462h-430zM541 295h49v352h-27q-47 0 -83 -19t-56.5 -62t-20.5 -115q0 -79 35.5 -117.5t102.5 -38.5z" glyph-name="uni0500" horiz-adv-x="1059" unicode="Ԁ"/>
<glyph d="M403 -20q-161 0 -249 159t-88 430q0 272 87.5 428t239.5 156q53 0 97 -17t81.5 -53.5t67.5 -95.5h10q-4 77 -7 131t-3 86v352h332v-1556h-266l-48 111h-18q-36 -48 -69.5 -76.5t-72.5 -41.5t-94 -13zM512 256q68 0 97.5 67.5t29.5 219.5v65q0 135 -29.5 197.5t-95.5 62.5 q-55 0 -84 -73.5t-29 -221.5q0 -161 29.5 -239t81.5 -78z" glyph-name="uni0501" horiz-adv-x="1073" unicode="ԁ"/>
<glyph d="M938 1462v-1011q0 -103 22.5 -136.5t88.5 -33.5q61 0 83.5 40t22.5 125v402h348v-389q0 -250 -108.5 -364.5t-313.5 -114.5q-116 0 -199 32t-132 94q-54 -62 -125.5 -94t-159.5 -32q-122 0 -214.5 52.5t-144 156.5t-51.5 260q0 120 31 211.5t91.5 154.5t148 95t200.5 32 h64v520h348zM590 647h-27q-46 0 -82 -18.5t-57 -63.5t-21 -125q0 -53 10 -88.5t29.5 -53t49.5 -17.5q53 0 75.5 30t22.5 115v221z" glyph-name="uni0502" horiz-adv-x="1612" unicode="Ԃ"/>
<glyph d="M971 1556v-1124q0 -107 21 -141.5t79 -34.5q59 0 79.5 40.5t20.5 131.5v272h330v-280q0 -106 -26 -188t-76 -138t-122.5 -85t-166.5 -29q-124 0 -191 25t-100 68.5t-55 98.5q-42 -81 -93.5 -122t-111 -55.5t-127.5 -14.5q-192 0 -279 159t-87 430q0 272 87.5 428 t239.5 156q53 0 97 -17t81.5 -53.5t67.5 -95.5h10q-4 77 -7 131t-3 86v352h332zM514 868q-55 0 -84 -73.5t-29 -221.5q0 -161 29.5 -239t81.5 -78q68 0 97.5 67.5t29.5 219.5v65q0 135 -29.5 197.5t-95.5 62.5z" glyph-name="uni0503" horiz-adv-x="1602" unicode="ԃ"/>
<glyph d="M469 1483q128 0 224 -45.5t149 -127t53 -190.5q0 -144 -65.5 -231.5t-196.5 -116.5v-8q101 -11 168.5 -56t102 -115t34.5 -157q0 -43 5 -72.5t17.5 -47.5t34 -26.5t54.5 -8.5q61 0 83.5 40t22.5 125v402h348v-389q0 -249 -108 -364t-346 -115q-124 0 -213 25t-145 80 t-82.5 143t-26.5 214q0 43 -15.5 75.5t-46.5 54t-77.5 32t-108.5 10.5h-129v295h114q87 2 135.5 14t69.5 43.5t23 90.5q0 63 -39.5 95t-118.5 32q-73 0 -136 -26t-114 -77l-127 258q69 55 135 86t143 44.5t179 13.5z" glyph-name="uni0504" horiz-adv-x="1612" unicode="Ԅ"/>
<glyph d="M371 1153q121 0 210.5 -39t139 -108t49.5 -160t-45 -157t-125 -91v-10q72 -10 120.5 -42.5t73.5 -81.5t25 -112q0 -27 9 -49t31.5 -34.5t62.5 -12.5q56 0 77 40.5t21 131.5v272h332v-280q0 -105 -25 -187t-77.5 -138.5t-136 -85.5t-200.5 -29q-113 0 -194.5 22.5 t-133.5 66t-77 106.5t-25 144q0 57 -16.5 87.5t-56 42.5t-109.5 12h-102v241h84q89 0 128.5 22t39.5 85q0 37 -29 55.5t-86 18.5q-51 0 -106 -18.5t-115 -53.5l-105 250q111 57 191.5 74.5t169.5 17.5z" glyph-name="uni0505" horiz-adv-x="1450" unicode="ԅ"/>
<glyph d="M469 1483q128 0 224 -45.5t149 -127t53 -190.5q0 -144 -65.5 -231.5t-196.5 -116.5v-8q151 -17 226 -106.5t75 -239.5v-119h190v-754h-338v455h-200v449q0 41 -15.5 72t-47 51.5t-79 31t-110.5 10.5h-150v295h135q87 2 135.5 14t69.5 43.5t23 90.5q0 63 -39.5 95 t-118.5 32q-73 0 -136 -26t-114 -77l-127 258q69 55 135 86t143 44.5t179 13.5z" glyph-name="uni0506" horiz-adv-x="1153" unicode="Ԇ"/>
<glyph d="M371 1153q121 0 210.5 -39t139 -108t49.5 -160t-45 -157t-125 -91v-10q68 -11 117 -48.5t75.5 -93t26.5 -124.5v-46h142v-692h-322v416h-152v352q0 34 -16 58.5t-55.5 37.5t-110.5 13h-106v241h84q89 0 128.5 22t39.5 85q0 37 -29 55.5t-86 18.5q-51 0 -106 -18.5 t-115 -53.5l-105 250q111 57 191.5 74.5t169.5 17.5z" glyph-name="uni0507" horiz-adv-x="985" unicode="ԇ"/>
<glyph d="M1128 1462v-1011q0 -103 22.5 -136.5t86.5 -33.5q63 0 86 40t23 125v402h348v-389q0 -249 -109 -364t-348 -115q-161 0 -262 46.5t-148 147t-47 262.5v703h-174q-5 -78 -12 -164.5t-16 -173.5t-18.5 -169t-19.5 -153t-19.5 -125t-18.5 -84q-30 -103 -69.5 -166.5 t-101 -92.5t-157.5 -31q-51 0 -89.5 6t-64.5 16v291q20 -9 39 -14t35 -5q28 0 46.5 18.5t32.5 62t26 116.5q7 49 19.5 153t27.5 242.5t29.5 292.5t25.5 303h827z" glyph-name="uni0508" horiz-adv-x="1800" unicode="Ԉ"/>
<glyph d="M1014 432q0 -107 21 -141.5t79 -34.5q57 0 77.5 40.5t20.5 131.5v272h332v-280q0 -105 -24.5 -187t-77 -138.5t-134.5 -85.5t-196 -29t-195.5 25.5t-133.5 80.5t-76.5 142.5t-24.5 211.5v402h-143q-18 -246 -41.5 -412t-62 -265t-100.5 -142t-157 -43q-44 0 -83.5 7.5 t-74.5 22.5v275q13 -10 29.5 -14.5t36.5 -4.5q26 0 46 31.5t35 97t27.5 168t22.5 244.5t19 326h778v-701z" glyph-name="uni0509" horiz-adv-x="1645" unicode="ԉ"/>
<glyph d="M1126 1462v-1011q0 -103 23.5 -136.5t87.5 -33.5q63 0 86 40t23 125v402h346v-389q0 -249 -108 -364t-347 -115q-162 0 -263 46.5t-148.5 147t-47.5 262.5v174h-309v-610h-348v1462h348v-553h309v553h348z" glyph-name="uni050A" horiz-adv-x="1800" unicode="Ԋ"/>
<glyph d="M434 1133v-414h217v414h332v-725q0 -89 22 -120.5t80 -31.5q57 0 78 40.5t21 131.5v272h332v-280q0 -105 -25 -187t-77 -138.5t-134 -85.5t-197 -29q-112 0 -193.5 24.5t-134.5 77.5t-78.5 137.5t-25.5 204.5v16h-217v-440h-332v1133h332z" glyph-name="uni050B" horiz-adv-x="1616" unicode="ԋ"/>
<glyph d="M653 856h551v-172q0 -183 -35.5 -316.5t-104.5 -219t-169.5 -127t-230.5 -41.5q-195 0 -324.5 88t-194.5 257t-65 410q0 235 75 402t216 256.5t340 89.5q112 0 209 -26t170 -66l-95 -285q-60 38 -128.5 58t-145.5 20q-92 0 -154 -53.5t-93.5 -155.5t-31.5 -250 q0 -144 25 -243t74.5 -150t122.5 -51q74 0 117 33.5t62 97t19 153.5h-209v291z" glyph-name="uni050C" horiz-adv-x="1284" unicode="Ԍ"/>
<glyph d="M524 688h484v-119q0 -139 -30 -248.5t-87.5 -185.5t-142 -115.5t-193.5 -39.5q-155 0 -264.5 70t-167 202.5t-57.5 320.5q0 187 61.5 316t177 196.5t277.5 67.5q94 0 176.5 -22t142.5 -60l-80 -260q-41 28 -102.5 47t-124.5 19q-66 0 -111 -35.5t-67.5 -105.5t-22.5 -175 q0 -166 41.5 -239.5t122.5 -73.5q44 0 71 18.5t40 60t16 109.5h-160v252z" glyph-name="uni050D" horiz-adv-x="1069" unicode="ԍ"/>
<glyph d="M907 1462v-301h-262v-710q0 -103 23.5 -136.5t87.5 -33.5q63 0 85.5 40t22.5 125v402h346v-389q0 -249 -107.5 -364t-346.5 -115q-162 0 -262.5 46.5t-147.5 147t-47 262.5v725h-264v301h872z" glyph-name="uni050E" horiz-adv-x="1319" unicode="Ԏ"/>
<glyph d="M897 1133v-277h-266v-424q0 -107 21 -141.5t79 -34.5q57 0 77.5 40.5t20.5 131.5v272h332v-280q0 -105 -24.5 -187t-77 -138.5t-134.5 -85.5t-196 -29t-195.5 25.5t-133.5 80.5t-76.5 142.5t-24.5 211.5v416h-268v277h866z" glyph-name="uni050F" horiz-adv-x="1262" unicode="ԏ"/>
<glyph d="M553 1483q103 0 184.5 -16.5t149 -48.5t125.5 -79l-127 -258q-57 51 -119.5 77t-130.5 26q-80 0 -119 -32t-39 -95q0 -59 21 -91.5t71 -44.5t136 -12h112v-295h-127q-124 0 -187 -41t-63 -124q0 -92 54 -130t180 -38q52 0 113 12t119 33.5t100 50.5v-324 q-79 -37 -186.5 -55t-246.5 -18q-151 0 -260.5 54t-168 152.5t-58.5 231.5q0 150 77 239.5t228 106.5v8q-88 20 -146.5 65t-88 116t-29.5 167q0 109 53 190.5t149 127t224 45.5z" glyph-name="uni0510" horiz-adv-x="1059" unicode="Ԑ"/>
<glyph d="M682 702v-241h-102q-70 0 -110 -13t-56.5 -37.5t-16.5 -58.5q0 -31 17 -52.5t51 -32.5t84 -11q71 0 148 22.5t147 65.5v-285q-85 -46 -167.5 -62.5t-187.5 -16.5q-230 0 -329 94t-99 248q0 103 59.5 176t162.5 90v10q-82 25 -126 91t-44 157q0 93 48 162t135 107t204 38 q87 0 172 -20t182 -72l-106 -250q-55 35 -108 53.5t-99 18.5q-54 0 -81.5 -18.5t-27.5 -55.5q0 -63 38.5 -85t127.5 -22h84z" glyph-name="uni0511" horiz-adv-x="903" unicode="ԑ"/>
<glyph d="M1004 -492q-67 0 -116 6.5t-81 16.5v281q25 -10 48 -14.5t48 -4.5q42 0 66.5 14.5t34.5 46.5t10 83v63h-234v1139h-174q-7 -118 -19.5 -250t-27 -256.5t-29.5 -221t-28 -141.5q-30 -103 -69.5 -167t-101 -93.5t-157.5 -29.5q-51 0 -89.5 6t-64.5 16v291q20 -9 39 -14 t35 -5q28 0 46.5 18.5t32.5 62t26 116.5q7 49 19.5 153t27.5 242.5t29.5 292.5t25.5 303h827v-1163h224v-371q0 -139 -43 -232.5t-121.5 -140.5t-183.5 -47z" glyph-name="uni0512" horiz-adv-x="1380" unicode="Ԓ"/>
<glyph d="M823 -492q-66 0 -115 6.5t-81 16.5v279q24 -10 47.5 -14.5t48.5 -4.5q42 0 66.5 14.5t34.5 46t10 82.5v66h-152v842h-143q-18 -246 -41.5 -412t-62 -265t-100.5 -142t-157 -43q-44 0 -83.5 7.5t-74.5 22.5v275q13 -10 29.5 -14.5t36.5 -4.5q26 0 46 31.5t35 97t27.5 168 t22.5 244.5t19 326h778v-857h141v-348q0 -139 -39 -232.5t-113 -140.5t-180 -47z" glyph-name="uni0513" horiz-adv-x="1214" unicode="ԓ"/>
<glyph d="M-197 -256v134h410v-134h-410z" glyph-name="uni05B7" horiz-adv-x="0" unicode="ַ"/>
<glyph d="M-59 -489v204h-132v136h393v-136h-132v-204h-129z" glyph-name="uni05B8" horiz-adv-x="0" unicode="ָ"/>
<glyph d="M-1 1410q-108 0 -108 91q0 45 30.5 68.5t79.5 23.5t78.5 -26t29.5 -66t-30 -65.5t-80 -25.5z" glyph-name="uni05B9" horiz-adv-x="0" unicode="ֹ"/>
<glyph d="M-3 559q-106 0 -106 91q0 44 29.5 68t78.5 24t79.5 -26t30.5 -66t-31 -65.5t-81 -25.5z" glyph-name="uni05BC" horiz-adv-x="0" unicode="ּ"/>
<glyph d="M12 1410q-107 0 -107 91q0 45 29.5 68.5t79.5 23.5q48 0 78.5 -26t30.5 -66t-30.5 -65.5t-80.5 -25.5z" glyph-name="uni05C1" horiz-adv-x="0" unicode="ׁ"/>
<glyph d="M-2 1410q-50 0 -78.5 24t-28.5 67q0 45 29.5 68.5t80.5 23.5t79.5 -26t28.5 -66t-30 -65.5t-81 -25.5z" glyph-name="uni05C2" horiz-adv-x="0" unicode="ׂ"/>
<glyph d="M86 0v465q0 48 3 76t11 52t23 60q22 53 72 89.5t112 61.5l-257 486h394l264 -568q7 6 13 18.5t11 26.5q5 15 7.5 30.5t2.5 28.5v464h340v-459q0 -95 -20 -160.5t-56 -100.5q-21 -21 -69.5 -51t-107.5 -47l234 -472h-396l-232 544q-1 -7 -3 -16t-4 -19q-3 -19 -3 -40v-469 h-339z" glyph-name="uni05D0" horiz-adv-x="1132" unicode="א"/>
<glyph d="M60 0v271h395v553q0 86 -20.5 140t-82.5 67q-14 3 -31.5 4.5t-25.5 1.5q-84 0 -129.5 -3.5t-105.5 -15.5v273q64 10 125 14.5t128 4.5q119 0 193 -13t124 -36q64 -28 95.5 -65t53.5 -83q9 -18 12.5 -71t4.5 -114t1 -105v-552h154v-271h-891z" glyph-name="uni05D1" horiz-adv-x="962" unicode="ב"/>
<glyph d="M166 -28q-34 0 -67.5 3t-70.5 8l23 313q3 -1 35 -3.5t53 -2.5q131 0 203 24.5t82 61.5q9 31 13 68t4 88v355q0 74 -30 108t-72 34q-38 0 -75 -7t-78 -19v280q75 27 190 27q121 0 200.5 -22.5t123.5 -66.5q60 -58 70 -135t10 -199v-887h-240l-59 177h-19q-4 -20 -33.5 -60 t-68.5 -72q-31 -25 -91.5 -49t-102.5 -24z" glyph-name="uni05D2" horiz-adv-x="866" unicode="ג"/>
<glyph d="M433 0v783q0 48 16.5 93.5t38.5 67.5q23 24 49 43t54 32h-564v271h870v-259q-11 -4 -27 -13.5t-33 -29.5q-64 -75 -64 -216v-772h-340z" glyph-name="uni05D3" horiz-adv-x="915" unicode="ד"/>
<glyph d="M656 0v824q0 77 -16 128.5t-58 71.5q-14 7 -37 10t-60 3q-82 0 -167 -10t-227 -36v266q28 11 77.5 20t119.5 19q68 10 121.5 12t104.5 2q128 0 192.5 -10.5t111.5 -33.5q23 -10 41.5 -21.5t34.5 -24.5q77 -62 89.5 -156.5t12.5 -240.5v-823h-340zM91 0v828h341v-828h-341 z" glyph-name="uni05D4" horiz-adv-x="1082" unicode="ה"/>
<glyph d="M91 0v1290h340v-1290h-340z" glyph-name="uni05D5" horiz-adv-x="522" unicode="ו"/>
<glyph d="M102 0v270q0 245 52.5 415.5t117.5 240.5q10 11 38 42.5t58 50.5h-298v271h521v-276q-8 -15 -31.5 -68.5t-49 -128.5t-39.5 -154q-12 -65 -18 -107.5t-8 -86.5q-2 -37 -2.5 -83.5t-0.5 -115.5v-270h-340z" glyph-name="uni05D6" horiz-adv-x="599" unicode="ז"/>
<glyph d="M534 -23q-68 0 -129 15t-108 49q-45 33 -83 80t-65 115q-31 79 -47 186.5t-16 247.5v617h346v-640q0 -121 8 -196.5t25 -124.5q17 -47 40.5 -60.5t45.5 -13.5q30 0 52 19t37 59q16 42 24.5 115t8.5 201q0 105 -7 186.5t-26 129.5q-16 41 -38.5 58t-45.5 17 q-10 0 -21.5 -0.5t-39.5 -4.5v268q23 5 57.5 7.5t53.5 2.5q69 0 135.5 -29.5t119.5 -94.5q37 -45 71 -114.5t54 -149.5q17 -65 25 -140t8 -144q0 -113 -20 -216t-50 -170q-29 -65 -72 -113t-81 -77q-66 -49 -135 -67t-127 -18z" glyph-name="uni05D8" horiz-adv-x="1097" unicode="ט"/>
<glyph d="M91 416v874h339v-553l-198 -321h-141z" glyph-name="uni05D9" horiz-adv-x="521" unicode="י"/>
<glyph d="M430 -492v1237q0 40 -5 90.5t-15 84.5q-5 20 -15 36t-21 29q-33 40 -109 40q-34 0 -60.5 -0.5t-61.5 -2.5q-25 -1 -53 -3t-57 -5v274q33 5 66 9t64 7q35 3 68 4.5t61 1.5q101 0 175.5 -19t125.5 -54q61 -39 94.5 -100t53.5 -130q18 -66 22.5 -134t4.5 -128v-1237h-338z " glyph-name="uni05DA" horiz-adv-x="854" unicode="ך"/>
<glyph d="M351 -20q-103 0 -177.5 8.5t-129.5 25.5v288q42 -10 85.5 -17.5t88 -11.5t89.5 -4q36 0 62 12t37 33q9 16 14.5 36t8.5 43q3 28 4 59.5t1 64.5v228q0 71 -9 125.5t-26 89.5q-14 30 -43 46t-73 16q-46 0 -82 -2.5t-92 -8.5q-14 -1 -30 -4t-33 -5v286q15 2 30 4.5t30 3.5 q53 7 105.5 10.5t106.5 3.5q95 0 163.5 -19.5t116.5 -51.5q56 -35 91.5 -86.5t57.5 -117.5q14 -41 21.5 -87t10 -97t2.5 -106v-228q0 -81 -14 -154t-42 -137q-31 -72 -79.5 -124.5t-128.5 -88.5q-38 -17 -84 -25t-82 -8z" glyph-name="uni05DB" horiz-adv-x="845" unicode="כ"/>
<glyph d="M247 0l107 498l155 521h-481v531h339v-263h486v-210l-172 -585l-107 -492h-327z" glyph-name="uni05DC" horiz-adv-x="872" unicode="ל"/>
<glyph d="M63 0l62 765q2 20 3 49t1 59q0 58 -5.5 112.5t-15.5 103.5q-2 10 -4.5 20t-5 19.5t-5.5 18.5q-10 36 -21 71.5t-22 71.5h319q21 -55 33.5 -100.5t21.5 -97.5h17q9 29 40 73t62 70q34 28 95.5 51.5t136.5 23.5q76 0 128.5 -25t85.5 -60q41 -43 69 -110t41 -145 q11 -63 16.5 -139.5t5.5 -140.5v-690h-587v271h247v417q0 70 -8.5 129.5t-25.5 107.5q-10 29 -23.5 52t-33 36t-48.5 13q-36 0 -64.5 -20t-48.5 -51t-34.5 -64t-24.5 -68l-68 -823h-339z" glyph-name="uni05DE" horiz-adv-x="1207" unicode="מ"/>
<glyph d="M33 0v271h293q8 28 11 83.5t3 139.5v393q0 33 -9.5 71.5t-31.5 53.5q-14 10 -37 13.5t-40 3.5q-20 0 -52.5 -5t-74.5 -16v279q69 14 111 18.5t81 4.5q65 0 128.5 -9.5t100.5 -23.5q59 -22 99 -76.5t53 -130.5q5 -27 8 -74.5t3 -108.5v-507q0 -69 -6.5 -134.5t-16 -119 t-19.5 -85.5l-13 -41h-591z" glyph-name="uni05E0" horiz-adv-x="759" unicode="נ"/>
<glyph d="M537 -20q-83 0 -155 25q-87 30 -147.5 94t-98.5 151q-38 89 -55 196.5t-17 223.5q0 74 23 144.5t57 123t66 72.5l-2 10l-135 -11v267q51 11 112 18.5t154 11.5t237 4q63 0 120 -25t101 -66q35 -32 73 -85t66 -123q28 -68 44.5 -160.5t16.5 -205.5q0 -97 -14.5 -187.5 t-43.5 -167.5q-31 -82 -78 -146t-111 -105q-93 -59 -213 -59zM527 252q31 0 53 18t38 60q14 38 21.5 88t10 106.5t2.5 112.5q0 109 -8 192.5t-27 131.5q-13 35 -33 56t-34 21q-25 0 -41.5 -2.5t-37.5 -8.5q-36 -67 -48 -154.5t-12 -212.5q0 -124 8.5 -207.5t21.5 -124.5 q12 -39 32.5 -57.5t53.5 -18.5z" glyph-name="uni05E1" horiz-adv-x="1061" unicode="ס"/>
<glyph d="M604 -492v1139q0 122 -5 189.5t-22 110.5q-22 59 -51.5 75t-50.5 16q-22 0 -39 -7t-29 -21q-21 -23 -28.5 -61t-7.5 -81q0 -47 10.5 -71t20.5 -41q13 -20 27.5 -35t51.5 -23l48 -10l-66 -268l-73 10q-103 14 -177 56.5t-113 94.5q-25 33 -52 101.5t-27 170.5 q0 100 29 175.5t75 128.5q28 33 68 62t81 48q46 20 96.5 31.5t102.5 11.5q92 0 159 -30t105 -62q41 -34 79 -85t63 -110q35 -79 50 -173.5t15 -202.5v-1139h-340z" glyph-name="uni05E3" horiz-adv-x="1030" unicode="ף"/>
<glyph d="M506 -20q-42 0 -102.5 4.5t-113 10t-71.5 9.5l-38 8v281q118 -20 201.5 -30.5t165.5 -10.5q21 0 42 26t34 71q7 23 10.5 48.5t4.5 53.5q1 40 1.5 89.5t0.5 90.5q0 77 -2.5 133.5t-8.5 97.5q-4 32 -9.5 56.5t-13.5 43.5q-19 48 -42 62t-46 14q-27 0 -46 -9.5t-31 -26.5 q-16 -23 -22 -58t-6 -76q0 -7 2.5 -34.5t6.5 -43.5q7 -25 32 -54t69 -38l48 -10l-66 -268l-73 9q-40 5 -95 24t-87 35q-22 11 -48 29t-44 37q-35 37 -65 114.5t-30 185.5q0 109 37.5 199.5t113.5 153.5q65 53 143 78t154 25q89 0 155 -27.5t106 -59.5q37 -29 80 -82t72 -124 q26 -62 44 -158.5t18 -214.5q0 -109 -16.5 -202.5t-43.5 -161.5q-28 -70 -67.5 -123.5t-78.5 -86.5q-35 -30 -99.5 -60t-175.5 -30z" glyph-name="uni05E4" horiz-adv-x="1051" unicode="פ"/>
<glyph d="M38 0v271h339l190 -19l-147 150l-397 888h353l200 -459l14 -33q36 37 61.5 80t32.5 140l21 270h340l-3 -51q-5 -95 -10.5 -154t-14 -105t-24.5 -103q-14 -50 -40.5 -110.5t-85.5 -137.5q-23 -31 -53 -63t-74 -64l223 -293v-207h-925z" glyph-name="uni05E6" horiz-adv-x="1066" unicode="צ"/>
<glyph d="M514 0q-4 8 -9.5 27t-5.5 63q0 29 4 70t14 96q6 28 12.5 60.5t15.5 70.5t20 80l141 552h-615v271h985v-201l-138 -555q-12 -51 -23 -94.5t-20 -80.5t-16 -71t-12 -64.5t-8.5 -60t-5 -59.5t-1.5 -62v-42h-338zM91 -494v1272h339v-1272h-339z" glyph-name="uni05E7" horiz-adv-x="1095" unicode="ק"/>
<glyph d="M445 0v824q0 64 -12 112t-45 71q-18 13 -47.5 21.5t-60.5 8.5q-24 0 -70.5 -3t-94.5 -7t-80 -7v272q89 9 164 13.5t128 4.5q89 0 159 -12t121 -35q42 -19 73.5 -47t54.5 -67q38 -64 44 -146.5t6 -179.5v-823h-340z" glyph-name="uni05E8" horiz-adv-x="871" unicode="ר"/>
<glyph d="M132 0l-102 1290h341l53 -634q35 -1 54 11.5t28 36.5q9 23 11.5 56.5t6.5 78.5l34 451h339l-42 -578q-4 -53 -19 -91t-46 -75q-51 -58 -123 -91t-187 -33q-10 0 -19 0.5t-19 0.5l12 -153h151q94 0 167 34t123 99q79 103 94 296l44 591h342l-45 -589q-11 -150 -53 -284.5 t-122 -212.5q-19 -19 -66.5 -56.5t-99.5 -65.5q-76 -40 -176.5 -61t-207.5 -21h-473z" glyph-name="uni05E9" horiz-adv-x="1395" unicode="ש"/>
<glyph d="M148 -29q-22 0 -56.5 10t-63.5 25v267q25 -22 64 -22q65 0 80 47.5t15 133.5v576q-25 -2 -50.5 -8.5t-51.5 -15.5v267q32 8 102.5 22t167.5 25.5t207 11.5q77 0 129.5 -4t89.5 -12.5t67 -20.5q29 -11 52 -24.5t42 -28.5q74 -62 88.5 -159.5t14.5 -237.5v-823h-341v824 q0 62 -7.5 104t-27.5 66q-20 26 -59 35q-13 3 -33.5 6t-48.5 4v-607q0 -91 -10 -169.5t-34 -137.5q-33 -89 -107 -121q-51 -24 -113.5 -28.5t-115.5 -4.5z" glyph-name="uni05EA" horiz-adv-x="1131" unicode="ת"/>
<glyph d="M132 0l-102 1290h341l53 -634q35 -1 54 11.5t28 36.5q9 23 11.5 56.5t6.5 78.5l34 451h339l-42 -578q-4 -53 -19 -91t-46 -75q-51 -58 -123 -91t-187 -33q-10 0 -19 0.5t-19 0.5l12 -153h151q94 0 167 34t123 99q79 103 94 296l44 591h342l-45 -589q-11 -150 -53 -284.5 t-122 -212.5q-19 -19 -66.5 -56.5t-99.5 -65.5q-76 -40 -176.5 -61t-207.5 -21h-473zM1231 1366q-107 0 -107 91q0 45 29.5 68.5t79.5 23.5q48 0 78.5 -26t30.5 -66t-30.5 -65.5t-80.5 -25.5z" glyph-name="uniFB2A" horiz-adv-x="1395" unicode="שׁ"/>
<glyph d="M132 0l-102 1290h341l53 -634q35 -1 54 11.5t28 36.5q9 23 11.5 56.5t6.5 78.5l34 451h339l-42 -578q-4 -53 -19 -91t-46 -75q-51 -58 -123 -91t-187 -33q-10 0 -19 0.5t-19 0.5l12 -153h151q94 0 167 34t123 99q79 103 94 296l44 591h342l-45 -589q-11 -150 -53 -284.5 t-122 -212.5q-19 -19 -66.5 -56.5t-99.5 -65.5q-76 -40 -176.5 -61t-207.5 -21h-473zM190 1367q-50 0 -78.5 24t-28.5 67q0 45 29.5 68.5t80.5 23.5t79.5 -26t28.5 -66t-30 -65.5t-81 -25.5z" glyph-name="uniFB2B" horiz-adv-x="1395" unicode="שׂ"/>
<glyph d="M132 0l-102 1290h341l53 -634q35 -1 54 11.5t28 36.5q9 23 11.5 56.5t6.5 78.5l34 451h339l-42 -578q-4 -53 -19 -91t-46 -75q-51 -58 -123 -91t-187 -33q-10 0 -19 0.5t-19 0.5l12 -153h151q94 0 167 34t123 99q79 103 94 296l44 591h342l-45 -589q-11 -150 -53 -284.5 t-122 -212.5q-19 -19 -66.5 -56.5t-99.5 -65.5q-76 -40 -176.5 -61t-207.5 -21h-473zM774 320q-106 0 -106 91q0 44 29.5 68t78.5 24t79.5 -26t30.5 -66t-31 -65.5t-81 -25.5zM1219 1367q-107 0 -107 91q0 45 29.5 68.5t79.5 23.5q48 0 78.5 -26t30.5 -66t-30.5 -65.5 t-80.5 -25.5z" glyph-name="uniFB2C" horiz-adv-x="1395" unicode="שּׁ"/>
<glyph d="M132 0l-102 1290h341l53 -634q35 -1 54 11.5t28 36.5q9 23 11.5 56.5t6.5 78.5l34 451h339l-42 -578q-4 -53 -19 -91t-46 -75q-51 -58 -123 -91t-187 -33q-10 0 -19 0.5t-19 0.5l12 -153h151q94 0 167 34t123 99q79 103 94 296l44 591h342l-45 -589q-11 -150 -53 -284.5 t-122 -212.5q-19 -19 -66.5 -56.5t-99.5 -65.5q-76 -40 -176.5 -61t-207.5 -21h-473zM774 320q-106 0 -106 91q0 44 29.5 68t78.5 24t79.5 -26t30.5 -66t-31 -65.5t-81 -25.5zM190 1367q-50 0 -78.5 24t-28.5 67q0 45 29.5 68.5t80.5 23.5t79.5 -26t28.5 -66t-30 -65.5 t-81 -25.5z" glyph-name="uniFB2D" horiz-adv-x="1395" unicode="שּׂ"/>
<glyph d="M86 0v465q0 48 3 76t11 52t23 60q22 53 72 89.5t112 61.5l-257 486h394l264 -568q7 6 13 18.5t11 26.5q5 15 7.5 30.5t2.5 28.5v464h340v-459q0 -95 -20 -160.5t-56 -100.5q-21 -21 -69.5 -51t-107.5 -47l234 -472h-396l-232 544q-1 -7 -3 -16t-4 -19q-3 -19 -3 -40v-469 h-339zM374 -366v134h410v-134h-410z" glyph-name="uniFB2E" horiz-adv-x="1132" unicode="אַ"/>
<glyph d="M86 0v465q0 48 3 76t11 52t23 60q22 53 72 89.5t112 61.5l-257 486h394l264 -568q7 6 13 18.5t11 26.5q5 15 7.5 30.5t2.5 28.5v464h340v-459q0 -95 -20 -160.5t-56 -100.5q-21 -21 -69.5 -51t-107.5 -47l234 -472h-396l-232 544q-1 -7 -3 -16t-4 -19q-3 -19 -3 -40v-469 h-339zM516 -572v204h-132v136h393v-136h-132v-204h-129z" glyph-name="uniFB2F" horiz-adv-x="1132" unicode="אָ"/>
<glyph d="M86 0v465q0 48 3 76t11 52t23 60q22 53 72 89.5t112 61.5l-257 486h394l264 -568q7 6 13 18.5t11 26.5q5 15 7.5 30.5t2.5 28.5v464h340v-459q0 -95 -20 -160.5t-56 -100.5q-21 -21 -69.5 -51t-107.5 -47l234 -472h-396l-232 544q-1 -7 -3 -16t-4 -19q-3 -19 -3 -40v-469 h-339zM510 76q-106 0 -106 91q0 44 29.5 68t78.5 24t79.5 -26t30.5 -66t-31 -65.5t-81 -25.5z" glyph-name="uniFB30" horiz-adv-x="1132" unicode="אּ"/>
<glyph d="M60 0v271h395v553q0 86 -20.5 140t-82.5 67q-14 3 -31.5 4.5t-25.5 1.5q-84 0 -129.5 -3.5t-105.5 -15.5v273q64 10 125 14.5t128 4.5q119 0 193 -13t124 -36q64 -28 95.5 -65t53.5 -83q9 -18 12.5 -71t4.5 -114t1 -105v-552h154v-271h-891zM309 531q-106 0 -106 91 q0 44 29.5 68t78.5 24t79.5 -26t30.5 -66t-31 -65.5t-81 -25.5z" glyph-name="uniFB31" horiz-adv-x="962" unicode="בּ"/>
<glyph d="M166 -28q-34 0 -67.5 3t-70.5 8l23 313q3 -1 35 -3.5t53 -2.5q131 0 203 24.5t82 61.5q9 31 13 68t4 88v355q0 74 -30 108t-72 34q-38 0 -75 -7t-78 -19v280q75 27 190 27q121 0 200.5 -22.5t123.5 -66.5q60 -58 70 -135t10 -199v-887h-240l-59 177h-19q-4 -20 -33.5 -60 t-68.5 -72q-31 -25 -91.5 -49t-102.5 -24zM310 530q-106 0 -106 91q0 44 29.5 68t78.5 24t79.5 -26t30.5 -66t-31 -65.5t-81 -25.5z" glyph-name="uniFB32" horiz-adv-x="866" unicode="גּ"/>
<glyph d="M433 0v783q0 48 16.5 93.5t38.5 67.5q23 24 49 43t54 32h-564v271h870v-259q-11 -4 -27 -13.5t-33 -29.5q-64 -75 -64 -216v-772h-340zM312 529q-106 0 -106 91q0 44 29.5 68t78.5 24t79.5 -26t30.5 -66t-31 -65.5t-81 -25.5z" glyph-name="uniFB33" horiz-adv-x="915" unicode="דּ"/>
<glyph d="M656 0v824q0 77 -16 128.5t-58 71.5q-14 7 -37 10t-60 3q-82 0 -167 -10t-227 -36v266q28 11 77.5 20t119.5 19q68 10 121.5 12t104.5 2q128 0 192.5 -10.5t111.5 -33.5q23 -10 41.5 -21.5t34.5 -24.5q77 -62 89.5 -156.5t12.5 -240.5v-823h-340zM91 0v828h341v-828h-341 zM540 471q-106 0 -106 91q0 44 29.5 68t78.5 24t79.5 -26t30.5 -66t-31 -65.5t-81 -25.5z" glyph-name="uniFB34" horiz-adv-x="1082" unicode="הּ"/>
<glyph d="M91 0v1290h340v-1290h-340zM-53 471q-106 0 -106 91q0 44 29.5 68t78.5 24t79.5 -26t30.5 -66t-31 -65.5t-81 -25.5z" glyph-name="uniFB35" horiz-adv-x="522" unicode="וּ"/>
<glyph d="M102 0v270q0 245 52.5 415.5t117.5 240.5q10 11 38 42.5t58 50.5h-298v271h521v-276q-8 -15 -31.5 -68.5t-49 -128.5t-39.5 -154q-12 -65 -18 -107.5t-8 -86.5q-2 -37 -2.5 -83.5t-0.5 -115.5v-270h-340zM-24 555q-106 0 -106 91q0 44 29.5 68t78.5 24t79.5 -26t30.5 -66 t-31 -65.5t-81 -25.5z" glyph-name="uniFB36" horiz-adv-x="599" unicode="זּ"/>
<glyph d="M534 -23q-68 0 -129 15t-108 49q-45 33 -83 80t-65 115q-31 79 -47 186.5t-16 247.5v617h346v-640q0 -121 8 -196.5t25 -124.5q17 -47 40.5 -60.5t45.5 -13.5q30 0 52 19t37 59q16 42 24.5 115t8.5 201q0 105 -7 186.5t-26 129.5q-16 41 -38.5 58t-45.5 17 q-10 0 -21.5 -0.5t-39.5 -4.5v268q23 5 57.5 7.5t53.5 2.5q69 0 135.5 -29.5t119.5 -94.5q37 -45 71 -114.5t54 -149.5q17 -65 25 -140t8 -144q0 -113 -20 -216t-50 -170q-29 -65 -72 -113t-81 -77q-66 -49 -135 -67t-127 -18zM549 551q-106 0 -106 91q0 44 29.5 68t78.5 24 t79.5 -26t30.5 -66t-31 -65.5t-81 -25.5z" glyph-name="uniFB38" horiz-adv-x="1097" unicode="טּ"/>
<glyph d="M91 416v874h339v-553l-198 -321h-141zM-58 736q-106 0 -106 91q0 44 29.5 68t78.5 24t79.5 -26t30.5 -66t-31 -65.5t-81 -25.5z" glyph-name="uniFB39" horiz-adv-x="521" unicode="יּ"/>
<glyph d="M430 -492v1237q0 40 -5 90.5t-15 84.5q-5 20 -15 36t-21 29q-33 40 -109 40q-34 0 -60.5 -0.5t-61.5 -2.5q-25 -1 -53 -3t-57 -5v274q33 5 66 9t64 7q35 3 68 4.5t61 1.5q101 0 175.5 -19t125.5 -54q61 -39 94.5 -100t53.5 -130q18 -66 22.5 -134t4.5 -128v-1237h-338z M299 529q-106 0 -106 91q0 44 29.5 68t78.5 24t79.5 -26t30.5 -66t-31 -65.5t-81 -25.5z" glyph-name="uniFB3A" horiz-adv-x="854" unicode="ךּ"/>
<glyph d="M351 -20q-103 0 -177.5 8.5t-129.5 25.5v288q42 -10 85.5 -17.5t88 -11.5t89.5 -4q36 0 62 12t37 33q9 16 14.5 36t8.5 43q3 28 4 59.5t1 64.5v228q0 71 -9 125.5t-26 89.5q-14 30 -43 46t-73 16q-46 0 -82 -2.5t-92 -8.5q-14 -1 -30 -4t-33 -5v286q15 2 30 4.5t30 3.5 q53 7 105.5 10.5t106.5 3.5q95 0 163.5 -19.5t116.5 -51.5q56 -35 91.5 -86.5t57.5 -117.5q14 -41 21.5 -87t10 -97t2.5 -106v-228q0 -81 -14 -154t-42 -137q-31 -72 -79.5 -124.5t-128.5 -88.5q-38 -17 -84 -25t-82 -8zM302 528q-106 0 -106 91q0 44 29.5 68t78.5 24 t79.5 -26t30.5 -66t-31 -65.5t-81 -25.5z" glyph-name="uniFB3B" horiz-adv-x="845" unicode="כּ"/>
<glyph d="M247 0l107 498l155 521h-481v531h339v-263h486v-210l-172 -585l-107 -492h-327zM261 528q-106 0 -106 91q0 44 29.5 68t78.5 24t79.5 -26t30.5 -66t-31 -65.5t-81 -25.5z" glyph-name="uniFB3C" horiz-adv-x="872" unicode="לּ"/>
<glyph d="M63 0l62 765q2 20 3 49t1 59q0 58 -5.5 112.5t-15.5 103.5q-2 10 -4.5 20t-5 19.5t-5.5 18.5q-10 36 -21 71.5t-22 71.5h319q21 -55 33.5 -100.5t21.5 -97.5h17q9 29 40 73t62 70q34 28 95.5 51.5t136.5 23.5q76 0 128.5 -25t85.5 -60q41 -43 69 -110t41 -145 q11 -63 16.5 -139.5t5.5 -140.5v-690h-587v271h247v417q0 70 -8.5 129.5t-25.5 107.5q-10 29 -23.5 52t-33 36t-48.5 13q-36 0 -64.5 -20t-48.5 -51t-34.5 -64t-24.5 -68l-68 -823h-339zM613 471q-106 0 -106 91q0 44 29.5 68t78.5 24t79.5 -26t30.5 -66t-31 -65.5 t-81 -25.5z" glyph-name="uniFB3E" horiz-adv-x="1207" unicode="מּ"/>
<glyph d="M33 0v271h293q8 28 11 83.5t3 139.5v393q0 33 -9.5 71.5t-31.5 53.5q-14 10 -37 13.5t-40 3.5q-20 0 -52.5 -5t-74.5 -16v279q69 14 111 18.5t81 4.5q65 0 128.5 -9.5t100.5 -23.5q59 -22 99 -76.5t53 -130.5q5 -27 8 -74.5t3 -108.5v-507q0 -69 -6.5 -134.5t-16 -119 t-19.5 -85.5l-13 -41h-591zM218 532q-106 0 -106 91q0 44 29.5 68t78.5 24t79.5 -26t30.5 -66t-31 -65.5t-81 -25.5z" glyph-name="uniFB40" horiz-adv-x="759" unicode="נּ"/>
<glyph d="M537 -20q-83 0 -155 25q-87 30 -147.5 94t-98.5 151q-38 89 -55 196.5t-17 223.5q0 74 23 144.5t57 123t66 72.5l-2 10l-135 -11v267q51 11 112 18.5t154 11.5t237 4q63 0 120 -25t101 -66q35 -32 73 -85t66 -123q28 -68 44.5 -160.5t16.5 -205.5q0 -97 -14.5 -187.5 t-43.5 -167.5q-31 -82 -78 -146t-111 -105q-93 -59 -213 -59zM527 252q31 0 53 18t38 60q14 38 21.5 88t10 106.5t2.5 112.5q0 109 -8 192.5t-27 131.5q-13 35 -33 56t-34 21q-25 0 -41.5 -2.5t-37.5 -8.5q-36 -67 -48 -154.5t-12 -212.5q0 -124 8.5 -207.5t21.5 -124.5 q12 -39 32.5 -57.5t53.5 -18.5zM527 541q-106 0 -106 91q0 44 29.5 68t78.5 24t79.5 -26t30.5 -66t-31 -65.5t-81 -25.5z" glyph-name="uniFB41" horiz-adv-x="1061" unicode="סּ"/>
<glyph d="M604 -492v1139q0 122 -5 189.5t-22 110.5q-22 59 -51.5 75t-50.5 16q-22 0 -39 -7t-29 -21q-21 -23 -28.5 -61t-7.5 -81q0 -47 10.5 -71t20.5 -41q13 -20 27.5 -35t51.5 -23l48 -10l-66 -268l-73 10q-103 14 -177 56.5t-113 94.5q-25 33 -52 101.5t-27 170.5 q0 100 29 175.5t75 128.5q28 33 68 62t81 48q46 20 96.5 31.5t102.5 11.5q92 0 159 -30t105 -62q41 -34 79 -85t63 -110q35 -79 50 -173.5t15 -202.5v-1139h-340zM478 783q-106 0 -106 91q0 44 29.5 68t78.5 24t79.5 -26t30.5 -66t-31 -65.5t-81 -25.5z" glyph-name="uniFB43" horiz-adv-x="1030" unicode="ףּ"/>
<glyph d="M506 -20q-42 0 -102.5 4.5t-113 10t-71.5 9.5l-38 8v281q118 -20 201.5 -30.5t165.5 -10.5q21 0 42 26t34 71q7 23 10.5 48.5t4.5 53.5q1 40 1.5 89.5t0.5 90.5q0 77 -2.5 133.5t-8.5 97.5q-4 32 -9.5 56.5t-13.5 43.5q-19 48 -42 62t-46 14q-27 0 -46 -9.5t-31 -26.5 q-16 -23 -22 -58t-6 -76q0 -7 2.5 -34.5t6.5 -43.5q7 -25 32 -54t69 -38l48 -10l-66 -268l-73 9q-40 5 -95 24t-87 35q-22 11 -48 29t-44 37q-35 37 -65 114.5t-30 185.5q0 109 37.5 199.5t113.5 153.5q65 53 143 78t154 25q89 0 155 -27.5t106 -59.5q37 -29 80 -82t72 -124 q26 -62 44 -158.5t18 -214.5q0 -109 -16.5 -202.5t-43.5 -161.5q-28 -70 -67.5 -123.5t-78.5 -86.5q-35 -30 -99.5 -60t-175.5 -30zM518 773q-106 0 -106 91q0 44 29.5 68t78.5 24t79.5 -26t30.5 -66t-31 -65.5t-81 -25.5z" glyph-name="uniFB44" horiz-adv-x="1051" unicode="פּ"/>
<glyph d="M38 0v271h339l190 -19l-147 150l-397 888h353l200 -459l14 -33q36 37 61.5 80t32.5 140l21 270h340l-3 -51q-5 -95 -10.5 -154t-14 -105t-24.5 -103q-14 -50 -40.5 -110.5t-85.5 -137.5q-23 -31 -53 -63t-74 -64l223 -293v-207h-925zM187 431q-106 0 -106 91 q0 44 29.5 68t78.5 24t79.5 -26t30.5 -66t-31 -65.5t-81 -25.5z" glyph-name="uniFB46" horiz-adv-x="1066" unicode="צּ"/>
<glyph d="M514 0q-4 8 -9.5 27t-5.5 63q0 29 4 70t14 96q6 28 12.5 60.5t15.5 70.5t20 80l141 552h-615v271h985v-201l-138 -555q-12 -51 -23 -94.5t-20 -80.5t-16 -71t-12 -64.5t-8.5 -60t-5 -59.5t-1.5 -62v-42h-338zM91 -494v1272h339v-1272h-339zM530 671q-106 0 -106 91 q0 44 29.5 68t78.5 24t79.5 -26t30.5 -66t-31 -65.5t-81 -25.5z" glyph-name="uniFB47" horiz-adv-x="1095" unicode="קּ"/>
<glyph d="M445 0v824q0 64 -12 112t-45 71q-18 13 -47.5 21.5t-60.5 8.5q-24 0 -70.5 -3t-94.5 -7t-80 -7v272q89 9 164 13.5t128 4.5q89 0 159 -12t121 -35q42 -19 73.5 -47t54.5 -67q38 -64 44 -146.5t6 -179.5v-823h-340zM263 528q-106 0 -106 91q0 44 29.5 68t78.5 24t79.5 -26 t30.5 -66t-31 -65.5t-81 -25.5z" glyph-name="uniFB48" horiz-adv-x="871" unicode="רּ"/>
<glyph d="M132 0l-102 1290h341l53 -634q35 -1 54 11.5t28 36.5q9 23 11.5 56.5t6.5 78.5l34 451h339l-42 -578q-4 -53 -19 -91t-46 -75q-51 -58 -123 -91t-187 -33q-10 0 -19 0.5t-19 0.5l12 -153h151q94 0 167 34t123 99q79 103 94 296l44 591h342l-45 -589q-11 -150 -53 -284.5 t-122 -212.5q-19 -19 -66.5 -56.5t-99.5 -65.5q-76 -40 -176.5 -61t-207.5 -21h-473zM774 320q-106 0 -106 91q0 44 29.5 68t78.5 24t79.5 -26t30.5 -66t-31 -65.5t-81 -25.5z" glyph-name="uniFB49" horiz-adv-x="1395" unicode="שּ"/>
<glyph d="M148 -29q-22 0 -56.5 10t-63.5 25v267q25 -22 64 -22q65 0 80 47.5t15 133.5v576q-25 -2 -50.5 -8.5t-51.5 -15.5v267q32 8 102.5 22t167.5 25.5t207 11.5q77 0 129.5 -4t89.5 -12.5t67 -20.5q29 -11 52 -24.5t42 -28.5q74 -62 88.5 -159.5t14.5 -237.5v-823h-341v824 q0 62 -7.5 104t-27.5 66q-20 26 -59 35q-13 3 -33.5 6t-48.5 4v-607q0 -91 -10 -169.5t-34 -137.5q-33 -89 -107 -121q-51 -24 -113.5 -28.5t-115.5 -4.5zM612 521q-106 0 -106 91q0 44 29.5 68t78.5 24t79.5 -26t30.5 -66t-31 -65.5t-81 -25.5z" glyph-name="uniFB4A" horiz-adv-x="1131" unicode="תּ"/>
<glyph d="M91 0v1290h340v-1290h-340zM262 1351q-108 0 -108 91q0 45 30.5 68.5t79.5 23.5t78.5 -26t29.5 -66t-30 -65.5t-80 -25.5z" glyph-name="uniFB4B" horiz-adv-x="522" unicode="וֹ"/>
<glyph d="M827 1602q-10 -123 -55.5 -205.5t-126 -124t-196.5 -41.5q-122 0 -202.5 41.5t-123 124t-49.5 205.5h256q0 -97 27 -146t92 -49q56 0 86.5 49t33.5 146h258z" glyph-name="cyrillicbreve" horiz-adv-x="899"/>
<glyph d="M145 -199q0 44 -19.5 82.5t-82.5 116.5h197q86 -66 121.5 -128.5t35.5 -131.5q0 -109 -64 -170.5t-183 -61.5q-40 0 -79.5 7t-74.5 20v221q15 -9 41.5 -15.5t48.5 -6.5q29 0 44 16.5t15 50.5z" glyph-name="cyrillichookleft" horiz-adv-x="322"/>
<glyph d="M193 -492q-67 0 -116 6.5t-81 16.5v281q25 -10 48 -14.5t48 -4.5q42 0 66.5 14.5t34.5 46.5t10 83v63h-17v299h355v-371q0 -139 -43 -232.5t-121.5 -140.5t-183.5 -47z" glyph-name="cyrillicbighookUC" horiz-adv-x="541"/>
<glyph d="M991 1520v-127l-82 -172h-71l-50 102h-131l-49 -102h-71l-48 102h-133l-49 -102h-71l-80 172v127h835z" glyph-name="cyrillic_otmark" horiz-adv-x="1147"/>
</font>
</defs>
</svg>
